<?xml version="1.0" encoding="UTF-8" standalone="no"?>
<!-- Created with Inkscape (http://www.inkscape.org/) -->

<svg
   xmlns:dc="http://purl.org/dc/elements/1.1/"
   xmlns:cc="http://creativecommons.org/ns#"
   xmlns:rdf="http://www.w3.org/1999/02/22-rdf-syntax-ns#"
   xmlns:svg="http://www.w3.org/2000/svg"
   xmlns="http://www.w3.org/2000/svg"
   xmlns:sodipodi="http://sodipodi.sourceforge.net/DTD/sodipodi-0.dtd"
   xmlns:inkscape="http://www.inkscape.org/namespaces/inkscape"
   width="10"
   height="10"
   viewBox="0 0 2.6458333 2.6458334"
   version="1.1"
   id="svg4735"
   inkscape:version="0.92.1 r15371"
   sodipodi:docname="telegram.svg">
  <defs
     id="defs4729" />
  <sodipodi:namedview
     id="base"
     pagecolor="#ffffff"
     bordercolor="#666666"
     borderopacity="1.0"
     inkscape:pageopacity="0.0"
     inkscape:pageshadow="2"
     inkscape:zoom="63.356767"
     inkscape:cx="4.9420618"
     inkscape:cy="6.7275779"
     inkscape:document-units="px"
     inkscape:current-layer="layer1"
     showgrid="false"
     units="px"
     inkscape:window-width="2160"
     inkscape:window-height="1346"
     inkscape:window-x="-11"
     inkscape:window-y="1609"
     inkscape:window-maximized="1" />
  <metadata
     id="metadata4732">
    <rdf:RDF>
      <cc:Work
         rdf:about="">
        <dc:format>image/svg+xml</dc:format>
        <dc:type
           rdf:resource="http://purl.org/dc/dcmitype/StillImage" />
        <dc:title></dc:title>
      </cc:Work>
    </rdf:RDF>
  </metadata>
  <g
     inkscape:label="Layer 1"
     inkscape:groupmode="layer"
     id="layer1"
     transform="translate(0,-294.35415)">
    <g
       id="g4628"
       transform="matrix(0.01371362,0,0,0.01341305,1.7166228,300.3135)">
      <g
         id="g4571">
        <path
           style="fill:#dce3e6;fill-opacity:1;stroke-width:0.42806998"
           d="m -125.17649,-444.29446 v 197.2582 H 67.758228 v -197.2582 z m 155.553618,43.15024 c 3.4484,0.65773 6.0846,4.13504 5.2755,8.09066 l -22.0065,107.72148 c -1.0335,5.05253 -6.8579004,7.29251 -10.9280004,4.23797 l -33.2359996,-24.96551 -16.9572,17.72243 c -2.9749,3.10563 -8.1425,1.83454 -9.4206,-2.31163 l -12.2092,-39.68279 -32.783798,-9.93996 c -4.3017,-1.29851 -4.5557,-7.42724 -0.3768,-9.09237 l 129.024998,-51.395 c 1.2277,-0.48912 2.4681,-0.60452 3.6176,-0.38528 z m -21.7052004,21.7292 -70.7677996,44.84544 c -1.2459,0.78994 -1.7914,2.34382 -1.3566,3.77564 l 9.496,31.28392 c 0.1999,0.65703 1.1305,0.60685 1.2059,-0.077 l 2.3363,-20.95868 c 0.089,-0.81029 0.4577,-1.61732 1.0551,-2.15753 l 59.9153,-54.16896 c 1.4347,-1.29677 -0.2568,-3.57554 -1.8842004,-2.54278 z"
           id="rect4567"
           inkscape:connector-curvature="0" />
      </g>
      <g
         id="g4573" />
      <g
         id="g4575" />
      <g
         id="g4577" />
      <g
         id="g4579" />
      <g
         id="g4581" />
      <g
         id="g4583" />
      <g
         id="g4585" />
      <g
         id="g4587" />
      <g
         id="g4589" />
      <g
         id="g4591" />
      <g
         id="g4593" />
      <g
         id="g4595" />
      <g
         id="g4597" />
      <g
         id="g4599" />
      <g
         id="g4601" />
    </g>
  </g>
</svg>
