
<svg
   xmlns:dc="http://purl.org/dc/elements/1.1/"
   xmlns:cc="http://creativecommons.org/ns#"
   xmlns:rdf="http://www.w3.org/1999/02/22-rdf-syntax-ns#"
   xmlns:svg="http://www.w3.org/2000/svg"
   xmlns="http://www.w3.org/2000/svg"
   id="svg8"
   version="1.1"
   viewBox="0 0 2.6458333 2.6458334"
   height="500"
   width="500">
  <defs
     id="defs2" />
  <metadata
     id="metadata5">
    <rdf:RDF>
      <cc:Work
         rdf:about="">
        <dc:format>image/svg+xml</dc:format>
        <dc:type
           rdf:resource="http://purl.org/dc/dcmitype/StillImage" />
        <dc:title></dc:title>
      </cc:Work>
    </rdf:RDF>
  </metadata>
  <g
     transform="translate(0,-294.35415)"
     id="layer1">
    <path
       id="rect4549"
       transform="matrix(0.26458333,0,0,0.26458333,0,294.35415)"
       d="M 0 0 L 0 10 L 10 10 L 10 0 L 0 0 z M 3.3964844 2.203125 L 6.875 5.6816406 L 6.6035156 5.953125 L 6.1875 5.5351562 L 3.75 5.5351562 C 3.0624995 5.5351562 2.5 4.9726567 2.5 4.2851562 C 2.5 3.6184891 3.0423173 3.0768229 3.7089844 3.0351562 L 3.125 2.4726562 L 3.3964844 2.203125 z M 5 2.203125 C 5.7708257 2.203125 6.395174 2.7447912 6.5410156 3.453125 C 7.0618493 3.4947917 7.5 3.9524736 7.5 4.4941406 C 7.5 4.8483075 7.3333335 5.1601561 7.0625 5.3476562 L 6.75 5.0351562 C 6.9583335 4.9309895 7.0839844 4.7233074 7.0839844 4.4941406 C 7.0839844 4.1399737 6.8131513 3.8691406 6.4589844 3.8691406 L 6.1464844 3.8691406 L 6.1464844 3.765625 C 6.1464844 3.1406246 5.6250004 2.6191406 5 2.6191406 C 4.8124999 2.6191406 4.6243491 2.6614583 4.4785156 2.765625 L 4.1660156 2.453125 C 4.3951824 2.2864582 4.6874998 2.203125 5 2.203125 z M 3.75 3.453125 C 3.2916664 3.453125 2.9160156 3.8268226 2.9160156 4.2851562 C 2.9160156 4.7434899 3.2916664 5.1191406 3.75 5.1191406 L 5.7714844 5.1191406 L 4.1035156 3.453125 L 3.75 3.453125 z M 2.6855469 6.3574219 C 2.7815469 6.3574219 2.8667397 6.37425 2.9414062 6.40625 C 3.0178507 6.4364722 3.0833854 6.4803958 3.1367188 6.5390625 C 3.190052 6.5977292 3.2313212 6.6683976 3.2597656 6.7519531 C 3.2882101 6.8355087 3.3027344 6.9281389 3.3027344 7.03125 L 3.3027344 7.1035156 C 3.3027344 7.1230712 3.2954722 7.1400747 3.28125 7.1542969 C 3.2670278 7.1685191 3.2500242 7.1757813 3.2304688 7.1757812 L 2.3125 7.1757812 L 2.3125 7.1914062 C 2.3160556 7.3122951 2.3525417 7.4068786 2.421875 7.4726562 C 2.4929861 7.5366562 2.580658 7.5683594 2.6855469 7.5683594 C 2.7833247 7.5683594 2.8562969 7.5540103 2.9042969 7.5273438 C 2.9540747 7.4988993 2.9951684 7.4693247 3.0253906 7.4355469 C 3.0396128 7.4213247 3.0518333 7.4115833 3.0625 7.40625 C 3.0731667 7.4009167 3.0880417 7.3984375 3.109375 7.3984375 L 3.1894531 7.3984375 C 3.2090087 7.3984375 3.2281406 7.4037465 3.2441406 7.4179688 C 3.2601406 7.4321909 3.2652742 7.4491944 3.2617188 7.46875 C 3.2563854 7.50075 3.2416858 7.5370608 3.2167969 7.5761719 C 3.191908 7.6135052 3.1554219 7.649816 3.1074219 7.6835938 C 3.0611997 7.7155936 3.0027517 7.7425139 2.9316406 7.765625 C 2.8623073 7.7869583 2.7797691 7.796875 2.6855469 7.796875 C 2.596658 7.796875 2.5164236 7.7821753 2.4453125 7.7519531 C 2.3742014 7.7199531 2.313099 7.6783333 2.2597656 7.625 C 2.2082101 7.5698889 2.1667656 7.5045295 2.1347656 7.4316406 C 2.1027656 7.356974 2.083283 7.2765642 2.0761719 7.1894531 C 2.067283 7.1076753 2.067283 7.0251372 2.0761719 6.9433594 C 2.083283 6.8615816 2.1027656 6.7859548 2.1347656 6.7148438 C 2.1667656 6.6437326 2.2082101 6.580677 2.2597656 6.5273438 C 2.3113212 6.4740104 2.3722483 6.4325659 2.4433594 6.4023438 C 2.5162483 6.3721215 2.596658 6.3574219 2.6855469 6.3574219 z M 6.1875 6.3574219 C 6.2835 6.3574219 6.3686927 6.3721215 6.4433594 6.4023438 C 6.518026 6.4307881 6.5814323 6.4718819 6.6347656 6.5234375 C 6.688099 6.5749931 6.7295434 6.638224 6.7597656 6.7128906 C 6.7917656 6.7857795 6.8112483 6.8660139 6.8183594 6.953125 C 6.8201372 6.969125 6.8222656 6.9886076 6.8222656 7.0117188 L 6.8222656 7.0800781 L 6.8222656 7.1503906 C 6.8222656 7.171724 6.8201372 7.1889028 6.8183594 7.203125 C 6.8094705 7.2920139 6.7899878 7.3724236 6.7597656 7.4453125 C 6.7295434 7.5182014 6.688099 7.5812569 6.6347656 7.6328125 C 6.5814323 7.6843681 6.518026 7.7236841 6.4433594 7.7539062 C 6.3686927 7.7823507 6.2835 7.796875 6.1875 7.796875 C 6.0915 7.796875 6.0063073 7.7823507 5.9316406 7.7539062 C 5.856974 7.7236841 5.7916146 7.6843681 5.7382812 7.6328125 C 5.684948 7.5812569 5.6433281 7.5182014 5.6113281 7.4453125 C 5.5811059 7.3724236 5.5617986 7.2920139 5.5546875 7.203125 C 5.5529097 7.1889028 5.5506059 7.171724 5.5488281 7.1503906 L 5.5488281 7.0800781 L 5.5488281 7.0117188 C 5.5506059 6.9886076 5.5529097 6.969125 5.5546875 6.953125 C 5.5617986 6.8660139 5.5811059 6.7857795 5.6113281 6.7128906 C 5.6433281 6.638224 5.684948 6.5749931 5.7382812 6.5234375 C 5.7916146 6.4718819 5.856974 6.4307881 5.9316406 6.4023438 C 6.0063073 6.3721215 6.0915 6.3574219 6.1875 6.3574219 z M 3.7011719 6.3847656 L 3.7988281 6.3847656 C 3.8183837 6.3847656 3.8353872 6.3920278 3.8496094 6.40625 C 3.8638316 6.4204722 3.8710937 6.4374758 3.8710938 6.4570312 L 3.8710938 6.5390625 C 3.9066492 6.4857292 3.9502222 6.4467639 4 6.421875 C 4.0497778 6.3969861 4.1153125 6.3847656 4.1953125 6.3847656 L 4.3339844 6.3847656 C 4.3535399 6.3847656 4.3685903 6.3920278 4.3828125 6.40625 C 4.3970347 6.4204722 4.4042969 6.4374758 4.4042969 6.4570312 L 4.4042969 6.5410156 C 4.4042969 6.5605712 4.3970347 6.5775747 4.3828125 6.5917969 C 4.3685903 6.6060191 4.3535399 6.6132813 4.3339844 6.6132812 L 4.1777344 6.6132812 C 3.9732899 6.6132812 3.8710937 6.7154774 3.8710938 6.9199219 L 3.8710938 7.6992188 C 3.8710937 7.7187742 3.8638316 7.7357778 3.8496094 7.75 C 3.8353872 7.7642222 3.8183837 7.7714844 3.7988281 7.7714844 L 3.7011719 7.7714844 C 3.6816163 7.7714844 3.6646128 7.7642222 3.6503906 7.75 C 3.6361684 7.7357778 3.6289063 7.7187742 3.6289062 7.6992188 L 3.6289062 6.4570312 C 3.6289062 6.4374758 3.6361684 6.4204722 3.6503906 6.40625 C 3.6646128 6.3920278 3.6816163 6.3847656 3.7011719 6.3847656 z M 4.7109375 6.3847656 L 4.8105469 6.3847656 C 4.8301024 6.3847656 4.8471059 6.3920278 4.8613281 6.40625 C 4.8755503 6.4204722 4.8828125 6.4374758 4.8828125 6.4570312 L 4.8828125 6.5390625 C 4.9183681 6.4857292 4.9599878 6.4467639 5.0097656 6.421875 C 5.0595434 6.3969861 5.1250781 6.3847656 5.2050781 6.3847656 L 5.34375 6.3847656 C 5.3633056 6.3847656 5.3803091 6.3920278 5.3945312 6.40625 C 5.4087535 6.4204722 5.4160156 6.4374758 5.4160156 6.4570312 L 5.4160156 6.5410156 C 5.4160156 6.5605712 5.4087535 6.5775747 5.3945312 6.5917969 C 5.3803091 6.6060191 5.3633056 6.6132813 5.34375 6.6132812 L 5.1894531 6.6132812 C 4.9850087 6.6132812 4.8828125 6.7154774 4.8828125 6.9199219 L 4.8828125 7.6992188 C 4.8828125 7.7187742 4.8755503 7.7357778 4.8613281 7.75 C 4.8471059 7.7642222 4.8301024 7.7714844 4.8105469 7.7714844 L 4.7109375 7.7714844 C 4.6913819 7.7714844 4.6743785 7.7642222 4.6601562 7.75 C 4.6459341 7.7357778 4.6386719 7.7187742 4.6386719 7.6992188 L 4.6386719 6.4570312 C 4.6386719 6.4374758 4.6459341 6.4204722 4.6601562 6.40625 C 4.6743785 6.3920278 4.6913819 6.3847656 4.7109375 6.3847656 z M 7.2265625 6.3847656 L 7.3261719 6.3847656 C 7.3457274 6.3847656 7.3627309 6.3920278 7.3769531 6.40625 C 7.3911753 6.4204722 7.3984375 6.4374758 7.3984375 6.4570312 L 7.3984375 6.5390625 C 7.4339931 6.4857292 7.4756128 6.4467639 7.5253906 6.421875 C 7.5751684 6.3969861 7.6407031 6.3847656 7.7207031 6.3847656 L 7.859375 6.3847656 C 7.8789306 6.3847656 7.8959341 6.3920278 7.9101562 6.40625 C 7.9243785 6.4204722 7.9316406 6.4374758 7.9316406 6.4570312 L 7.9316406 6.5410156 C 7.9316406 6.5605712 7.9243785 6.5775747 7.9101562 6.5917969 C 7.8959341 6.6060191 7.8789306 6.6132813 7.859375 6.6132812 L 7.7050781 6.6132812 C 7.5006337 6.6132812 7.3984375 6.7154774 7.3984375 6.9199219 L 7.3984375 7.6992188 C 7.3984375 7.7187742 7.3911753 7.7357778 7.3769531 7.75 C 7.3627309 7.7642222 7.3457274 7.7714844 7.3261719 7.7714844 L 7.2265625 7.7714844 C 7.2070069 7.7714844 7.1900035 7.7642222 7.1757812 7.75 C 7.1615591 7.7357778 7.1542969 7.7187742 7.1542969 7.6992188 L 7.1542969 6.4570312 C 7.1542969 6.4374758 7.1615591 6.4204722 7.1757812 6.40625 C 7.1900035 6.3920278 7.2070069 6.3847656 7.2265625 6.3847656 z M 2.6855469 6.5859375 C 2.6339913 6.5859375 2.5874131 6.5955036 2.5429688 6.6132812 C 2.4985243 6.6292812 2.459559 6.6535469 2.4257812 6.6855469 C 2.3920036 6.7157691 2.3652587 6.7524306 2.3457031 6.796875 C 2.3261476 6.8413194 2.3142778 6.890026 2.3125 6.9433594 L 2.3125 6.953125 L 3.0625 6.953125 L 3.0625 6.9433594 C 3.0625 6.8349149 3.0283177 6.7495469 2.9589844 6.6855469 C 2.8914288 6.6197691 2.7993247 6.5859375 2.6855469 6.5859375 z M 6.1875 6.5859375 C 6.1252778 6.5859375 6.0696597 6.5956788 6.0234375 6.6152344 C 5.9772153 6.6347899 5.93825 6.6615347 5.90625 6.6953125 C 5.87425 6.7290903 5.849809 6.7701841 5.8320312 6.8164062 C 5.8142536 6.8626285 5.8022083 6.9115104 5.796875 6.9648438 C 5.7933194 6.9968436 5.7929688 7.0356337 5.7929688 7.0800781 C 5.7929688 7.1227448 5.7933194 7.1592309 5.796875 7.1894531 C 5.8022083 7.2427865 5.8142536 7.2916684 5.8320312 7.3378906 C 5.849809 7.3841128 5.87425 7.4252066 5.90625 7.4589844 C 5.93825 7.4927622 5.9772153 7.5195069 6.0234375 7.5390625 C 6.0696597 7.5586181 6.1252778 7.5683594 6.1875 7.5683594 C 6.2497222 7.5683594 6.3033872 7.5586181 6.3496094 7.5390625 C 6.3958316 7.5195069 6.4347969 7.4927622 6.4667969 7.4589844 C 6.4987969 7.4252066 6.5232378 7.3841128 6.5410156 7.3378906 C 6.5587934 7.2916684 6.5708385 7.2427865 6.5761719 7.1894531 C 6.5797274 7.1592309 6.5820313 7.1227448 6.5820312 7.0800781 C 6.5820312 7.0356337 6.5797274 6.9968436 6.5761719 6.9648438 C 6.5708385 6.9115104 6.5587934 6.8626285 6.5410156 6.8164062 C 6.5232378 6.7701841 6.4987969 6.7290903 6.4667969 6.6953125 C 6.4347969 6.6615347 6.3958316 6.6347899 6.3496094 6.6152344 C 6.3033872 6.5956788 6.2497222 6.5859375 6.1875 6.5859375 z "
       style="opacity:1;fill:#505050;fill-opacity:1;stroke:none;stroke-width:0.49999997;stroke-linecap:square;stroke-linejoin:miter;stroke-miterlimit:4;stroke-dasharray:none;stroke-opacity:1" />
    <text
       id="text4555"
       y="296.73541"
       x="0.26458332"
       style="font-style:normal;font-variant:normal;font-weight:normal;font-stretch:normal;font-size:0.35277778px;line-height:1.25;font-family:ReSquare;-inkscape-font-specification:ReSquare;letter-spacing:0px;word-spacing:0px;fill:#000000;fill-opacity:1;stroke:none;stroke-width:0.26458332;"
       xml:space="preserve"><tspan
         style="stroke-width:0.26458332;font-size:0.35277778px;"
         y="297.92181"
         x="0.26458332"
         id="tspan4553" /></text>
    <g
       style="fill:#323232;fill-opacity:1"
       transform="matrix(0.00216163,0,0,0.00216163,0.6614579,294.77153)"
       id="g4547">
      <g
         style="fill:#323232;fill-opacity:1"
         id="g4490">
        <g
           style="fill:#323232;fill-opacity:1"
           id="cloud-off" />
      </g>
      <g
         style="fill:#323232;fill-opacity:1"
         id="g4492" />
      <g
         style="fill:#323232;fill-opacity:1"
         id="g4494" />
      <g
         style="fill:#323232;fill-opacity:1"
         id="g4496" />
      <g
         style="fill:#323232;fill-opacity:1"
         id="g4498" />
      <g
         style="fill:#323232;fill-opacity:1"
         id="g4500" />
      <g
         style="fill:#323232;fill-opacity:1"
         id="g4502" />
      <g
         style="fill:#323232;fill-opacity:1"
         id="g4504" />
      <g
         style="fill:#323232;fill-opacity:1"
         id="g4506" />
      <g
         style="fill:#323232;fill-opacity:1"
         id="g4508" />
      <g
         style="fill:#323232;fill-opacity:1"
         id="g4510" />
      <g
         style="fill:#323232;fill-opacity:1"
         id="g4512" />
      <g
         style="fill:#323232;fill-opacity:1"
         id="g4514" />
      <g
         style="fill:#323232;fill-opacity:1"
         id="g4516" />
      <g
         style="fill:#323232;fill-opacity:1"
         id="g4518" />
      <g
         style="fill:#323232;fill-opacity:1"
         id="g4520" />
    </g>
  </g>
</svg>
