<?xml version="1.0" encoding="iso-8859-1"?>
<!-- Generator: Adobe Illustrator 18.0.0, SVG Export Plug-In . SVG Version: 6.00 Build 0)  -->
<!DOCTYPE svg PUBLIC "-//W3C//DTD SVG 1.1//EN" "http://www.w3.org/Graphics/SVG/1.1/DTD/svg11.dtd">
<svg version="1.1" id="Capa_1" xmlns="http://www.w3.org/2000/svg" xmlns:xlink="http://www.w3.org/1999/xlink" x="0px" y="0px"
	 viewBox="0 0 466.971 466.971" style="enable-background:new 0 0 466.971 466.971;" xml:space="preserve">
<g>
	<g>
		<circle cx="171.225" cy="253.435" r="10.831"/>
		<circle cx="295.746" cy="253.435" r="10.831"/>
	</g>
	<path d="M233.481,322.257c9.126,0,17.69-4.871,22.351-12.711c1.552-2.611,0.694-5.986-1.917-7.538
		c-2.611-1.555-5.987-0.693-7.538,1.917c-2.729,4.591-7.55,7.332-12.896,7.332c-5.34,0-10.158-2.741-12.887-7.332
		c-1.552-2.61-4.926-3.472-7.538-1.917c-2.611,1.552-3.469,4.927-1.917,7.538C215.8,317.386,224.361,322.257,233.481,322.257z"/>
	<path d="M398.585,68.387C354.485,24.287,295.852,0,233.485,0s-121,24.287-165.099,68.387S0,171.119,0,233.486
		s24.287,121,68.386,165.1c44.1,44.099,102.733,68.386,165.099,68.386s121-24.287,165.1-68.386
		c44.1-44.1,68.386-102.733,68.386-165.1S442.685,112.487,398.585,68.387z M110.338,210.61c0-67.944,55.203-123.221,123.056-123.221
		c67.968,0,123.264,55.269,123.264,123.203c0,4.441-0.19,8.625-0.574,12.641c-0.801-0.246-1.615-0.458-2.441-0.636
		c-0.727-23.306-6.106-43.949-16.032-61.418c-1.677-2.95-4.536-5.037-7.845-5.727c-3.28-0.686-6.7,0.077-9.382,2.087h0
		c-25.271,18.933-55.366,28.94-87.033,28.94c-31.626,0-61.693-9.983-86.951-28.871c-2.687-2.008-6.11-2.768-9.396-2.082
		c-3.256,0.68-6.063,2.722-7.701,5.602c-9.968,17.517-15.36,38.231-16.068,61.63c-0.803,0.194-1.593,0.422-2.37,0.682
		C110.4,219.163,110.338,214.808,110.338,210.61z M233.485,59.862c-17.394,0-30.391-7.406-30.391-14.028
		s12.997-14.028,30.391-14.028c17.395,0,30.392,7.406,30.392,14.028S250.88,59.862,233.485,59.862z M348.917,268.853
		c2.693-11.124,4.31-22.795,4.712-34.84c3.226,1.161,6.058,3.215,8.186,6.006c2.913,3.822,4.163,8.55,3.519,13.312
		c-0.643,4.763-3.102,8.989-6.924,11.901C355.616,267.361,352.337,268.59,348.917,268.853z M105.794,240.02
		c1.967-2.582,4.543-4.523,7.47-5.721c0.416,11.911,2.022,23.456,4.68,34.465c-7.929-0.964-14.551-7.153-15.669-15.432
		C101.632,248.57,102.882,243.842,105.794,240.02z M124.147,228.094c0-23.665,4.951-44.365,14.716-61.525
		c0.03-0.054,0.124-0.218,0.388-0.272c0.044-0.01,0.095-0.017,0.15-0.017c0.123,0,0.268,0.032,0.412,0.14
		c27.174,20.32,59.519,31.062,93.539,31.062c34.064,0,66.44-10.768,93.629-31.138h0c0.061-0.045,0.246-0.186,0.542-0.121
		c0.156,0.032,0.374,0.127,0.525,0.393c9.747,17.154,14.689,37.839,14.689,61.479c0,74.096-49.031,134.377-109.299,134.377
		C173.175,362.471,124.147,302.19,124.147,228.094z M237.489,407.423c30.163-1.431,58.481-18.777,77.249-47.269
		c20.742,13.152,38.216,31.261,50.577,52.605c-36.923,27.272-81.202,42.346-127.826,43.164V407.423z M237.489,396.407V373.38
		c22.124-0.89,42.753-9.028,60.308-22.516c2.514,1.176,4.99,2.426,7.431,3.736C288.521,379.671,263.75,394.973,237.489,396.407z
		 M226.489,373.222v22.97c-25.186-2.363-48.763-17.457-64.854-41.622c2.436-1.308,4.907-2.557,7.416-3.731
		C185.844,363.751,205.45,371.767,226.489,373.222z M152.128,360.127c18.165,27.593,45.281,44.74,74.361,47.11v48.613
		c-45.534-1.397-88.717-16.41-124.853-43.107C113.971,391.387,131.416,373.275,152.128,360.127z M390.807,390.807
		c-5.357,5.357-10.942,10.403-16.728,15.138c-15.879-26.84-39.348-48.795-67.135-62.853c15.46-14.465,27.941-33.368,36.11-55.121
		c1.849-2.62,3.621-5.325,5.285-8.083c6.03-0.161,11.846-2.178,16.738-5.906c6.159-4.693,10.122-11.504,11.159-19.178
		c1.036-7.674-0.978-15.292-5.671-21.451c-1.222-1.604-2.591-3.055-4.078-4.348c0.785-5.811,1.173-11.865,1.173-18.413
		c0-67.485-50.095-123.486-115.066-132.825c0.865-0.972,1.396-2.249,1.396-3.652c0-2.495-1.663-4.599-3.94-5.272
		c14.738-3.793,24.828-12.556,24.828-23.009c0-14.034-18.181-25.028-41.392-25.028c-23.21,0-41.391,10.994-41.391,25.028
		c0,10.454,10.091,19.217,24.831,23.01c-2.275,0.674-3.936,2.778-3.936,5.271c0,1.394,0.523,2.663,1.378,3.633
		c-64.939,9.28-115.028,65.32-115.028,132.863c0,6.056,0.123,12.443,1.284,18.845c-1.293,1.178-2.494,2.477-3.577,3.898
		c-4.693,6.159-6.708,13.777-5.671,21.451c1.883,13.941,13.439,24.24,26.981,25.054c1.777,2.943,3.682,5.841,5.684,8.654
		c8.166,21.512,20.552,40.214,35.87,54.554c-27.752,14.048-51.187,36.005-67.038,62.862c-5.779-4.729-11.356-9.77-16.707-15.121
		C34.143,348.784,11,292.913,11,233.486s23.143-115.299,65.165-157.32C118.187,34.143,174.058,11,233.485,11
		c59.428,0,115.299,23.143,157.321,65.165c42.022,42.021,65.165,97.893,65.165,157.32S432.829,348.784,390.807,390.807z"/>
</g>
<g>
</g>
<g>
</g>
<g>
</g>
<g>
</g>
<g>
</g>
<g>
</g>
<g>
</g>
<g>
</g>
<g>
</g>
<g>
</g>
<g>
</g>
<g>
</g>
<g>
</g>
<g>
</g>
<g>
</g>
</svg>
