<?xml version="1.0" encoding="iso-8859-1"?>
<!-- Generator: Adobe Illustrator 18.0.0, SVG Export Plug-In . SVG Version: 6.00 Build 0)  -->
<!DOCTYPE svg PUBLIC "-//W3C//DTD SVG 1.1//EN" "http://www.w3.org/Graphics/SVG/1.1/DTD/svg11.dtd">
<svg version="1.1" id="Capa_1" xmlns="http://www.w3.org/2000/svg" xmlns:xlink="http://www.w3.org/1999/xlink" x="0px" y="0px"
	 viewBox="0 0 466.972 466.972" style="enable-background:new 0 0 466.972 466.972;" xml:space="preserve">
<g>
	<path d="M398.585,68.387C354.486,24.287,295.852,0,233.486,0s-121,24.287-165.1,68.387C24.288,112.486,0,171.119,0,233.485
		s24.287,121,68.386,165.1c44.1,44.1,102.733,68.387,165.1,68.387s121-24.287,165.1-68.387c44.099-44.1,68.386-102.733,68.386-165.1
		S442.684,112.486,398.585,68.387z M142.195,250.489h-16.12c-1.002-7.304-1.532-14.804-1.532-22.455l-0.308-28.545h40.254v26.317
		C152.785,228.573,143.778,238.377,142.195,250.489z M169.819,162.19c5.164,1.259,10.068,3.071,14.67,5.35v7.816
		c0,7.241-5.906,13.133-13.165,13.133h-47.207l-0.238-22.016c9.159-4.174,18.95-6.295,29.151-6.295
		C158.726,160.179,164.373,160.854,169.819,162.19z M171.225,236.016c10.083,0,18.286,8.203,18.286,18.286
		s-8.203,18.286-18.286,18.286s-18.286-8.203-18.286-18.286S161.142,236.016,171.225,236.016z M175.489,283.274
		c11.75-1.722,21.255-10.445,24.127-21.785h16.921c-8.225,16.922-23.023,30.069-41.049,36.139V283.274z M220.766,250.489h-20.511
		c-1.692-12.953-11.875-23.271-24.766-25.16v-26.206c11.345-1.978,20-11.879,20-23.767v-1.039
		c17.305,12.997,28.108,33.62,28.108,56.428C223.597,237.599,222.597,244.219,220.766,250.489z M171.279,151.241
		c-5.939-1.363-12.07-2.062-18.249-2.062c-10.131,0-19.915,1.814-29.191,5.387V125.05c0-14.094,12.732-25.561,28.382-25.561h165.712
		c14.664,0,24.906,10.275,24.906,24.988v93.034c-6.029-1.125-11.599-4.115-16.33-8.81c-5.938-5.904-8.95-13.267-8.95-21.883
		c0-23.176-18.336-41.33-41.743-41.33h-82.054C185.557,145.489,177.709,147.516,171.279,151.241z M113.656,234.16
		c0.409,11.977,2.02,23.584,4.696,34.649c-3.279-0.324-6.418-1.53-9.106-3.577c-3.822-2.912-6.281-7.139-6.925-11.901
		c-0.643-4.762,0.607-9.489,3.52-13.312C107.885,237.336,110.585,235.344,113.656,234.16z M142.834,261.489
		c2.668,10.533,11.058,18.803,21.655,21.308v17.572c-3.732,0.612-7.557,0.945-11.459,0.945c-3.781,0-7.556-0.312-11.268-0.905
		c-6.171-11.84-10.875-24.943-13.794-38.919H142.834z M153.03,312.313c44.977,0,81.567-36.591,81.567-81.567
		c0-32.152-18.571-60.555-46.706-73.777c1.918-0.305,3.884-0.479,5.87-0.479h82.054c17.239,0,30.743,13.322,30.743,30.33
		c0,11.487,4.217,21.752,12.199,29.688c6.832,6.777,15.339,10.997,24.374,12.173c-0.257,73.828-49.188,133.791-109.298,133.791
		c-34.391,0-65.117-19.639-85.165-50.278C150.12,312.27,151.575,312.313,153.03,312.313z M198.15,397.545
		c-1.079-1.946-3.226-3.056-5.437-2.798l-21.863,2.504l2.259-43.71c7.834,5.56,16.228,10.086,25.059,13.406l29.536,66.299v17.862
		l-47.877-25.112l17.813-22.358C199.028,401.897,199.229,399.492,198.15,397.545z M233.202,418.554l-21.151-47.478
		c7.067,1.569,14.346,2.395,21.783,2.395c6.951,0,13.763-0.725,20.394-2.099L233.202,418.554z M238.705,433.228L268,367.489
		c8.873-3.182,17.322-7.565,25.215-13.001l2.207,42.761l-21.857-2.503c-2.213-0.256-4.357,0.852-5.437,2.798
		s-0.878,4.352,0.509,6.093l18.756,23.548l-30.103,27.522c-6.145,0.649-12.342,1.058-18.584,1.201V433.228z M298.606,431.836
		c2.135-1.952,2.394-5.224,0.591-7.486l-13.67-17.162l15.097,1.729c1.607,0.188,3.213-0.348,4.392-1.455s1.811-2.678,1.727-4.293
		l-2.539-49.12c25.372,13.368,46.72,33.843,61.118,58.707c-26.367,19.476-56.484,32.737-88.529,39.025L298.606,431.836z
		 M161.256,407.463c1.179,1.107,2.787,1.645,4.392,1.455l15.1-1.729l-13.671,17.159c-1.022,1.282-1.418,2.955-1.08,4.56
		c0.338,1.605,1.374,2.976,2.827,3.738l42.379,22.228c-39.885-3.941-77.502-18.44-109.57-42.133
		c14.258-24.684,35.35-45.031,60.421-58.393l-2.524,48.821C159.446,404.785,160.078,406.355,161.256,407.463z M390.807,390.807
		c-5.355,5.355-10.938,10.4-16.722,15.133c-15.827-26.75-39.204-48.652-66.884-62.72c17.414-16.245,31.053-38.118,39.038-63.347
		c0.458,0.021,0.916,0.046,1.372,0.046c6.306,0,12.409-2.05,17.511-5.938c6.159-4.693,10.122-11.504,11.158-19.178
		c1.037-7.674-0.978-15.292-5.671-21.451c-4.196-5.506-10.086-9.25-16.771-10.724v-98.151c0-20.854-15.101-35.988-35.906-35.988
		H152.22c-21.715,0-39.382,16.401-39.382,36.561v37.751l0.647,59.907c-6.53,1.529-12.277,5.241-16.394,10.645
		c-4.693,6.159-6.708,13.777-5.671,21.451c1.036,7.674,4.999,14.484,11.158,19.178c5.102,3.888,11.204,5.938,17.511,5.938
		c0.448,0,0.897-0.025,1.347-0.046c7.938,25.082,21.463,46.849,38.731,63.064c-27.868,14.044-51.4,36.054-67.298,62.988
		c-5.777-4.729-11.354-9.769-16.704-15.119C34.143,348.785,11,292.913,11,233.485s23.143-115.299,65.164-157.32
		C118.187,34.143,174.058,11,233.486,11s115.299,23.143,157.321,65.165c42.021,42.021,65.164,97.893,65.164,157.32
		S432.829,348.785,390.807,390.807z M354.02,234.151c3.081,1.182,5.79,3.178,7.84,5.869c2.912,3.822,4.162,8.55,3.52,13.312
		c-0.644,4.763-3.103,8.989-6.925,11.901c-2.694,2.054-5.843,3.26-9.132,3.58C352,257.743,353.612,246.132,354.02,234.151z"/>
	<circle cx="171.225" cy="254.302" r="10.831"/>
	<path d="M214.88,328.217c0.457,0,0.921-0.057,1.384-0.177c11.268-2.919,23.181-2.92,34.444,0c2.939,0.766,5.942-1.004,6.704-3.944
		s-1.004-5.942-3.944-6.704c-13.072-3.387-26.89-3.389-39.964,0c-2.94,0.762-4.706,3.763-3.944,6.704
		C210.201,326.573,212.434,328.217,214.88,328.217z"/>
	<path d="M284.972,255.418c0.559,5.457,5.169,9.715,10.774,9.715c5.982,0,10.831-4.849,10.831-10.831
		c0-2.548-0.886-4.886-2.359-6.736l3.452-1.638c2.744-1.302,3.914-4.582,2.611-7.326c-1.302-2.744-4.582-3.913-7.326-2.611
		l-19.175,9.098c-2.744,1.302-3.914,4.582-2.611,7.326C281.929,254.016,283.365,255.067,284.972,255.418z"/>
</g>
<g>
</g>
<g>
</g>
<g>
</g>
<g>
</g>
<g>
</g>
<g>
</g>
<g>
</g>
<g>
</g>
<g>
</g>
<g>
</g>
<g>
</g>
<g>
</g>
<g>
</g>
<g>
</g>
<g>
</g>
</svg>
