<?xml version="1.0" encoding="iso-8859-1"?>
<!-- Generator: Adobe Illustrator 18.0.0, SVG Export Plug-In . SVG Version: 6.00 Build 0)  -->
<!DOCTYPE svg PUBLIC "-//W3C//DTD SVG 1.1//EN" "http://www.w3.org/Graphics/SVG/1.1/DTD/svg11.dtd">
<svg version="1.1" id="Capa_1" xmlns="http://www.w3.org/2000/svg" xmlns:xlink="http://www.w3.org/1999/xlink" x="0px" y="0px"
	 viewBox="0 0 466.971 466.971" style="enable-background:new 0 0 466.971 466.971;" xml:space="preserve">
<g>
	<path d="M233.481,321.39c6.746,0,13.132-2.564,17.981-7.219c2.191-2.104,2.263-5.585,0.159-7.776
		c-2.104-2.19-5.585-2.263-7.776-0.159c-2.791,2.679-6.472,4.155-10.364,4.155c-3.887,0-7.565-1.476-10.356-4.155
		c-2.191-2.104-5.673-2.033-7.776,0.159c-2.104,2.191-2.032,5.673,0.159,7.776C220.357,318.826,226.741,321.39,233.481,321.39z"/>
	<g>
		<circle cx="171.225" cy="248.233" r="10.831"/>
		<circle cx="295.746" cy="248.233" r="10.831"/>
	</g>
	<path d="M398.585,68.386C354.485,24.287,295.852,0,233.485,0s-121,24.287-165.1,68.386C24.287,112.486,0,171.119,0,233.485
		s24.287,121,68.386,165.099c44.1,44.1,102.733,68.386,165.1,68.386s121-24.287,165.1-68.386
		c44.099-44.1,68.386-102.733,68.386-165.099S442.684,112.486,398.585,68.386z M349.01,268.807
		c2.135-8.868,3.553-17.97,4.254-27.233c2.871-0.206,6.1-0.488,8.712-0.764c2.451,3.596,3.548,8.01,2.94,12.522
		C363.789,261.714,357.117,267.948,349.01,268.807z M355.128,230.383c-2.423,0.236-4.845,0.403-7.24,0.484
		c-27.928,0.992-55.439-8.119-77.397-25.653c-22.08-17.631-37.056-42.662-42.202-70.51V87.499c1.707-0.071,3.418-0.111,5.134-0.111
		c67.954,0,123.238,55.272,123.238,123.212C356.66,217.468,356.145,224.124,355.128,230.383z M217.288,134.079
		c-17.782,35.561-54.696,56.837-94.434,54.268c-3.492-0.227-6.978-0.659-10.422-1.256c5.204-26.877,19.346-51.405,40.196-69.523
		c18.307-15.909,40.823-25.971,64.659-29.116V134.079z M110.366,210.617c0-4.701,0.166-8.828,0.506-12.638
		c1.653,0.282,3.313,0.525,4.981,0.73c-1.444,7.623-2.308,15.633-2.568,23.942c-0.813,0.183-1.613,0.402-2.401,0.651
		C110.426,219.053,110.366,214.756,110.366,210.617z M105.379,240.019c2.068-2.715,4.808-4.725,7.924-5.902
		c0.395,11.855,1.955,23.458,4.667,34.702c-3.308-0.312-6.476-1.522-9.186-3.586c-3.822-2.913-6.281-7.139-6.925-11.902
		C101.217,248.569,102.467,243.841,105.379,240.019z M124.192,228.093c0-10.034,0.912-19.621,2.7-28.576
		c38.054,0.836,73.243-17.895,93.825-49.332c7.469,25,22.384,47.234,42.908,63.624c22.421,17.904,50.119,27.769,78.578,28.115
		c-1.189,14.346-4.229,28.255-9.07,41.423c-17.68,48.065-56.795,79.124-99.65,79.124c-42.655,0-81.694-30.864-99.458-78.63
		C127.501,266.292,124.192,247.535,124.192,228.093z M238.488,373.334c21.436-1.076,41.825-9.041,59.351-22.443
		c28.157,13.179,51.882,34.954,67.467,61.873c-36.658,27.073-80.564,42.132-126.818,43.146V373.334z M227.488,373.268v82.619
		c-45.908-1.207-89.465-16.256-125.87-43.156c15.573-26.956,39.295-48.747,67.449-61.909
		C186.345,364.057,206.405,371.995,227.488,373.268z M390.807,390.806c-5.359,5.359-10.947,10.407-16.735,15.144
		c-15.861-26.814-39.301-48.753-67.057-62.815c15.345-14.302,27.901-33.118,36.174-55.294c1.816-2.581,3.557-5.24,5.192-7.949
		c13.858-0.579,25.534-10.947,27.438-25.093c1.284-9.546-2.361-19.158-9.432-25.508c0.829-5.995,1.272-12.256,1.272-18.69
		c0-74.005-60.219-134.212-134.238-134.212c-32.355,0-63.61,11.676-88.009,32.876c-24.154,20.99-40.046,49.886-44.747,81.365
		c-0.887,5.932-1.3,12.283-1.3,19.988c0,5.916,0.124,12.158,1.237,18.475c-1.447,1.271-2.78,2.693-3.974,4.26
		c-4.693,6.159-6.708,13.777-5.671,21.451c1.036,7.674,4.999,14.485,11.158,19.178c4.771,3.636,10.42,5.64,16.29,5.888
		c1.746,2.892,3.617,5.737,5.579,8.501c8.262,21.904,20.723,40.507,35.92,54.689c-27.76,14.048-51.2,36.004-67.052,62.855
		c-5.773-4.726-11.345-9.762-16.691-15.108C34.143,348.784,11,292.913,11,233.485c0-59.428,23.143-115.299,65.164-157.321
		C118.187,34.143,174.058,11,233.485,11s115.299,23.143,157.321,65.165c42.021,42.021,65.164,97.893,65.164,157.321
		C455.971,292.913,432.828,348.784,390.807,390.806z"/>
</g>
<g>
</g>
<g>
</g>
<g>
</g>
<g>
</g>
<g>
</g>
<g>
</g>
<g>
</g>
<g>
</g>
<g>
</g>
<g>
</g>
<g>
</g>
<g>
</g>
<g>
</g>
<g>
</g>
<g>
</g>
</svg>
