<?xml version="1.0" encoding="iso-8859-1"?>
<!-- Generator: Adobe Illustrator 18.0.0, SVG Export Plug-In . SVG Version: 6.00 Build 0)  -->
<!DOCTYPE svg PUBLIC "-//W3C//DTD SVG 1.1//EN" "http://www.w3.org/Graphics/SVG/1.1/DTD/svg11.dtd">
<svg version="1.1" id="Capa_1" xmlns="http://www.w3.org/2000/svg" xmlns:xlink="http://www.w3.org/1999/xlink" x="0px" y="0px"
	 viewBox="0 0 466.972 466.972" style="enable-background:new 0 0 466.972 466.972;" xml:space="preserve">
<g>
	<g>
		<circle cx="171.225" cy="243.032" r="10.831"/>
		<circle cx="295.746" cy="243.032" r="10.831"/>
	</g>
	<path d="M233.482,322.257c9.126,0,17.69-4.871,22.351-12.711c1.553-2.611,0.694-5.986-1.917-7.538
		c-2.612-1.554-5.985-0.694-7.538,1.917c-2.729,4.591-7.55,7.332-12.896,7.332c-5.34,0-10.158-2.741-12.888-7.332
		c-1.552-2.612-4.928-3.467-7.538-1.917c-2.611,1.553-3.47,4.928-1.917,7.538C215.801,317.387,224.362,322.257,233.482,322.257z"/>
	<path d="M398.585,68.387C354.486,24.287,295.852,0,233.486,0s-121,24.287-165.1,68.387C24.288,112.486,0,171.119,0,233.485
		s24.287,121,68.386,165.1c44.1,44.1,102.733,68.387,165.1,68.387s121-24.287,165.1-68.387c44.099-44.1,68.386-102.733,68.386-165.1
		S442.684,112.486,398.585,68.387z M101.636,412.744c12.336-21.357,29.78-39.469,50.491-52.617
		c19.605,29.781,49.638,47.403,81.311,47.403c31.667,0,61.695-17.612,81.3-47.377c20.743,13.153,38.218,31.261,50.578,52.605
		c-37.979,28.052-83.738,43.213-131.83,43.213C185.386,455.972,139.619,440.806,101.636,412.744z M113.265,234.305
		c0.416,11.911,2.023,23.456,4.682,34.465c-3.149-0.376-6.158-1.565-8.747-3.537c-3.822-2.912-6.281-7.139-6.925-11.901
		C101.158,245.062,105.887,237.344,113.265,234.305z M119.44,184.003c-3.702,11.891-5.778,24.909-6.202,38.755
		c-0.804,0.194-1.595,0.423-2.373,0.683c-0.464-4.279-0.526-8.634-0.526-12.832c0-67.944,55.203-123.221,123.057-123.221
		c67.968,0,123.264,55.269,123.264,123.203c0,4.443-0.189,8.626-0.574,12.641c-0.8-0.246-1.614-0.458-2.44-0.635
		c-0.436-13.814-2.519-26.8-6.222-38.666c-2.634-8.44-8.876-15.138-17.126-18.376c-8.183-3.212-17.229-2.561-24.819,1.787
		c-21.85,12.521-46.79,19.138-72.126,19.138c-25.298,0-50.206-6.597-72.031-19.078c-7.583-4.336-16.616-4.98-24.788-1.765
		C128.294,168.878,122.065,175.571,119.44,184.003z M353.629,234.013c3.226,1.161,6.058,3.215,8.185,6.006
		c2.913,3.822,4.163,8.55,3.52,13.312c-0.644,4.763-3.103,8.989-6.925,11.901c-2.793,2.129-6.072,3.359-9.491,3.621
		C351.61,257.729,353.228,246.058,353.629,234.013z M129.942,187.272c1.629-5.23,5.499-9.386,10.616-11.398
		c2.128-0.837,4.35-1.252,6.557-1.252c3.033,0,6.04,0.783,8.744,2.329c23.485,13.431,50.282,20.529,77.492,20.529
		c27.252,0,54.084-7.121,77.595-20.593c4.681-2.682,10.271-3.078,15.332-1.093c5.129,2.014,9.009,6.174,10.645,11.413
		c3.858,12.367,5.814,26.123,5.814,40.886c0,74.096-49.031,134.377-109.299,134.377c-60.263,0-109.29-60.281-109.29-134.377
		C124.148,213.355,126.097,199.622,129.942,187.272z M233.438,373.471c23.656,0,45.736-8.299,64.359-22.607
		c2.514,1.176,4.99,2.426,7.431,3.736c-17.563,26.357-44.039,41.93-71.79,41.93c-27.758,0-54.24-15.584-71.803-41.96
		c2.437-1.309,4.907-2.557,7.417-3.731C187.68,365.162,209.771,373.471,233.438,373.471z M390.807,390.807
		c-5.357,5.357-10.942,10.403-16.728,15.138c-15.879-26.84-39.348-48.795-67.135-62.853c17.351-16.234,30.94-38.063,38.904-63.231
		c0.573,0.034,1.146,0.058,1.718,0.058c6.306,0,12.409-2.05,17.511-5.938c6.159-4.693,10.122-11.504,11.158-19.178
		c1.037-7.674-0.977-15.292-5.67-21.451c-1.222-1.604-2.591-3.055-4.078-4.348c0.785-5.809,1.173-11.862,1.173-18.413
		c0-74-60.23-134.203-134.264-134.203c-73.919,0-134.057,60.211-134.057,134.221c0,6.055,0.123,12.442,1.284,18.845
		c-1.293,1.179-2.494,2.477-3.577,3.899c-4.693,6.159-6.708,13.777-5.671,21.451c1.036,7.674,4.999,14.484,11.158,19.178
		c5.102,3.888,11.204,5.938,17.511,5.938c0.333,0,0.667-0.022,1.001-0.034c7.959,25.144,21.534,46.955,38.865,63.181
		c-27.751,14.048-51.187,36.006-67.038,62.862c-5.779-4.73-11.356-9.771-16.707-15.121C34.143,348.785,11,292.913,11,233.485
		s23.143-115.299,65.164-157.32C118.187,34.143,174.058,11,233.486,11s115.299,23.143,157.321,65.165
		c42.021,42.021,65.164,97.893,65.164,157.32S432.829,348.785,390.807,390.807z"/>
</g>
<g>
</g>
<g>
</g>
<g>
</g>
<g>
</g>
<g>
</g>
<g>
</g>
<g>
</g>
<g>
</g>
<g>
</g>
<g>
</g>
<g>
</g>
<g>
</g>
<g>
</g>
<g>
</g>
<g>
</g>
</svg>
