<?xml version="1.0" encoding="iso-8859-1"?>
<!-- Generator: Adobe Illustrator 18.0.0, SVG Export Plug-In . SVG Version: 6.00 Build 0)  -->
<!DOCTYPE svg PUBLIC "-//W3C//DTD SVG 1.1//EN" "http://www.w3.org/Graphics/SVG/1.1/DTD/svg11.dtd">
<svg version="1.1" id="Capa_1" xmlns="http://www.w3.org/2000/svg" xmlns:xlink="http://www.w3.org/1999/xlink" x="0px" y="0px"
	 viewBox="0 0 466.972 466.972" style="enable-background:new 0 0 466.972 466.972;" xml:space="preserve">
<g>
	<g>
		<circle cx="171.225" cy="248.234" r="10.831"/>
		<circle cx="295.746" cy="248.234" r="10.831"/>
	</g>
	<path d="M220.486,315.489h26c3.037,0,5.5-2.463,5.5-5.5s-2.463-5.5-5.5-5.5h-26c-3.037,0-5.5,2.463-5.5,5.5
		S217.449,315.489,220.486,315.489z"/>
	<path d="M398.585,68.387C354.486,24.287,295.852,0,233.486,0s-121,24.287-165.1,68.387C24.288,112.486,0,171.119,0,233.485
		s24.287,121,68.386,165.1c44.1,44.1,102.733,68.387,165.1,68.387s121-24.287,165.1-68.387c44.099-44.1,68.386-102.733,68.386-165.1
		S442.684,112.486,398.585,68.387z M101.619,412.732c15.558-26.931,39.249-48.705,67.369-61.869c2.493,1.922,5.032,3.73,7.618,5.413
		c-0.033,0.789-0.062,1.577-0.062,2.359c0,31.35,25.509,56.854,56.862,56.854s56.861-25.504,56.861-56.854
		c0-0.759-0.028-1.51-0.058-2.26c2.612-1.694,5.178-3.515,7.697-5.452c28.128,13.182,51.829,34.944,67.402,61.842
		c-37.977,28.048-83.733,43.207-131.822,43.207C185.379,455.972,139.605,440.801,101.619,412.732z M103.421,244.318
		c1.968,7.635,4.623,15.083,7.913,22.268c-4.757-2.696-8.234-7.504-9.01-13.257C101.903,250.216,102.313,247.126,103.421,244.318z
		 M363.49,242.549c1.701,3.234,2.4,6.973,1.888,10.782c-0.878,6.518-5.105,11.733-10.755,14.137
		C358.41,259.467,361.373,251.12,363.49,242.549z M347.964,255.184c-3.196-23.276-13.969-43.312-31.09-58.201
		c-1.495-12.426-4.828-35.376-4.828-35.376c-0.439-3.005-3.223-5.078-6.239-4.646c-3.005,0.44-5.085,3.233-4.646,6.239l3.63,24.803
		c-3.433-2.173-7.046-4.18-10.837-6.01l-14.97-57.38c-0.687-2.629-3.197-4.36-5.894-4.082c-2.703,0.283-4.795,2.497-4.923,5.212
		l-2.198,46.722c-10.347-2.256-21.274-3.397-32.575-3.397c-23.74,0-45.861,5.174-64.162,14.8l3.542-29.807
		c0.358-3.016-1.797-5.752-4.813-6.11c-2.999-0.344-5.751,1.796-6.11,4.813l-4.567,38.438c-1.834,1.299-3.634,2.631-5.357,4.035
		c-18.782,15.313-30.159,35.931-33.382,60.214c-5.509-14.148-8.368-29.269-8.368-44.606c0-62.648,46.975-115.185,109.268-122.202
		c0.268-0.03,0.536-0.045,0.807-0.045c3.187,0,6.557,2.046,8.422,5.194c0.99,1.672,2.8,2.697,4.743,2.697s3.742-1.025,4.732-2.697
		c2.05-3.461,5.697-5.532,9.085-5.149c62.227,7.01,109.151,59.448,109.151,121.976C356.385,225.957,353.507,241.061,347.964,255.184
		z M128.675,266.224c2.158-59.471,53.66-86.157,104.72-86.157c12.77,0,24.987,1.559,36.315,4.632c1.611,0.436,3.33,0.12,4.679-0.862
		c1.348-0.982,2.178-2.522,2.256-4.188l0.814-17.309l6.502,24.926c0.419,1.604,1.538,2.933,3.047,3.618
		c32.143,14.609,50.149,41.842,50.919,76.839c-6.729,26.766-20.448,50.785-38.77,67.757c-19.062,17.657-41.771,26.99-65.674,26.99
		c-24.002,0-46.788-9.405-65.895-27.199C149.031,317.987,135.235,293.487,128.675,266.224z M233.484,373.471
		c15.895,0,31.283-3.661,45.591-10.746c-2.077,23.374-21.76,41.764-45.669,41.764c-23.936,0-43.637-18.432-45.676-41.844
		C202.081,369.782,217.525,373.471,233.484,373.471z M390.807,390.807c-5.359,5.359-10.947,10.407-16.735,15.144
		c-15.855-26.803-39.283-48.736-67.026-62.799c17.467-16.33,31.031-38.481,38.883-63.287c0.568,0.033,1.135,0.055,1.698,0.055
		c14.382,0,26.692-10.562,28.653-25.121c1.325-9.864-2.615-19.771-10.141-26.098c0.817-5.969,1.246-12.007,1.246-18.082
		c0-68.132-51.124-125.269-118.919-132.907c-5.423-0.608-10.848,1.225-15.088,4.864c-4.281-3.604-9.8-5.467-15.165-4.864
		c-67.861,7.646-119.036,64.881-119.036,133.134c0,6.305,0.46,12.573,1.334,18.766c-6.919,6.365-10.369,15.721-9.087,25.19
		c1.939,14.387,14.38,25.117,28.749,25.116c0.295,0,0.595-0.022,0.892-0.036c7.839,24.763,21.351,46.88,38.786,63.206
		c-27.735,14.049-51.155,35.994-66.997,62.828c-5.773-4.726-11.345-9.762-16.691-15.108C34.143,348.785,11,292.913,11,233.485
		s23.143-115.299,65.164-157.32C118.187,34.143,174.058,11,233.486,11s115.299,23.143,157.321,65.165
		c42.021,42.021,65.164,97.893,65.164,157.32S432.829,348.785,390.807,390.807z"/>
</g>
<g>
</g>
<g>
</g>
<g>
</g>
<g>
</g>
<g>
</g>
<g>
</g>
<g>
</g>
<g>
</g>
<g>
</g>
<g>
</g>
<g>
</g>
<g>
</g>
<g>
</g>
<g>
</g>
<g>
</g>
</svg>
