<?xml version="1.0" encoding="iso-8859-1"?>
<!-- Generator: Adobe Illustrator 18.0.0, SVG Export Plug-In . SVG Version: 6.00 Build 0)  -->
<!DOCTYPE svg PUBLIC "-//W3C//DTD SVG 1.1//EN" "http://www.w3.org/Graphics/SVG/1.1/DTD/svg11.dtd">
<svg version="1.1" id="Capa_1" xmlns="http://www.w3.org/2000/svg" xmlns:xlink="http://www.w3.org/1999/xlink" x="0px" y="0px"
	 viewBox="0 0 466.972 466.972" style="enable-background:new 0 0 466.972 466.972;" xml:space="preserve">
<g>
	<path d="M398.585,68.387C354.486,24.287,295.852,0,233.486,0s-121,24.287-165.1,68.387C24.288,112.486,0,171.119,0,233.485
		s24.287,121,68.386,165.1c44.1,44.1,102.733,68.387,165.1,68.387s121-24.287,165.1-68.387c44.099-44.1,68.386-102.733,68.386-165.1
		S442.684,112.486,398.585,68.387z M180.584,76.681c-3.429-6.845-6.687-12.736-9.746-17.627
		c41.693,2.905,70.033,22.207,86.88,38.604c17.394,16.929,28.514,36.359,34.575,52.859c-10.926-7.204-23.814-10.839-38.517-10.839
		c-54.178,0-98.255,50.356-98.255,112.254c0,27.048,8.525,52.971,23.756,73.206c-31.165-6.533-58.606-24.907-76.741-51.816
		c-1.03-1.529-2.746-2.427-4.56-2.427c-0.235,0-0.474,0.015-0.711,0.046c-2.066,0.27-3.803,1.683-4.486,3.651
		c-1.16,3.344-2.655,7.679-4.364,12.691c-16.104-52.793-6.675-94.706-6.049-97.345c0.072-0.261,0.127-0.528,0.161-0.803
		c6.36-50.998,44.288-93.048,94.378-104.635c1.643-0.38,3.021-1.492,3.738-3.018C181.361,79.958,181.339,78.188,180.584,76.681z
		 M352.632,248.272c3.164-2.106,6.455-4.625,9.67-7.642c2.565,3.681,3.682,8.207,3.077,12.7c-0.643,4.762-3.102,8.987-6.924,11.9
		c-2.782,2.121-6.045,3.346-9.452,3.616C350.603,262.185,351.825,255.316,352.632,248.272z M366.84,216.451
		c-7.407,14.906-19.981,23.135-28.293,27.188c0.691-5.364,1.394-12.521,1.57-20.379c0.508-22.548-3.483-39.253-11.862-49.652
		c-5.418-6.725-12.521-10.672-21.146-11.787c-3.211-14.697-9.812-29.918-18.924-44.093c4.474-3.669,22.461-17.128,40.868-12.953
		c13.702,3.109,25.036,15.485,33.688,36.782C375.073,171.91,376.452,197.108,366.84,216.451z M192.694,338.237
		c0.165,0.015,0.328,0.021,0.491,0.021c2.123,0,4.076-1.228,4.984-3.179c0.978-2.101,0.534-4.589-1.109-6.223
		c-18.257-18.144-29.186-44.032-30.418-71.678c1.389,0.647,2.931,1.019,4.564,1.019c5.982,0,10.831-4.849,10.831-10.831
		s-4.849-10.831-10.831-10.831c-1.324,0-2.587,0.249-3.76,0.684c6.159-48.883,42.524-86.541,86.331-86.541
		c18.413,0,33.403,6.683,44.553,19.862c1.049,1.24,2.558,1.906,4.106,1.933l0,0.013c7.359,0.125,13.002,2.747,17.249,8.015
		c6.594,8.178,9.858,22.818,9.44,42.339c-0.329,15.347-2.866,28.239-2.892,28.365c-0.372,1.861,0.241,3.782,1.623,5.083
		c1.033,0.973,2.387,1.496,3.771,1.496c0.467,0,0.938-0.06,1.399-0.181c0.369-0.097,3.301-0.898,7.585-2.766
		c-10.17,62.078-54.734,107.632-107.127,107.632c-25.072,0-49.162-10.613-68.44-29.666
		C173.951,335.55,183.206,337.39,192.694,338.237z M238.489,378.655l39.351,28.483c1.458,1.057,3.344,1.331,5.042,0.736
		c1.7-0.596,3.001-1.985,3.482-3.721l14.393-51.86c26.878,13.298,49.509,34.492,64.55,60.47
		c-36.658,27.074-80.564,42.132-126.818,43.146V378.655z M248.518,372.336c13.943-2.103,27.186-7.092,39.281-14.484l-9.918,35.737
		L248.518,372.336z M217.529,372.188l-29.323,21.352l-9.873-36.228C190.528,364.909,203.772,369.972,217.529,372.188z
		 M179.69,404.126c0.476,1.744,1.778,3.144,3.484,3.743c0.594,0.208,1.209,0.311,1.822,0.311c1.147,0,2.284-0.359,3.237-1.054
		l39.255-28.583v77.346c-45.909-1.207-89.466-16.256-125.87-43.156c14.933-25.848,37.359-46.942,64.001-60.236L179.69,404.126z
		 M390.807,390.807c-5.359,5.359-10.947,10.407-16.735,15.144c-15.849-26.792-39.271-48.722-67.006-62.789
		c17.322-16.168,30.928-37.963,38.888-63.299c0.552,0.031,1.104,0.056,1.655,0.056c6.307,0,12.411-2.05,17.515-5.938
		c6.16-4.694,10.122-11.506,11.157-19.181c1.086-8.073-1.277-16.207-6.48-22.447c2.482-3.228,4.798-6.823,6.812-10.849
		c11.161-22.313,9.923-50.604-3.68-84.086c-10.086-24.825-24.029-39.416-41.445-43.369c-22.395-5.079-42.967,9.32-49.585,14.609
		c-4.982-6.69-10.518-13.048-16.511-18.882c-19.73-19.203-54.031-42.095-105.395-42.095c-2.125,0-4.061,1.225-4.971,3.145
		c-0.909,1.921-0.632,4.194,0.714,5.839c3.438,4.2,7.498,10.661,11.882,18.886c-51.06,14.69-89.201,58.808-95.965,111.874
		c-1.215,5.012-12.605,56.182,11.698,118.859c0.838,2.161,2.95,3.548,5.26,3.51c2.318-0.056,4.353-1.559,5.086-3.759
		c2.195-6.583,4.267-12.693,6.052-17.911c11.86,14.928,26.555,26.975,43.092,35.574c5.185,7.176,10.889,13.655,17.016,19.385
		c-27.739,14.049-51.162,35.995-67.005,62.832c-5.773-4.726-11.345-9.762-16.691-15.108C34.143,348.785,11,292.913,11,233.485
		s23.143-115.299,65.164-157.32C118.187,34.143,174.058,11,233.486,11s115.299,23.143,157.321,65.165
		c42.021,42.021,65.164,97.893,65.164,157.32S432.829,348.785,390.807,390.807z"/>
	<circle cx="295.727" cy="247.367" r="10.831"/>
	<path d="M255.314,317.837c-1.956-2.326-5.425-2.624-7.749-0.669c-2.04,1.716-6.953,3.72-14.084,3.72
		c-7.124,0-12.034-2.004-14.074-3.72c-2.325-1.955-5.794-1.657-7.749,0.669c-1.955,2.324-1.656,5.794,0.669,7.749
		c4.691,3.946,12.6,6.302,21.154,6.302c8.562,0,16.473-2.355,21.164-6.302C256.97,323.631,257.269,320.161,255.314,317.837z"/>
</g>
<g>
</g>
<g>
</g>
<g>
</g>
<g>
</g>
<g>
</g>
<g>
</g>
<g>
</g>
<g>
</g>
<g>
</g>
<g>
</g>
<g>
</g>
<g>
</g>
<g>
</g>
<g>
</g>
<g>
</g>
</svg>
