<?xml version="1.0" encoding="iso-8859-1"?>
<!-- Generator: Adobe Illustrator 18.0.0, SVG Export Plug-In . SVG Version: 6.00 Build 0)  -->
<!DOCTYPE svg PUBLIC "-//W3C//DTD SVG 1.1//EN" "http://www.w3.org/Graphics/SVG/1.1/DTD/svg11.dtd">
<svg version="1.1" id="Capa_1" xmlns="http://www.w3.org/2000/svg" xmlns:xlink="http://www.w3.org/1999/xlink" x="0px" y="0px"
	 viewBox="0 0 466.972 466.972" style="enable-background:new 0 0 466.972 466.972;" xml:space="preserve">
<g>
	<path d="M398.585,68.387C354.486,24.287,295.852,0,233.486,0s-121,24.287-165.1,68.387C24.288,112.486,0,171.119,0,233.485
		s24.287,121,68.386,165.1c44.1,44.1,102.733,68.387,165.1,68.387s121-24.287,165.1-68.387c44.099-44.1,68.386-102.733,68.386-165.1
		S442.684,112.486,398.585,68.387z M101.619,412.732c14.09-24.389,34.85-44.546,59.53-57.911
		c17.623,26.034,44.328,41.431,72.335,41.431c27.976,0,54.665-15.367,72.292-41.351c24.675,13.38,45.436,33.519,59.531,57.863
		c-37.977,28.048-83.733,43.207-131.821,43.207C185.379,455.972,139.605,440.801,101.619,412.732z M113.311,234.298
		c0.416,11.914,2.022,23.461,4.682,34.472c-3.149-0.376-6.158-1.565-8.747-3.538c-3.822-2.912-6.281-7.139-6.925-11.901
		c-0.643-4.762,0.607-9.489,3.52-13.312C107.808,237.437,110.384,235.496,113.311,234.298z M284.489,181.489h-64v-1.168
		c0-17.842,14.354-32.356,31.996-32.356c17.647,0,32.004,14.515,32.004,32.356V181.489z M220.489,192.489h64v13h-64V192.489z
		 M252.485,136.965c-23.708,0-42.996,19.449-42.996,43.356v25.168h-83.99v-41.94c0-48.411,39.385-87.796,87.796-87.796h40.435
		c48.41,0,87.795,39.385,87.795,87.796v41.94h-46.035v-25.168C295.489,156.414,276.198,136.965,252.485,136.965z M124.627,216.489
		h217.722c0.277,3.788,0.434,7.66,0.434,11.604c0,74.096-49.031,134.377-109.299,134.377c-60.263,0-109.29-60.281-109.29-134.377
		C124.194,224.147,124.35,220.275,124.627,216.489z M361.86,240.02c2.912,3.822,4.162,8.55,3.52,13.312
		c-0.644,4.763-3.103,8.989-6.925,11.901c-2.793,2.129-6.072,3.359-9.492,3.621c2.693-11.124,4.311-22.796,4.712-34.841
		C356.901,235.174,359.733,237.228,361.86,240.02z M292.051,355.038c-15.403,19.34-36.219,30.214-58.567,30.214
		c-22.346,0-43.153-10.871-58.55-30.206c17.339,11.727,37.308,18.424,58.55,18.424C254.733,373.471,274.708,366.77,292.051,355.038z
		 M390.807,390.807c-5.359,5.359-10.947,10.407-16.735,15.144c-15.868-26.824-39.326-48.773-67.103-62.839
		c17.361-16.236,30.958-38.073,38.925-63.25c0.573,0.034,1.146,0.058,1.718,0.058c6.306,0,12.409-2.05,17.511-5.938
		c6.159-4.693,10.122-11.504,11.158-19.178c1.037-7.674-0.978-15.292-5.671-21.451c-4.226-5.546-10.171-9.303-16.914-10.754
		c-0.162-5.15-0.557-10.18-1.171-15.026v-44.024c0-54.477-44.319-98.796-98.795-98.796h-40.435
		c-54.477,0-98.796,44.319-98.796,98.796v41.94h-78.01c-3.037,0-5.5,2.463-5.5,5.5s2.463,5.5,5.5,5.5h77.106
		c-0.141,2.07-0.255,4.156-0.32,6.271c-6.442,1.56-12.111,5.247-16.184,10.592c-4.693,6.159-6.708,13.777-5.671,21.451
		c1.036,7.674,4.999,14.484,11.158,19.178c5.102,3.888,11.204,5.938,17.511,5.938c0.333,0,0.667-0.022,1.001-0.034
		c7.956,25.134,21.523,46.937,38.844,63.161c-27.771,14.047-51.221,36.008-67.078,62.869c-5.773-4.726-11.345-9.762-16.691-15.108
		C34.143,348.785,11,292.913,11,233.485s23.143-115.299,65.164-157.32C118.187,34.143,174.058,11,233.486,11
		s115.299,23.143,157.321,65.165c42.021,42.021,65.164,97.893,65.164,157.32S432.829,348.785,390.807,390.807z"/>
	<g>
		<circle cx="171.226" cy="255.168" r="10.831"/>
		<circle cx="295.746" cy="255.168" r="10.831"/>
	</g>
	<path d="M233.482,316.284c8.561,0,16.472-2.355,21.163-6.302c2.325-1.955,2.624-5.425,0.669-7.749
		c-1.956-2.326-5.426-2.624-7.749-0.669c-2.04,1.716-6.953,3.72-14.083,3.72c-7.125,0-12.035-2.004-14.075-3.72
		c-2.324-1.955-5.794-1.657-7.749,0.669c-1.955,2.324-1.656,5.794,0.669,7.749C217.018,313.929,224.926,316.284,233.482,316.284z"/>
</g>
<g>
</g>
<g>
</g>
<g>
</g>
<g>
</g>
<g>
</g>
<g>
</g>
<g>
</g>
<g>
</g>
<g>
</g>
<g>
</g>
<g>
</g>
<g>
</g>
<g>
</g>
<g>
</g>
<g>
</g>
</svg>
