<?xml version="1.0" encoding="iso-8859-1"?>
<!-- Generator: Adobe Illustrator 18.0.0, SVG Export Plug-In . SVG Version: 6.00 Build 0)  -->
<!DOCTYPE svg PUBLIC "-//W3C//DTD SVG 1.1//EN" "http://www.w3.org/Graphics/SVG/1.1/DTD/svg11.dtd">
<svg version="1.1" id="Capa_1" xmlns="http://www.w3.org/2000/svg" xmlns:xlink="http://www.w3.org/1999/xlink" x="0px" y="0px"
	 viewBox="0 0 466.971 466.971" style="enable-background:new 0 0 466.971 466.971;" xml:space="preserve">
<g>
	<path d="M398.585,68.387C354.485,24.287,295.852,0,233.485,0s-121,24.287-165.099,68.387S0,171.119,0,233.486
		s24.287,121,68.386,165.1c44.1,44.099,102.733,68.386,165.099,68.386s121-24.287,165.1-68.386
		c44.1-44.1,68.386-102.733,68.386-165.1S442.685,112.487,398.585,68.387z M101.619,412.732
		c11.924-20.641,28.625-38.252,48.438-51.279c22.501,26.233,51.949,40.625,83.427,40.625c31.446,0,60.874-14.363,83.372-40.548
		c19.815,13.031,36.52,30.626,48.452,51.235c-37.977,28.048-83.733,43.207-131.822,43.207
		C185.378,455.971,139.605,440.801,101.619,412.732z M225.122,196.276l4.172,12.053l-95.488-31.353
		c5.311-12.489,12.77-23.371,22.281-32.34c19.442-18.335,46.206-28.026,77.398-28.026s57.957,9.691,77.398,28.026
		c20.866,19.678,31.896,48.538,31.896,83.461c0,2.324-0.048,4.634-0.144,6.928l-110.212-45.631c-2-0.827-4.3-0.405-5.876,1.079
		C224.972,191.959,224.414,194.23,225.122,196.276z M130.018,187.31l7.047,2.314l-10.931,14.127
		C127.085,198.044,128.383,192.559,130.018,187.31z M353.779,228.097c0-5.539-0.267-10.937-0.782-16.193
		c17.329,6.229,28.608,23.927,26.046,42.895c-1.427,10.564-6.882,19.941-15.361,26.402c-6.203,4.726-13.482,7.47-21.08,8.048
		C349.768,270.649,353.779,249.93,353.779,228.097z M351.343,199.945c-4.621-25.572-15.767-47.143-32.913-63.312
		c-21.521-20.296-50.895-31.023-84.945-31.023s-63.424,10.728-84.945,31.023c-17.144,16.167-28.289,37.735-32.912,63.303
		c-7.268,1.728-13.852,4.992-19.466,9.381c7.123-69.382,65.951-123.788,137.235-123.788c71.244,0,130.045,54.346,137.222,123.673
		C365.049,204.88,358.532,201.66,351.343,199.945z M113.974,211.889c-0.515,5.261-0.783,10.664-0.783,16.208
		c0,21.834,4.011,42.554,11.178,61.155c-7.611-0.572-14.905-3.315-21.119-8.051c-8.479-6.461-13.934-15.838-15.361-26.402
		C85.325,235.816,96.623,218.104,113.974,211.889z M124.191,228.097c0-1.318,0.021-2.624,0.052-3.925l23.914-30.906l88.248,28.976
		c1.986,0.651,4.17,0.123,5.636-1.368c1.466-1.489,1.961-3.682,1.277-5.656l-3.8-10.979l102.224,42.323
		c-7.342,65.388-53.088,115.91-108.257,115.91C173.221,362.472,124.191,302.192,124.191,228.097z M233.485,373.472
		c23.646,0,45.716-8.293,64.335-22.59c3.225,1.509,6.389,3.136,9.493,4.866c-20.213,22.835-46.212,35.33-73.829,35.33
		c-27.647,0-53.666-12.521-73.883-35.403c3.097-1.725,6.254-3.348,9.472-4.852C187.707,365.157,209.807,373.472,233.485,373.472z
		 M390.807,390.807c-5.359,5.359-10.947,10.407-16.735,15.144c-15.868-26.825-39.326-48.774-67.103-62.839
		c12.458-11.651,22.984-26.181,30.876-42.767c0.586,0.02,1.171,0.031,1.755,0.031c11.073-0.001,21.792-3.6,30.75-10.426
		c10.816-8.242,17.775-20.202,19.596-33.679c1.679-12.431-1.312-24.431-7.606-34.245c-0.791-81.33-67.295-147.496-148.941-147.496
		c-81.717,0-148.266,66.281-148.944,147.708c-6.2,9.774-9.134,21.692-7.467,34.033c1.82,13.476,8.779,25.437,19.595,33.679
		c8.959,6.827,19.675,10.426,30.75,10.426c0.596,0,1.194-0.012,1.792-0.033c7.878,16.555,18.379,31.063,30.807,42.704
		c-27.771,14.047-51.22,36.008-67.077,62.868c-5.773-4.726-11.345-9.762-16.691-15.108C34.143,348.784,11,292.913,11,233.486
		s23.143-115.299,65.165-157.32C118.187,34.143,174.058,11,233.485,11c59.428,0,115.299,23.143,157.321,65.165
		c42.022,42.021,65.165,97.893,65.165,157.32S432.829,348.784,390.807,390.807z"/>
	<g>
		<circle cx="171.225" cy="251.701" r="10.831"/>
		<circle cx="295.746" cy="251.701" r="10.831"/>
	</g>
	<path d="M233.481,323.124c9.126,0,17.69-4.871,22.351-12.711c1.552-2.611,0.694-5.986-1.917-7.538
		c-2.612-1.554-5.987-0.693-7.538,1.917c-2.729,4.591-7.55,7.332-12.896,7.332c-5.34,0-10.158-2.741-12.887-7.332
		c-1.552-2.61-4.925-3.471-7.538-1.917c-2.611,1.552-3.469,4.927-1.917,7.538C215.8,318.253,224.361,323.124,233.481,323.124z"/>
</g>
<g>
</g>
<g>
</g>
<g>
</g>
<g>
</g>
<g>
</g>
<g>
</g>
<g>
</g>
<g>
</g>
<g>
</g>
<g>
</g>
<g>
</g>
<g>
</g>
<g>
</g>
<g>
</g>
<g>
</g>
</svg>
