<?xml version="1.0" encoding="iso-8859-1"?>
<!-- Generator: Adobe Illustrator 18.0.0, SVG Export Plug-In . SVG Version: 6.00 Build 0)  -->
<!DOCTYPE svg PUBLIC "-//W3C//DTD SVG 1.1//EN" "http://www.w3.org/Graphics/SVG/1.1/DTD/svg11.dtd">
<svg version="1.1" id="Capa_1" xmlns="http://www.w3.org/2000/svg" xmlns:xlink="http://www.w3.org/1999/xlink" x="0px" y="0px"
	 viewBox="0 0 466.972 466.972" style="enable-background:new 0 0 466.972 466.972;" xml:space="preserve">
<g>
	<path d="M398.585,68.387C354.486,24.287,295.852,0,233.486,0s-121,24.287-165.1,68.387C24.288,112.486,0,171.119,0,233.485
		s24.287,121,68.386,165.1c44.1,44.1,102.733,68.387,165.1,68.387s121-24.287,165.1-68.387c44.099-44.1,68.386-102.733,68.386-165.1
		S442.684,112.486,398.585,68.387z M100.689,412.04c11.801-21.04,28.541-39.019,48.485-52.336
		c22.637,22.698,52.487,35.17,84.342,35.17c31.82,0,61.641-12.445,84.263-35.093c19.94,13.318,36.681,31.273,48.488,52.27
		c-38.165,28.504-84.287,43.92-132.781,43.92C184.985,455.972,138.857,440.551,100.689,412.04z M236.153,299.413
		c-0.876,0.127-1.685,0.187-2.544,0.187c-0.295,0-0.647-0.007-0.938-0.021c-5.679-0.282-10.571-4-12.791-9.089h27.526
		C245.43,295.166,241.245,298.674,236.153,299.413z M179.773,160.191c2.4,37.818,25.009,78.794,53.708,78.794
		c28.703,0,51.316-40.976,53.717-78.795c8.959,3.64,17.066,8.24,24.052,13.755c7.324,5.781,13.415,12.517,18.235,20.083
		c-44.32,3.918-79.379,40.521-80.799,85.46h-30.153c-0.702-22.619-9.764-43.753-25.74-59.771
		c-14.962-15.001-34.411-23.923-55.371-25.587c4.829-7.609,10.942-14.379,18.3-20.186
		C162.708,168.431,170.814,163.831,179.773,160.191z M131.711,204.859c20.18,0.369,39.059,8.357,53.293,22.628
		c14.571,14.609,22.597,34.084,22.597,54.837c0,0,0.036,3.588,0.095,4.307c-7.69,1.035-21.759,2.065-36.347-1.215
		c-23.922-5.383-39.772-20.005-47.147-43.437C124.304,228.394,126.85,215.931,131.711,204.859z M259.635,282.323
		c0-42.09,33.704-76.443,75.567-77.596c4.898,11.102,7.463,23.607,7.567,37.24c-7.315,23.256-22.983,37.84-46.609,43.325
		c-14.64,3.397-28.639,2.457-36.626,1.387C259.596,285.948,259.635,282.323,259.635,282.323z M318.065,165.311
		c-3.121-2.463-6.426-4.737-9.866-6.86c12.421-23.71,29.176-40.408,37.812-48.063c9.902,28.664,8.175,59.406-4.469,82.327
		C335.716,182.253,327.863,173.044,318.065,165.311z M298.556,153.15c-8.102-3.954-16.898-7.076-26.292-9.336
		c3.385-4.263,7.27-8.29,11.632-12.018c13.028-11.155,29.452-18.963,47.401-22.726C321.689,118.621,308.843,133.546,298.556,153.15z
		 M276.366,156.382c-1.038,32.917-20.394,71.603-42.885,71.603c-22.486,0-41.838-38.686-42.876-71.603
		c13.073-3.91,27.569-5.965,42.881-5.965C248.797,150.417,263.293,152.472,276.366,156.382z M168.391,153.162
		c-10.186-19.387-23.01-34.313-32.615-43.902c17.837,3.881,34.372,11.723,46.991,22.542c4.406,3.761,8.316,7.804,11.708,12.068
		C185.159,146.128,176.433,149.235,168.391,153.162z M120.847,110.295c8.613,7.589,25.382,24.231,37.905,48.168
		c-3.433,2.119-6.731,4.389-9.845,6.847c-9.763,7.706-17.595,16.876-23.414,27.292C114.673,172.987,109.098,143.475,120.847,110.295
		z M192.722,298.602c7.629,0,14.028-0.705,18.189-1.324c3.443,6.2,9.31,10.839,16.348,12.573
		c-2.025,6.447-8.054,11.137-15.16,11.137c-8.761,0-15.888-7.127-15.888-15.887c0-3.037-2.463-5.5-5.5-5.5s-5.5,2.463-5.5,5.5
		c0,14.825,12.062,26.887,26.888,26.887c8.712,0,16.471-4.166,21.387-10.609c4.916,6.443,12.675,10.609,21.387,10.609
		c14.825,0,26.887-12.062,26.887-26.887c0-3.037-2.463-5.5-5.5-5.5s-5.5,2.463-5.5,5.5c0,8.76-7.127,15.887-15.887,15.887
		c-7.083,0-13.094-4.661-15.137-11.075c7.118-1.643,13.049-6.341,16.536-12.589c4.283,0.64,10.635,1.33,18.129,1.33
		c7.296,0,15.668-0.654,24.248-2.646c16.779-3.896,30.367-12.025,40.317-23.941C326.349,319.45,283.844,354.4,233.486,354.4
		c-50.278,0-92.728-34.839-105.419-82.108C146.323,294.091,173.423,298.602,192.722,298.602z M233.486,365.4
		c22.81,0,44.158-6.503,62.352-17.784c4.194,1.889,8.292,3.968,12.284,6.224c-20.303,19.402-46.606,30.034-74.605,30.034
		c-28.035,0-54.366-10.658-74.686-30.109c3.977-2.246,8.059-4.313,12.236-6.192C189.275,358.88,210.647,365.4,233.486,365.4z
		 M390.807,390.807c-5.07,5.07-10.346,9.858-15.801,14.371c-16.015-27.784-40.122-50.48-68.773-64.8
		c28.873-22.409,47.546-57.795,47.546-97.547c0-13.79-2.262-26.577-6.668-38.145c8.784-12.976,14.263-28.868,15.887-46.173
		c1.839-19.579-1.452-40.118-9.517-59.396c-0.902-2.157-3.093-3.512-5.403-3.368c-27.04,1.622-52.375,11.456-71.334,27.689
		c-6.386,5.457-11.899,11.503-16.442,18.015c-8.551-1.335-17.502-2.037-26.818-2.037c-9.403,0-18.435,0.715-27.058,2.075
		c-4.529-6.489-10.069-12.551-16.51-18.049c-18.442-15.811-44.309-25.89-71.061-27.657c0,0-0.451-0.033-0.602-0.04
		c-1.503-0.09-2.971,0.477-4.061,1.516c-0.653,0.622-1.136,1.389-1.418,2.227c-0.189,0.562-4.455,13.363-5.888,19.25
		c-3.223,13.234-4.243,26.724-2.956,39.807c1.69,17.183,7.198,33.019,15.976,46.008c-4.438,11.602-6.717,24.435-6.717,38.276
		c0,39.722,18.646,75.086,47.483,97.498c-28.637,14.305-52.728,37.014-68.726,64.835c-5.449-4.509-10.72-9.292-15.785-14.357
		C34.143,348.785,11,292.913,11,233.485s23.143-115.299,65.164-157.32C118.187,34.143,174.058,11,233.486,11
		s115.299,23.143,157.321,65.165c42.021,42.021,65.164,97.893,65.164,157.32S432.829,348.785,390.807,390.807z"/>
	<g>
		<path d="M175.846,259.772c-0.854,2.179-1.019,4.645-0.293,7.06c1.723,5.729,7.763,8.976,13.491,7.253s8.976-7.763,7.253-13.491
			c-0.466-1.549-1.256-2.909-2.262-4.046c-4.668-6.303-12.667-9.316-20.408-7.54c-2.961,0.68-4.811,3.63-4.132,6.591
			C170.157,258.478,172.965,260.299,175.846,259.772z"/>
		<path d="M291.418,266.832c0.726-2.415,0.561-4.881-0.293-7.06c2.88,0.529,5.69-1.294,6.351-4.174
			c0.679-2.961-1.171-5.911-4.132-6.591c-7.746-1.772-15.741,1.238-20.408,7.539c-1.007,1.137-1.796,2.498-2.262,4.047
			c-1.723,5.729,1.525,11.769,7.253,13.491C283.655,275.807,289.696,272.56,291.418,266.832z"/>
	</g>
</g>
<g>
</g>
<g>
</g>
<g>
</g>
<g>
</g>
<g>
</g>
<g>
</g>
<g>
</g>
<g>
</g>
<g>
</g>
<g>
</g>
<g>
</g>
<g>
</g>
<g>
</g>
<g>
</g>
<g>
</g>
</svg>
