<?xml version="1.0" encoding="UTF-8" standalone="no"?>
<!-- Generator: Adobe Illustrator 18.0.0, SVG Export Plug-In . SVG Version: 6.00 Build 0)  -->

<svg
   xmlns:dc="http://purl.org/dc/elements/1.1/"
   xmlns:cc="http://creativecommons.org/ns#"
   xmlns:rdf="http://www.w3.org/1999/02/22-rdf-syntax-ns#"
   xmlns:svg="http://www.w3.org/2000/svg"
   xmlns="http://www.w3.org/2000/svg"
   xmlns:sodipodi="http://sodipodi.sourceforge.net/DTD/sodipodi-0.dtd"
   xmlns:inkscape="http://www.inkscape.org/namespaces/inkscape"
   version="1.1"
   id="Capa_1"
   x="0px"
   y="0px"
   viewBox="0 0 466.971 466.971"
   style="enable-background:new 0 0 466.971 466.971;"
   xml:space="preserve"
   sodipodi:docname="DEFAULT.svg"
   inkscape:version="0.92.1 r15371"><metadata
     id="metadata43"><rdf:RDF><cc:Work
         rdf:about=""><dc:format>image/svg+xml</dc:format><dc:type
           rdf:resource="http://purl.org/dc/dcmitype/StillImage" /></cc:Work></rdf:RDF></metadata><defs
     id="defs41" /><sodipodi:namedview
     pagecolor="#ffffff"
     bordercolor="#666666"
     borderopacity="1"
     objecttolerance="10"
     gridtolerance="10"
     guidetolerance="10"
     inkscape:pageopacity="0"
     inkscape:pageshadow="2"
     inkscape:window-width="2880"
     inkscape:window-height="1526"
     id="namedview39"
     showgrid="false"
     inkscape:snap-center="true"
     inkscape:object-nodes="false"
     inkscape:zoom="2.0215388"
     inkscape:cx="181.7299"
     inkscape:cy="262.47505"
     inkscape:window-x="181"
     inkscape:window-y="-11"
     inkscape:window-maximized="1"
     inkscape:current-layer="Capa_1"><inkscape:grid
       type="xygrid"
       id="grid4522" /></sodipodi:namedview><g
     id="g6"
     style="fill:#000020;fill-opacity:1"
     transform="translate(8.5449219e-6,-8.3007812e-6)"><path
       style="fill:#000020;fill-opacity:1"
       d="M 233.48438,0 C 171.11737,0 112.48572,24.286719 68.386719,68.386719 24.287719,112.48672 0,171.11933 0,233.48633 c 0,62.367 24.287719,120.99961 68.386719,165.09961 44.100001,44.099 102.731661,68.38672 165.097661,68.38672 62.36599,0 121.00156,-24.28772 165.10156,-68.38672 44.1,-44.1 68.38476,-102.73261 68.38476,-165.09961 0,-62.367 -24.28476,-120.99961 -68.38476,-165.099611 C 354.48594,24.286719 295.85137,0 233.48438,0 Z m 0,11 c 59.42799,0 115.30026,23.142063 157.32226,65.164062 42.022,42.020998 65.16406,97.893318 65.16406,157.320318 0,59.427 -23.14206,115.29926 -65.16406,157.32226 -5.359,5.359 -10.94637,10.40753 -16.73437,15.14453 -15.868,-26.825 -39.32652,-48.77484 -67.10352,-62.83984 70.42916,-97.99532 24.11157,-234.99111 -74.85547,-234.97266 -98.96705,0.0185 -149.670498,140.0207 -72.17969,234.91016 -27.771,14.047 -51.22112,36.00619 -67.078121,62.86719 -5.773,-4.726 -11.345407,-9.76143 -16.691407,-15.10743 C 34.142062,348.78359 11,292.91333 11,233.48633 11,174.05933 34.142063,118.18702 76.164062,76.166016 118.18606,34.143016 174.05737,11 233.48438,11 Z m 0.002,112.66801 c 53.68619,-0.28824 92.23178,54.72225 93.49199,100.91368 1.2602,46.19143 -12.41772,134.07551 -92.00865,134.05638 -79.59093,-0.0191 -98.54428,-73.67472 -98.43997,-130.5944 0.10431,-56.91968 43.27044,-104.08742 96.95663,-104.37566 z m -64.41174,227.15426 c 40.879,29.21794 91.99977,27.62731 128.74609,0.0586 28.166,13.182 51.90028,34.96081 67.48828,61.88281 -37.977,28.048 -83.73326,43.20703 -131.82226,43.20703 -48.108,0 -93.88119,-15.16928 -131.86719,-43.23828 15.574,-26.958 39.29808,-48.75015 67.45508,-61.91015 z"
       transform="translate(-8.5449219e-6,8.3007812e-6)"
       id="path2"
       inkscape:connector-curvature="0"
       sodipodi:nodetypes="ssscscsssscscccscccscszzzzzcccsccc" /></g><g
     id="g8" /><g
     id="g10" /><g
     id="g12" /><g
     id="g14" /><g
     id="g16" /><g
     id="g18" /><g
     id="g20" /><g
     id="g22" /><g
     id="g24" /><g
     id="g26" /><g
     id="g28" /><g
     id="g30" /><g
     id="g32" /><g
     id="g34" /><g
     id="g36" /><text
     xml:space="preserve"
     style="font-style:normal;font-variant:normal;font-weight:normal;font-stretch:normal;font-size:5.33333349px;line-height:1.25;font-family:ReSquare;-inkscape-font-specification:ReSquare;letter-spacing:0px;word-spacing:0px;fill:#000000;fill-opacity:1;stroke:none"
     x="145.7285"
     y="344.70963"
     id="text4516"
     transform="rotate(-10.290952)"><tspan
       sodipodi:role="line"
       id="tspan4514"
       x="145.7285"
       y="344.70963"
       style="font-style:normal;font-variant:normal;font-weight:normal;font-stretch:normal;font-size:192px;font-family:'Comic Sans MS';-inkscape-font-specification:'Comic Sans MS'">?</tspan></text>
</svg>