<?xml version="1.0" encoding="iso-8859-1"?>
<!-- Generator: Adobe Illustrator 18.0.0, SVG Export Plug-In . SVG Version: 6.00 Build 0)  -->
<!DOCTYPE svg PUBLIC "-//W3C//DTD SVG 1.1//EN" "http://www.w3.org/Graphics/SVG/1.1/DTD/svg11.dtd">
<svg version="1.1" id="Capa_1" xmlns="http://www.w3.org/2000/svg" xmlns:xlink="http://www.w3.org/1999/xlink" x="0px" y="0px"
	 viewBox="0 0 466.972 466.972" style="enable-background:new 0 0 466.972 466.972;" xml:space="preserve">
<g>
	<path d="M398.585,68.387C354.485,24.287,295.852,0,233.486,0s-121,24.287-165.099,68.387S0,171.119,0,233.485
		s24.287,121,68.386,165.1s102.733,68.387,165.099,68.387s121-24.287,165.1-68.387c44.1-44.1,68.386-102.733,68.386-165.1
		S442.685,112.486,398.585,68.387z M113.207,229.517c0.106,13.329,1.696,26.236,4.594,38.485
		c-11.482-2.713-20.315-13.05-20.315-24.98v-21.938L113.207,229.517z M369.486,221.153v21.868c0,12.345-8.743,22.681-20.352,25.129
		c2.905-12.231,4.507-25.118,4.628-38.428L369.486,221.153z M309.571,160.013c-0.054-0.41-0.076-0.769-0.082-0.826v-15.832
		c0.468,0.424,0.935,0.847,1.395,1.281c20.856,19.667,31.884,48.509,31.895,83.407C324.094,209.667,312.178,185.445,309.571,160.013
		z M298.489,156.723c-11.41,8.06-24.359,13.934-38,17.329v-54.806c14.111,2.88,26.897,8.1,38,15.528V156.723z M249.489,176.222
		c-5.508,0.813-11.084,1.247-16.68,1.247c-5.506,0-10.952-0.407-16.32-1.171v-58.681c5.499-0.669,11.17-1.008,16.997-1.008
		c5.477,0,10.815,0.305,16.003,0.897V176.222z M205.489,174.191c-13.525-3.307-26.353-9.096-38-17.183v-21.566
		c11.073-7.608,23.861-12.986,38-15.995V174.191z M156.54,159.489c-2.807,26.433-14.176,50.316-32.346,68.385
		c0.047-34.822,11.072-63.603,31.894-83.238c0.132-0.125,0.268-0.245,0.401-0.369v15.222H156.54z M166.253,169.395
		c19.967,12.507,42.797,19.075,66.556,19.075c23.711,0,47.139-6.823,66.923-19.338c4.871,28.089,19.984,54.275,42.432,73.224
		c-5.81,67.416-52.331,120.116-108.678,120.116c-56.379,0-102.92-52.758-108.689-120.228
		C146.732,223.666,161.22,198.141,166.253,169.395z M233.363,439.769l-30.432-71.054c9.761,3.1,20,4.757,30.555,4.757
		c10.452,0,20.596-1.623,30.272-4.665L233.363,439.769z M330.009,371.209c14.086,11.578,26.17,25.805,35.298,41.556
		c-36.485,26.946-80.15,41.995-126.165,43.136L330.009,371.209z M248.66,431.992l29.526-68.935
		c20.546-9.974,38.306-26.606,51.438-47.68c11.11,2.943,22.165,6.425,32.996,10.4L248.66,431.992z M188.477,362.905l29.544,68.981
		L104.174,325.778c10.885-3.994,21.99-7.49,33.146-10.443C150.39,336.323,168.048,352.908,188.477,362.905z M227.645,455.894
		c-45.966-1.177-89.581-16.231-126.026-43.162c9.099-15.74,21.143-29.951,35.178-41.511L227.645,455.894z M390.807,390.807
		c-5.363,5.363-10.954,10.414-16.746,15.152c-9.443-15.947-21.715-30.391-35.944-42.306l44.843-41.795l-8.111-3.196
		c-12.913-5.089-26.2-9.499-39.586-13.157c4.243-8.118,7.837-16.776,10.699-25.868c19.222-1.101,34.524-17.1,34.524-36.615v-40.39
		l-27.042,14.737c-2.103-33.257-14.099-61.014-35.013-80.736c-21.521-20.296-50.895-31.023-84.945-31.023
		s-63.424,10.728-84.945,31.023c-20.882,19.692-32.871,47.392-35.002,80.58l-27.053-14.512v40.32
		c0,19.317,15.246,35.184,34.51,36.571c2.859,9.092,6.451,17.75,10.691,25.869c-13.432,3.666-26.77,8.091-39.74,13.2l-8.113,3.195
		l44.857,41.809c-14.18,11.896-26.411,26.324-35.825,42.258c-5.776-4.728-11.352-9.767-16.701-15.116
		C34.143,348.784,11,292.913,11,233.485s23.143-115.299,65.165-157.32C118.187,34.143,174.058,11,233.486,11
		c59.428,0,115.299,23.143,157.321,65.165c42.022,42.021,65.165,97.893,65.165,157.32S432.829,348.785,390.807,390.807z"/>
	<g>
		<path d="M181.755,261.237c0-0.055-0.007-0.108-0.008-0.162c1.712,0.295,3.358,0.45,4.928,0.45c3.038,0,5.5-2.463,5.5-5.5
			s-2.462-5.5-5.5-5.5c-9.742,0-23.959-9.756-28.616-13.515c-2.361-1.908-5.823-1.542-7.732,0.816
			c-1.911,2.361-1.547,5.824,0.814,7.735c0.199,0.161,4.948,3.989,11.515,7.839c0.17,0.1,0.338,0.192,0.507,0.291
			c-1.897,1.951-3.07,4.61-3.07,7.546c0,5.982,4.849,10.831,10.831,10.831C176.906,272.068,181.755,267.218,181.755,261.237z"/>
		<path d="M280.297,261.524c1.383,0,2.826-0.122,4.32-0.351c0,0.021-0.003,0.042-0.003,0.063c0,5.982,4.849,10.831,10.831,10.831
			c5.982,0,10.831-4.849,10.831-10.831c0-2.826-1.091-5.39-2.863-7.319c0.301-0.172,0.6-0.339,0.904-0.517
			c6.566-3.85,11.316-7.678,11.515-7.839c2.361-1.911,2.726-5.374,0.814-7.735c-1.912-2.362-5.375-2.728-7.735-0.813
			c-4.643,3.758-18.833,13.512-28.613,13.512c-3.038,0-5.5,2.463-5.5,5.5S277.259,261.524,280.297,261.524z"/>
	</g>
	<path d="M201.489,324.464v3.025c0,3.037,2.462,5.5,5.5,5.5s5.5-2.463,5.5-5.5v-3h41v3c0,3.037,2.462,5.5,5.5,5.5s5.5-2.463,5.5-5.5
		v-3h0.497c3.038,0,5.5-2.463,5.5-5.5s-2.462-5.5-5.5-5.5h-63c-3.038,0-5.5,2.463-5.5,5.5
		C196.486,321.859,198.685,324.213,201.489,324.464z"/>
</g>
<g>
</g>
<g>
</g>
<g>
</g>
<g>
</g>
<g>
</g>
<g>
</g>
<g>
</g>
<g>
</g>
<g>
</g>
<g>
</g>
<g>
</g>
<g>
</g>
<g>
</g>
<g>
</g>
<g>
</g>
</svg>
