<?xml version="1.0" encoding="iso-8859-1"?>
<!-- Generator: Adobe Illustrator 18.0.0, SVG Export Plug-In . SVG Version: 6.00 Build 0)  -->
<!DOCTYPE svg PUBLIC "-//W3C//DTD SVG 1.1//EN" "http://www.w3.org/Graphics/SVG/1.1/DTD/svg11.dtd">
<svg version="1.1" id="Capa_1" xmlns="http://www.w3.org/2000/svg" xmlns:xlink="http://www.w3.org/1999/xlink" x="0px" y="0px"
	 viewBox="0 0 466.972 466.972" style="enable-background:new 0 0 466.972 466.972;" xml:space="preserve">
<g>
	<path d="M398.586,68.387C354.485,24.287,295.852,0,233.486,0c-62.366,0-121,24.287-165.099,68.387S0,171.12,0,233.486
		s24.287,120.999,68.386,165.099s102.733,68.387,165.099,68.387c62.367,0,121-24.287,165.1-68.387
		c44.099-44.1,68.386-102.732,68.386-165.099S442.684,112.486,398.586,68.387z M113.308,234.299
		c0.416,11.914,2.022,23.46,4.682,34.471c-3.148-0.376-6.156-1.565-8.744-3.538c-3.822-2.912-6.281-7.139-6.924-11.901
		c-0.644-4.762,0.606-9.489,3.519-13.312C107.808,237.438,110.383,235.498,113.308,234.299z M353.672,234.012
		c3.227,1.161,6.06,3.215,8.188,6.008c2.912,3.822,4.162,8.55,3.52,13.312c-0.644,4.763-3.103,8.989-6.925,11.901
		c-2.793,2.13-6.074,3.359-9.494,3.622C351.654,257.729,353.271,246.057,353.672,234.012z M318.486,179.111
		c-3.037,0-5.5,2.463-5.5,5.5v3h-18v-3c0-3.037-2.463-5.5-5.5-5.5s-5.5,2.463-5.5,5.5v3h-16v-3c0-3.037-2.463-5.5-5.5-5.5
		s-5.5,2.463-5.5,5.5v3h-18.001v-3c0-3.037-2.462-5.5-5.5-5.5s-5.5,2.463-5.5,5.5v3h-18v-3c0-3.037-2.462-5.5-5.5-5.5
		s-5.5,2.463-5.5,5.5v3h-16v-3c0-3.037-2.462-5.5-5.5-5.5s-5.5,2.463-5.5,5.5v3h-18v-3c0-3.037-2.462-5.5-5.5-5.5
		s-5.5,2.463-5.5,5.5v3h-12.365c5.141-13.65,13.389-24.392,24.851-32.431c17.735-12.438,43.254-18.484,78.014-18.484
		c34.76,0,60.279,6.046,78.014,18.484c11.462,8.039,19.71,18.78,24.851,32.431h-12.365v-3
		C323.986,181.574,321.523,179.111,318.486,179.111z M127.292,198.611h15.693v2c0,3.037,2.462,5.5,5.5,5.5s5.5-2.463,5.5-5.5v-2h18
		v2c0,3.037,2.462,5.5,5.5,5.5s5.5-2.463,5.5-5.5v-2h16v2c0,3.037,2.462,5.5,5.5,5.5s5.5-2.463,5.5-5.5v-2h18v2
		c0,3.037,2.462,5.5,5.5,5.5s5.5-2.463,5.5-5.5v-2h18.001v2c0,3.037,2.463,5.5,5.5,5.5s5.5-2.463,5.5-5.5v-2h16v2
		c0,3.037,2.463,5.5,5.5,5.5s5.5-2.463,5.5-5.5v-2h18v2c0,3.037,2.463,5.5,5.5,5.5s5.5-2.463,5.5-5.5v-2h15.693
		c2.071,8.81,3.101,18.622,3.101,29.485c0,74.095-49.029,134.375-109.294,134.375c-60.265,0-109.294-60.28-109.294-134.375
		C124.192,217.233,125.221,207.421,127.292,198.611z M238.985,444.611h5.001c3.037,0,5.5-2.463,5.5-5.5s-2.463-5.5-5.5-5.5h-5.001
		v-12h5.001c3.037,0,5.5-2.463,5.5-5.5s-2.463-5.5-5.5-5.5h-5.001v-13h5.001c3.037,0,5.5-2.463,5.5-5.5s-2.463-5.5-5.5-5.5h-5.001
		v-13.298c21.569-1.179,41.675-9.251,58.843-22.438c28.168,13.181,51.904,34.96,67.493,61.879
		c-36.53,26.983-80.257,42.04-126.336,43.15V444.611z M227.986,373.313v13.298h-5c-3.038,0-5.5,2.463-5.5,5.5s2.462,5.5,5.5,5.5h5
		v13h-5c-3.038,0-5.5,2.463-5.5,5.5s2.462,5.5,5.5,5.5h5v12h-5c-3.038,0-5.5,2.463-5.5,5.5s2.462,5.5,5.5,5.5h5v11.293
		c-46.086-1.111-89.82-16.172-126.353-43.163c15.571-26.958,39.292-48.751,67.447-61.914
		C186.262,364.042,206.391,372.133,227.986,373.313z M390.807,390.807c-5.355,5.355-10.938,10.4-16.722,15.133
		c-15.87-26.822-39.331-48.771-67.11-62.835c17.357-16.235,30.951-38.07,38.916-63.244c0.575,0.034,1.149,0.058,1.72,0.058
		c6.306,0,12.408-2.05,17.51-5.937c6.159-4.694,10.122-11.505,11.158-19.179c1.037-7.674-0.978-15.292-5.671-21.451
		c-4.228-5.549-10.178-9.307-16.927-10.757c-1.137-34.815-13.183-60.513-35.867-76.421c-19.648-13.78-47.232-20.479-84.33-20.479
		c-37.097,0-64.681,6.698-84.33,20.479c-22.719,15.932-34.767,41.686-35.872,76.583c-6.446,1.558-12.118,5.247-16.193,10.594
		c-4.693,6.159-6.708,13.777-5.671,21.451s5,14.484,11.158,19.179c5.102,3.888,11.204,5.937,17.51,5.937
		c0.332,0,0.666-0.022,0.999-0.034c7.957,25.137,21.527,46.943,38.852,63.168c-27.769,14.05-51.216,36.012-67.071,62.872
		c-5.777-4.729-11.354-9.769-16.704-15.119C34.143,348.785,11,292.914,11,233.486S34.143,118.188,76.165,76.165
		S174.058,11,233.486,11c59.428,0,115.299,23.143,157.322,65.165c42.021,42.021,65.164,97.894,65.164,157.321
		S432.829,348.785,390.807,390.807z"/>
	<g>
		<path d="M191.741,261.226c0-12.114-9.856-21.971-21.97-21.971s-21.97,9.856-21.97,21.971s9.856,21.971,21.97,21.971
			S191.741,273.34,191.741,261.226z M158.801,261.226c0-6.049,4.921-10.971,10.97-10.971s10.97,4.922,10.97,10.971
			s-4.921,10.971-10.97,10.971S158.801,267.274,158.801,261.226z"/>
		<path d="M297.2,283.196c12.114,0,21.971-9.856,21.971-21.971s-9.856-21.971-21.971-21.971s-21.97,9.856-21.97,21.971
			S285.086,283.196,297.2,283.196z M297.2,250.255c6.049,0,10.971,4.922,10.971,10.971s-4.922,10.971-10.971,10.971
			s-10.97-4.922-10.97-10.971S291.151,250.255,297.2,250.255z"/>
	</g>
	<path d="M212.36,326.611h20.128v7.431c0,6.801,5.241,12.387,11.852,12.839c0.188,0.02,0.38,0.029,0.573,0.029h0.293
		c0.186,0,0.369-0.009,0.55-0.027c6.644-0.43,11.732-5.915,11.732-12.841v-7.761c5.977-1.277,10.43-6.126,10.828-12.267
		c0.244-3.771-1.027-7.347-3.58-10.07c-2.582-2.754-6.272-4.333-10.126-4.333h-41.968c-7.51,0-13.523,5.416-13.988,12.597
		c-0.244,3.771,1.027,7.347,3.581,10.07C204.816,325.032,208.507,326.611,212.36,326.611z M212.643,310.611h41.968
		c0.837,0,1.583,0.304,2.1,0.855c0.465,0.496,0.677,1.113,0.63,1.836c-0.098,1.5-1.624,2.309-3.012,2.309h-2.34
		c-3.037,0-5.5,2.463-5.5,5.5v12.931c0,0.887-0.443,1.781-1.428,1.862c-0.906-0.075-1.572-0.851-1.572-1.862v-12.931
		c0-3.037-2.463-5.5-5.5-5.5H212.36c-0.837,0-1.583-0.304-2.1-0.855c-0.464-0.495-0.676-1.113-0.629-1.837
		C209.729,311.42,211.255,310.611,212.643,310.611z"/>
</g>
<g>
</g>
<g>
</g>
<g>
</g>
<g>
</g>
<g>
</g>
<g>
</g>
<g>
</g>
<g>
</g>
<g>
</g>
<g>
</g>
<g>
</g>
<g>
</g>
<g>
</g>
<g>
</g>
<g>
</g>
</svg>
