<?xml version="1.0" encoding="iso-8859-1"?>
<!-- Generator: Adobe Illustrator 18.0.0, SVG Export Plug-In . SVG Version: 6.00 Build 0)  -->
<!DOCTYPE svg PUBLIC "-//W3C//DTD SVG 1.1//EN" "http://www.w3.org/Graphics/SVG/1.1/DTD/svg11.dtd">
<svg version="1.1" id="Capa_1" xmlns="http://www.w3.org/2000/svg" xmlns:xlink="http://www.w3.org/1999/xlink" x="0px" y="0px"
	 viewBox="0 0 466.971 466.971" style="enable-background:new 0 0 466.971 466.971;" xml:space="preserve">
<path d="M398.585,68.386C354.485,24.287,295.852,0,233.485,0s-121,24.287-165.099,68.386S0,171.119,0,233.486
	s24.287,121,68.386,165.099s102.733,68.386,165.099,68.386s121-24.287,165.1-68.386c44.1-44.1,68.386-102.733,68.386-165.099
	S442.685,112.486,398.585,68.386z M101.619,412.731c10.871-18.817,25.71-35.117,43.26-47.72
	c5.314,17.353,15.738,32.971,29.901,44.584c16.489,13.521,37.331,20.967,58.687,20.967c21.343,0,42.174-7.437,58.656-20.939
	c14.157-11.599,24.583-27.2,29.907-44.536c17.554,12.604,32.399,28.889,43.277,47.677c-37.977,28.048-83.733,43.207-131.822,43.207
	C185.378,455.971,139.605,440.801,101.619,412.731z M331.514,132.761c0.529,2.175,2.323,3.813,4.537,4.141l5.511,0.818
	c2.114,0.314,3.957,1.607,4.971,3.489l1.947,3.614c10.128,18.846,15.482,40.179,15.482,61.693c0,6.724-0.576,13.219-1.69,19.419
	c-0.591-0.348-1.346-0.711-2.163-1.064c-3.473-1.501-7.162-2.441-10.919-2.883l-0.289-0.034
	c-31.865-3.744-38.315-32.867-39.252-38.362c3.339-3.891,6.399-8.067,9.128-12.517c1.522-2.482,1.089-5.808-1.252-7.539
	c-2.64-1.951-6.315-1.185-7.981,1.553c-14.913,24.494-40.912,39.905-69.55,41.225c-21.709,1.008-42.588,8.115-60.379,20.555
	c-17.803,12.447-31.649,29.616-40.044,49.652l-9.047,21.613c-0.491,1.174-1.475,1.288-2.022,1.246
	c-0.545-0.039-1.509-0.288-1.831-1.523l-16.076-61.671c-0.832-3.194-1.566-6.528-2.179-9.898
	c-6.577-36.635,3.135-74.339,26.646-103.445c23.068-28.557,57.226-45.652,93.718-46.901c1.485-0.052,3.012-0.078,4.54-0.078
	c35.667,0,68.998,14.141,93.83,39.794c0.005,0.005,0.076,0.079,0.081,0.084c2.564,2.66,3.865,6.237,3.568,9.814
	C330.548,128.583,331.351,132.089,331.514,132.761z M358.455,265.233c-1.736,1.323-3.666,2.284-5.695,2.899
	c-0.242,0.055-0.478,0.128-0.707,0.214c-1.011,0.261-2.046,0.427-3.093,0.507c2.693-11.124,4.31-22.796,4.711-34.841
	c3.227,1.161,6.061,3.215,8.188,6.007c2.913,3.822,4.163,8.55,3.519,13.312C364.736,258.094,362.277,262.32,358.455,265.233z
	 M149.717,280.77c3.992-9.527,9.359-18.327,15.882-26.176c0.494,0.21,1.028,0.351,1.59,0.408c0.631,0.065,1.201,0.072,1.575,0.072
	c2.164,0,4.3-0.362,6.343-1.055c-0.602,2.259-0.489,4.727,0.503,7.043c2.355,5.499,8.722,8.047,14.221,5.692
	c5.499-2.355,8.047-8.722,5.692-14.221c-0.656-1.531-1.63-2.823-2.802-3.854c-3.425-3.619-8.099-5.853-13.06-6.178
	c-0.734-0.054-1.466-0.058-2.195-0.029c2.694-2.331,5.512-4.533,8.453-6.59c16.083-11.245,34.958-17.67,54.584-18.581
	c22.587-1.041,43.713-9.863,60.131-24.518c1.218,3.902,3.117,8.735,6.032,13.688c5.762,9.792,16.604,21.8,36.066,25.642
	c-1.733,72.245-50.073,130.357-109.246,130.357c-36.853,0-71.886-23.569-92.247-61.448L149.717,280.77z M233.485,373.471
	c23.645,0,45.716-8.293,64.334-22.59c5.011,2.345,9.881,4.966,14.591,7.836c-9.317,35.478-41.916,60.846-78.944,60.846
	c-37.061,0-69.669-25.4-78.964-60.921c4.663-2.84,9.482-5.435,14.441-7.759C187.901,365.448,210.156,373.471,233.485,373.471z
	 M390.807,390.806c-5.359,5.359-10.947,10.407-16.735,15.144c-15.868-26.824-39.325-48.774-67.103-62.839
	c17.36-16.236,30.956-38.073,38.922-63.25c0.574,0.034,1.148,0.058,1.72,0.058c0.294,0,0.585-0.027,0.878-0.036v11.606
	c0,3.038,2.462,5.5,5.5,5.5s5.5-2.462,5.5-5.5v-14.155c1.974-0.897,3.866-2.007,5.633-3.353
	c6.159-4.693,10.122-11.504,11.159-19.178c0.958-7.091-0.694-14.131-4.653-20.02c2.206-8.881,3.335-18.371,3.335-28.268
	c0-23.325-5.807-46.459-16.795-66.905l-1.95-3.62c-2.646-4.911-7.521-8.332-13.04-9.151l-1.425-0.211
	c0.002-0.057,0.005-0.112,0.01-0.164c0.558-6.729-1.853-13.42-6.601-18.345c-0.006-0.006-0.079-0.082-0.085-0.088
	c-26.945-27.837-63.083-43.167-101.756-43.167c-1.655,0-3.312,0.029-4.919,0.085c-39.68,1.358-76.819,19.94-101.895,50.982
	c-25.519,31.59-36.058,72.522-28.914,112.314c0.665,3.651,1.458,7.256,2.359,10.716l16.076,61.67
	c1.433,5.504,6.025,9.32,11.697,9.723c0.327,0.023,0.651,0.035,0.973,0.035c1.776,0,3.475-0.355,5.033-1.005
	c7.28,13.047,16.098,24.379,26.072,33.73c-27.714,14.05-51.114,35.984-66.947,62.802c-5.773-4.726-11.345-9.762-16.69-15.108
	C34.143,348.784,11,292.913,11,233.486c0-59.428,23.143-115.299,65.165-157.321S174.058,11,233.485,11
	c59.428,0,115.299,23.143,157.321,65.165s65.165,97.893,65.165,157.321C455.971,292.913,432.829,348.784,390.807,390.806z"/>
<path d="M277.103,266.755c5.499,2.355,11.866-0.193,14.221-5.692c0.992-2.316,1.105-4.784,0.503-7.044
	c6.492,2.189,13.765,0.851,19.043-3.527c2.338-1.939,2.661-5.407,0.722-7.745c-1.94-2.339-5.408-2.661-7.745-0.722
	c-2.386,1.979-5.684,2.571-8.609,1.542c-7.49-2.631-15.77-0.54-21.116,5.192c-1.132,1.018-2.072,2.284-2.711,3.775
	C269.056,258.033,271.604,264.4,277.103,266.755z"/>
<path d="M233.462,335.26c6.746,0,13.132-2.563,17.982-7.218c2.191-2.104,2.263-5.585,0.16-7.777
	c-2.104-2.191-5.585-2.262-7.777-0.16c-2.792,2.679-6.472,4.155-10.365,4.155c-3.887,0-7.565-1.476-10.356-4.154
	c-2.19-2.103-5.673-2.032-7.776,0.159s-2.032,5.673,0.159,7.776C220.338,332.696,226.721,335.26,233.462,335.26z"/>
<g>
</g>
<g>
</g>
<g>
</g>
<g>
</g>
<g>
</g>
<g>
</g>
<g>
</g>
<g>
</g>
<g>
</g>
<g>
</g>
<g>
</g>
<g>
</g>
<g>
</g>
<g>
</g>
<g>
</g>
</svg>
