<?xml version="1.0" encoding="iso-8859-1"?>
<!-- Generator: Adobe Illustrator 18.0.0, SVG Export Plug-In . SVG Version: 6.00 Build 0)  -->
<!DOCTYPE svg PUBLIC "-//W3C//DTD SVG 1.1//EN" "http://www.w3.org/Graphics/SVG/1.1/DTD/svg11.dtd">
<svg version="1.1" id="Capa_1" xmlns="http://www.w3.org/2000/svg" xmlns:xlink="http://www.w3.org/1999/xlink" x="0px" y="0px"
	 viewBox="0 0 466.971 466.971" style="enable-background:new 0 0 466.971 466.971;" xml:space="preserve">
<g>
	<path d="M286.253,269.049c1.69-1.863,2.601-4.154,2.771-6.483c3.514,2.706,7.817,4.127,12.159,4.127
		c2.354,0,4.72-0.415,6.974-1.264c2.842-1.071,4.278-4.244,3.207-7.086c-1.07-2.843-4.243-4.277-7.086-3.208
		c-2.899,1.092-6.212,0.576-8.641-1.349c-6.253-4.954-14.81-5.661-21.75-1.93c-1.358,0.594-2.618,1.469-3.678,2.638
		c-4.019,4.43-3.686,11.28,0.744,15.299S282.234,273.48,286.253,269.049z"/>
	<path d="M158.814,265.429c2.255,0.849,4.618,1.264,6.974,1.264c4.358,0,8.678-1.43,12.199-4.155
		c0.164,2.338,1.076,4.641,2.773,6.511c4.019,4.43,10.869,4.764,15.299,0.745s4.764-10.869,0.744-15.299
		c-1.123-1.238-2.47-2.143-3.92-2.736c-6.903-3.614-15.357-2.88-21.55,2.028c-2.43,1.923-5.741,2.442-8.642,1.349
		c-2.844-1.072-6.015,0.365-7.086,3.208C154.536,261.185,155.973,264.358,158.814,265.429z"/>
	<path d="M216.514,333.695c4.622,2.568,10.602,3.982,16.835,3.982c6.239,0,12.222-1.414,16.844-3.982
		c2.655-1.476,3.612-4.824,2.137-7.479c-1.475-2.655-4.824-3.612-7.479-2.137c-2.972,1.651-7.164,2.598-11.502,2.598
		c-4.332,0-8.521-0.947-11.493-2.598c-2.655-1.475-6.004-0.518-7.479,2.137C212.901,328.871,213.858,332.219,216.514,333.695z"/>
	<path d="M398.585,68.386C354.485,24.287,295.852,0,233.485,0s-121,24.287-165.1,68.386C24.287,112.486,0,171.119,0,233.485
		s24.287,121,68.386,165.099c44.1,44.1,102.733,68.386,165.1,68.386s121-24.287,165.1-68.386
		c44.099-44.1,68.386-102.733,68.386-165.099S442.684,112.486,398.585,68.386z M111.561,229.167
		c-0.927-6.118-1.393-12.389-1.385-18.642c0.021-32.298,12.763-63.05,35.313-86.033v8.996c0,3.038,2.463,5.5,5.5,5.5
		s5.5-2.462,5.5-5.5v-19.701c16.637-25.942,46.322-41.995,77.857-41.995c30.98,0,59.329,15.526,76.143,41.613v20.083
		c0,3.038,2.463,5.5,5.5,5.5s5.5-2.462,5.5-5.5v-9.024c22.457,22.932,35.129,53.7,35.129,86.152c0,6.218-0.466,12.467-1.386,18.57
		c-1.722,11.397-2.942,22.84-3.698,34.301h-20.883c0.033-1.063,0.057-2.125,0.055-3.186c-0.016-26.392-10.786-51.471-29.749-69.794
		c2.722-2.361,5.34-4.851,7.798-7.476c4.76-5.082,7.381-11.739,7.381-18.743c0-3.038-2.463-5.5-5.5-5.5s-5.5,2.462-5.5,5.5
		c0,4.202-1.566,8.188-4.41,11.225c-3.498,3.736-7.326,7.202-11.38,10.304c-16.127,12.342-35.437,18.866-55.842,18.866
		c-20.355,0-39.633-6.499-55.75-18.796c-4.085-3.112-7.919-6.561-11.396-10.25c-2.917-3.095-4.523-7.123-4.523-11.341
		c0-3.038-2.463-5.5-5.5-5.5s-5.5,2.462-5.5,5.5c0,7.035,2.67,13.742,7.519,18.886c2.388,2.534,4.941,4.95,7.6,7.253
		c-19.009,18.329-29.807,43.439-29.823,69.859c-0.002,1.063,0.022,2.128,0.055,3.193h-20.926
		C114.504,252.021,113.283,240.571,111.561,229.167z M313.596,385.77c8.92-13.198,13.634-28.631,13.634-44.628
		c0-1.654-0.059-3.424-0.176-5.278c-0.889-13.428-0.791-26.94,0.245-40.374h23.38c0.234,18.736,1.741,37.462,4.552,56.068
		c0.92,6.105,1.386,12.352,1.386,18.564c0,0.885-0.01,1.769-0.028,2.651c-0.296,14.058,2.747,27.787,8.811,39.925
		c-18.531,13.7-38.918,24.321-60.524,31.616C298.801,424.572,301.927,403.033,313.596,385.77z M174.718,197.281
		c17.28,12.052,37.508,18.403,58.786,18.403c21.247,0,41.433-6.33,58.685-18.337c17.523,16.343,27.502,39.05,27.516,62.969
		c0.008,4.361-0.318,8.749-0.971,13.045c-2.172,14.365-3.247,28.913-3.269,43.447c-20.791,29.035-50.614,45.662-82.053,45.662
		c-31.451,0-61.258-16.625-82.044-45.667c-0.023-14.537-1.098-29.082-3.271-43.444c-0.65-4.296-0.977-8.685-0.969-13.051
		C147.145,236.365,157.151,213.629,174.718,197.281z M329.611,275.01c0.026-0.173,0.043-0.348,0.069-0.521h21.264
		c-0.13,3.333-0.21,6.666-0.258,10h-22.324C328.731,281.322,329.135,278.16,329.611,275.01z M150.606,341.141
		c0-1.423,0.052-2.96,0.152-4.552c0.059-0.893,0.09-1.788,0.141-2.682c2.853,3.253,5.824,6.322,8.902,9.203
		c-2.995,1.518-5.949,3.132-8.852,4.836C150.729,345.695,150.606,343.426,150.606,341.141z M233.413,373.471
		c18.111,0,35.695-4.897,51.622-14.032c-8.829,20.118-29.019,33.804-51.678,33.804c-22.693,0-42.9-13.721-51.708-33.885
		C197.609,368.545,215.242,373.471,233.413,373.471z M315.936,333.909c0.051,0.888,0.082,1.777,0.14,2.664
		c0.102,1.608,0.153,3.145,0.153,4.568c0,2.293-0.123,4.571-0.345,6.83c-2.911-1.706-5.873-3.322-8.876-4.843
		C310.095,340.243,313.076,337.169,315.936,333.909z M115.848,274.489h21.306c0.025,0.172,0.042,0.347,0.068,0.519
		c0.477,3.151,0.881,6.314,1.25,9.481h-22.366C116.059,281.155,115.978,277.821,115.848,274.489z M110.207,372.855
		c-0.021-0.88-0.03-1.762-0.031-2.647c-0.009-6.244,0.458-12.512,1.386-18.632c2.811-18.612,4.318-37.345,4.552-56.087h23.423
		c1.036,13.435,1.135,26.951,0.245,40.391c-0.116,1.837-0.175,3.608-0.175,5.262c0,16,4.715,31.432,13.634,44.629
		c11.66,17.251,14.791,38.771,8.733,58.5c-21.583-7.301-41.948-17.92-60.459-31.615
		C107.513,400.518,110.516,386.836,110.207,372.855z M172.477,447.534c7.045-22.905,3.415-47.894-10.124-67.924
		c-4.193-6.204-7.299-12.987-9.263-20.107c4.688-2.921,9.539-5.586,14.495-7.969c6.808,30.604,34.287,52.709,65.772,52.709
		c31.486,0,58.984-22.12,65.783-52.731c4.992,2.394,9.878,5.073,14.6,8.01c-1.965,7.113-5.069,13.889-9.258,20.088
		c-13.546,20.04-17.172,45.045-10.113,67.96c-19.559,5.531-40,8.401-60.885,8.401C212.557,455.971,192.074,453.088,172.477,447.534z
		 M390.807,390.806c-5.296,5.296-10.813,10.291-16.529,14.978c-4.627-10.045-6.933-21.274-6.691-32.78
		c0.021-0.958,0.03-1.92,0.03-2.884c0-6.759-0.508-13.556-1.509-20.205c-5.97-39.509-5.97-79.575,0-119.087
		c1.001-6.646,1.509-13.446,1.509-20.211c0-39.502-17.237-76.707-47.322-102.275c-18.773-29.784-50.849-47.55-85.95-47.55
		c-35.316,0-68.57,18.054-87.198,47.208l-1.994,1.684c-29.229,25.586-45.953,62.188-45.979,100.83
		c-0.009,6.805,0.499,13.635,1.509,20.298c5.97,39.521,5.97,79.599,0.001,119.118c-1.011,6.666-1.519,13.494-1.51,20.291
		c0.001,0.962,0.013,1.921,0.033,2.878c0.253,11.425-2.016,22.602-6.58,32.633c-5.693-4.673-11.188-9.65-16.464-14.927
		C34.143,348.784,11,292.913,11,233.485c0-59.428,23.143-115.299,65.164-157.321C118.187,34.143,174.058,11,233.485,11
		s115.299,23.143,157.321,65.165c42.021,42.021,65.164,97.893,65.164,157.321C455.971,292.913,432.828,348.784,390.807,390.806z"/>
</g>
<g>
</g>
<g>
</g>
<g>
</g>
<g>
</g>
<g>
</g>
<g>
</g>
<g>
</g>
<g>
</g>
<g>
</g>
<g>
</g>
<g>
</g>
<g>
</g>
<g>
</g>
<g>
</g>
<g>
</g>
</svg>
