<?xml version="1.0" encoding="iso-8859-1"?>
<!-- Generator: Adobe Illustrator 18.0.0, SVG Export Plug-In . SVG Version: 6.00 Build 0)  -->
<!DOCTYPE svg PUBLIC "-//W3C//DTD SVG 1.1//EN" "http://www.w3.org/Graphics/SVG/1.1/DTD/svg11.dtd">
<svg version="1.1" id="Capa_1" xmlns="http://www.w3.org/2000/svg" xmlns:xlink="http://www.w3.org/1999/xlink" x="0px" y="0px"
	 viewBox="0 0 466.971 466.971" style="enable-background:new 0 0 466.971 466.971;" xml:space="preserve">
<g>
	<path d="M398.585,68.386C354.486,24.287,295.852,0,233.486,0s-121,24.287-165.1,68.386C24.287,112.486,0,171.12,0,233.486
		s24.287,121,68.386,165.099c44.1,44.1,102.733,68.386,165.1,68.386s121-24.287,165.1-68.386
		c44.099-44.1,68.386-102.733,68.386-165.099S442.684,112.486,398.585,68.386z M101.619,412.732
		c11.107-19.226,26.36-35.82,44.411-48.532c22.67,29.095,54.291,45.68,87.514,45.68c33.176,0,64.797-16.511,87.516-45.477
		c17.976,12.698,33.17,29.23,44.247,48.362c-37.977,28.048-83.733,43.207-131.821,43.207
		C185.378,455.971,139.605,440.801,101.619,412.732z M353.349,235.465c6.002,3.582,9.625,10.513,8.632,17.867
		c-0.644,4.762-3.103,8.989-6.925,11.902c-1.771,1.35-3.742,2.325-5.815,2.938C351.56,258,352.943,247.058,353.349,235.465z
		 M309.296,99.98c5.656-2.077,11.673-3.16,17.775-3.16c28.424,0,51.548,23.125,51.548,51.548c0,13.259-4.934,25.619-13.769,35.069
		C357.731,148.963,337.347,119.284,309.296,99.98z M356.617,210.618c0,4.617-0.273,9.23-0.78,13.781
		c-0.753-0.332-1.521-0.637-2.309-0.906c-0.2-2.371-1.932-4.428-4.382-4.926c-42.769-8.698-81.606-32.039-109.357-65.723l-1.3-1.578
		v-41.776c0-3.038-2.463-5.5-5.5-5.5s-5.5,2.462-5.5,5.5v42.767l-0.483,0.587c-27.751,33.685-66.589,57.026-109.357,65.724
		c-2.47,0.502-4.209,2.588-4.385,4.984c-0.782,0.273-1.544,0.584-2.292,0.919c-0.514-4.584-0.795-9.218-0.795-13.852
		c0-67.944,55.276-123.221,123.221-123.221S356.617,142.673,356.617,210.618z M101.943,183.44
		c-8.835-9.455-13.768-21.816-13.768-35.072c0-28.424,23.117-51.548,51.531-51.548c6.105,0,12.127,1.084,17.789,3.162
		C129.444,119.287,109.061,148.966,101.943,183.44z M112.73,236.054c0.597,10.079,2.32,20.715,5.207,32.175
		c-6.678-1.897-11.96-7.588-12.948-14.898C104.048,246.354,107.271,239.771,112.73,236.054z M123.493,228.562
		c42.724-9.524,81.517-32.892,109.903-66.22c28.205,33.116,66.686,56.399,109.087,66.038c-0.022,16.231-1.956,31.172-5.754,44.408
		c-15.405,53.642-56.659,89.683-102.655,89.683c-46.514,0-88.116-36.041-103.521-89.682
		C125.788,256.186,123.544,242.117,123.493,228.562z M234.074,373.471c22.975,0,44.956-7.746,64.058-22.443
		c4.693,2.21,9.262,4.657,13.691,7.328c-20.571,25.826-48.808,40.523-78.28,40.523c-29.51,0-57.744-14.766-78.269-40.71
		c4.508-2.709,9.162-5.186,13.943-7.414C188.165,365.256,210.53,373.471,234.074,373.471z M390.807,390.807
		c-5.359,5.359-10.947,10.407-16.735,15.144c-15.811-26.727-39.157-48.616-66.803-62.687c17.566-16.452,30.897-38.236,38.809-63.42
		c5.638-0.364,11.049-2.359,15.646-5.861c6.159-4.693,10.122-11.504,11.158-19.178c1.165-8.626-1.615-16.886-6.942-22.973
		c1.109-6.95,1.678-14.084,1.678-21.213c0-4.743-0.251-9.427-0.733-14.044c14.286-11.822,22.734-29.603,22.734-48.205
		c0-34.489-28.059-62.548-62.548-62.548c-10.173,0-20.157,2.477-29.079,7.175c-19.175-10.572-41.193-16.598-64.594-16.598
		c-23.402,0-45.42,6.026-64.595,16.599c-8.93-4.698-18.92-7.176-29.095-7.176c-34.479,0-62.531,28.059-62.531,62.548
		c0,18.599,8.448,36.382,22.734,48.212c-0.482,4.615-0.733,9.298-0.733,14.038c0,7.176,0.578,14.364,1.707,21.381
		c-5.231,6.07-7.948,14.259-6.794,22.805c1.889,13.987,13.516,24.309,27.115,25.063c8.026,25.477,21.649,47.102,38.836,63.125
		c-27.818,14.045-51.307,36.028-67.185,62.922c-5.773-4.726-11.345-9.762-16.691-15.108C34.143,348.785,11,292.914,11,233.486
		c0-59.428,23.143-115.299,65.164-157.321C118.187,34.143,174.058,11,233.486,11s115.299,23.143,157.321,65.165
		c42.021,42.022,65.164,97.893,65.164,157.321C455.971,292.914,432.828,348.785,390.807,390.807z"/>
	<path d="M252.19,321.456c-4.973,3.349-11.617,5.193-18.711,5.193c-7.084,0-13.725-1.844-18.699-5.193
		c-2.521-1.696-5.937-1.03-7.634,1.491c-1.696,2.52-1.029,5.938,1.491,7.634c6.77,4.558,15.592,7.068,24.842,7.068
		c9.259,0,18.086-2.51,24.855-7.069c2.52-1.697,3.187-5.115,1.49-7.634C258.127,320.426,254.709,319.758,252.19,321.456z"/>
	<g>
		<path d="M286.871,264.028c1.934-1.686,3.118-3.909,3.537-6.253c1.065,1.031,2.439,1.555,3.819,1.555
			c1.404,0,2.81-0.535,3.883-1.605c2.151-2.145,2.157-5.627,0.012-7.778c-5.549-5.567-13.802-7.289-21.054-4.565
			c-1.59,0.406-3.113,1.169-4.434,2.321c-4.508,3.932-4.976,10.774-1.044,15.282C275.521,267.492,282.363,267.96,286.871,264.028z"
			/>
		<path d="M172.366,257.868c1.071,0,2.142-0.33,3.081-0.97c0.178,2.3,1.078,4.561,2.742,6.407
			c4.005,4.443,10.854,4.798,15.297,0.793c4.443-4.005,4.798-10.854,0.793-15.297c-1.017-1.128-2.219-1.99-3.517-2.587
			c-6.935-3.782-15.52-3.113-21.802,1.833c-2.387,1.878-2.799,5.336-0.921,7.723C169.126,257.148,170.737,257.869,172.366,257.868z"
			/>
	</g>
	<path d="M160.248,270.574c1.867,2.663,3.981,5.095,6.285,7.228c6.378,5.91,14.446,8.862,22.454,8.862
		c8.067,0,16.072-2.998,22.218-8.988c4.762-4.639,7.576-10.272,8.366-16.743c0.178-1.459,0.217-2.917,0.145-4.362
		c3.847-3.087,8.582-4.773,13.579-4.773c4.995,0,9.731,1.685,13.578,4.772c-0.072,1.445-0.033,2.903,0.145,4.363
		c0.79,6.469,3.604,12.102,8.364,16.742c6.147,5.991,14.151,8.988,22.22,8.988c8.007,0,16.077-2.953,22.454-8.861
		c2.306-2.137,4.421-4.568,6.285-7.228c8.82-12.578,19.292-22.801,31.121-30.384l1.32-0.843c1.754-1.112,2.732-3.117,2.529-5.184
		c-0.203-2.066-1.553-3.843-3.49-4.592c-0.502-0.194-12.491-4.776-28.375-6.161c-21.502-1.873-39.879,3.086-53.154,14.347
		c-2.585,2.193-4.688,4.789-6.249,7.636c-5.015-2.996-10.76-4.596-16.749-4.596c-5.99,0-11.734,1.6-16.75,4.596
		c-1.561-2.847-3.663-5.443-6.248-7.636c-13.273-11.261-31.654-16.225-53.154-14.347c-15.884,1.385-27.873,5.966-28.375,6.161
		c-1.938,0.749-3.287,2.525-3.49,4.592c-0.203,2.067,0.775,4.072,2.529,5.184l1.318,0.842
		C140.956,247.773,151.426,257.997,160.248,270.574z M263.408,246.147c10.998-9.329,24.774-12.087,37.222-12.087
		c8.642,0,16.642,1.33,22.627,2.712c-9.677,7.504-18.368,16.716-25.921,27.486c-1.42,2.024-3.02,3.866-4.756,5.475
		c-8.504,7.879-21.472,7.908-29.52,0.064c-2.962-2.887-4.638-6.223-5.122-10.197C257.327,254.601,259.373,249.571,263.408,246.147z
		 M203.181,246.147c4.035,3.423,6.08,8.453,5.47,13.454c-0.484,3.975-2.16,7.31-5.123,10.197c-8.048,7.843-21.014,7.815-29.52-0.065
		c-1.734-1.606-3.334-3.448-4.755-5.474c-7.553-10.77-16.245-19.982-25.922-27.486C157.937,233.397,184.548,230.342,203.181,246.147
		z"/>
</g>
<g>
</g>
<g>
</g>
<g>
</g>
<g>
</g>
<g>
</g>
<g>
</g>
<g>
</g>
<g>
</g>
<g>
</g>
<g>
</g>
<g>
</g>
<g>
</g>
<g>
</g>
<g>
</g>
<g>
</g>
</svg>
