<?xml version="1.0" encoding="iso-8859-1"?>
<!-- Generator: Adobe Illustrator 18.0.0, SVG Export Plug-In . SVG Version: 6.00 Build 0)  -->
<!DOCTYPE svg PUBLIC "-//W3C//DTD SVG 1.1//EN" "http://www.w3.org/Graphics/SVG/1.1/DTD/svg11.dtd">
<svg version="1.1" id="Capa_1" xmlns="http://www.w3.org/2000/svg" xmlns:xlink="http://www.w3.org/1999/xlink" x="0px" y="0px"
	 viewBox="0 0 466.971 466.971" style="enable-background:new 0 0 466.971 466.971;" xml:space="preserve">
<g>
	<path d="M398.585,68.386C354.485,24.287,295.852,0,233.485,0s-121,24.287-165.099,68.386S0,171.119,0,233.486
		s24.287,121,68.386,165.099s102.733,68.386,165.099,68.386s121-24.287,165.1-68.386c44.1-44.1,68.386-102.733,68.386-165.099
		S442.685,112.486,398.585,68.386z M101.619,412.731c12.13-20.997,29.206-38.855,49.471-51.946
		c22.356,25.545,51.461,39.558,82.455,39.558c24.034,0,47.23-8.535,67.08-24.681c5.416-4.404,10.541-9.353,15.295-14.738
		c20.224,13.09,37.269,30.909,49.387,51.839c-37.977,28.048-83.733,43.207-131.822,43.207
		C185.378,455.971,139.605,440.801,101.619,412.731z M85.653,166.815l-1.23-23.656c-0.03-0.622-0.063-1.259-0.063-1.873
		c0-12.946,6.99-24.887,18.244-31.164c7.509-4.192,16.024-5.508,24.231-3.903c-4.519,7.038-4.655,16.186-0.368,23.346
		c-17.126,22.537-27.308,50.626-27.308,81.053c0,7.454,0.546,14.485,1.66,21.41c-0.369,0.431-0.731,0.87-1.078,1.325
		c-4.693,6.159-6.708,13.777-5.671,21.451c0.206,1.528,0.534,3.02,0.967,4.47l-32.044,10.304
		C79.699,237.983,87.507,202.744,85.653,166.815z M404.357,269.887l-32.552-10.327c0.477-1.54,0.837-3.127,1.057-4.757
		c1.037-7.674-0.978-15.292-5.671-21.451c-0.408-0.535-0.838-1.048-1.277-1.55c1.429-7.666,1.634-15.246,1.634-21.185
		c0-29.557-9.536-57.748-27.111-80.932c4.323-7.102,4.264-16.164-0.154-23.223c8.276-1.702,16.845-0.432,24.386,3.776
		c11.268,6.285,18.268,18.203,18.268,31.105c0,0.621-0.021,1.224-0.05,1.828l-1.225,23.661
		C379.801,202.914,387.621,238.253,404.357,269.887z M358.442,240.019c2.913,3.822,4.163,8.55,3.519,13.312
		c-0.643,4.763-3.102,8.989-6.924,11.902c-1.761,1.342-3.714,2.331-5.774,2.944c2.037-9.491,3.139-20.138,3.433-33.087
		C354.913,236.288,356.869,237.955,358.442,240.019z M329.446,110.367c2.647,2.651,3.666,6.345,3.052,9.796
		c-0.975-1.067-1.962-2.126-2.974-3.166l-0.149-0.152c-5.92-6.039-13.839-9.899-22.299-10.871l-0.244-0.028l-0.708-1.32
		c-0.053-0.1-0.112-0.196-0.166-0.296l2.494-1.739l0.377-0.254c4.374-2.914,10.25-2.331,13.97,1.384L329.446,110.367z
		 M296.43,109.823l2.067,3.857c0.852,1.589,2.429,2.66,4.22,2.866l3.104,0.356c5.963,0.685,11.538,3.399,15.699,7.644
		c0.004,0.004,0.092,0.094,0.096,0.098c22.526,23.133,34.931,53.666,34.931,85.973c0,4.23-0.107,8.95-0.652,13.802
		c-2.478-1.096-5.123-1.853-7.883-2.225c-0.175-0.024-2.318-0.063-3.195-0.091c-47.204-1.473-55.876-41.926-57.186-50.297
		l3.291-6.188c1.426-2.682,0.409-6.012-2.273-7.438c-2.683-1.427-6.012-0.408-7.438,2.273l-8.382,15.759
		c-12.986,24.415-40.669,36.306-67.316,28.923c-6.044-1.674-12.287-2.523-18.554-2.523c-12.24,0-24.306,3.245-34.894,9.384
		c-9.875,5.726-21.233,9.241-32.846,10.166c-0.051,0.004-5.885,1.223-8.325,2.318c-0.492-4.49-0.735-9.078-0.735-13.863
		c0-67.944,55.269-123.221,123.204-123.221c17.726,0,34.829,3.681,50.761,10.908l0.165,0.076
		C289.419,100.724,293.731,104.788,296.43,109.823z M134.455,119.997c-0.552-3.406,0.47-7.03,3.061-9.625l6.66-6.651
		c3.08-3.079,7.639-3.997,11.601-2.565C148.019,106.673,140.873,112.996,134.455,119.997z M108.49,240.019
		c1.647-2.162,3.715-3.888,6.063-5.096c0.536,8.373,1.667,22.54,3.68,33.411c-2.267-0.595-4.417-1.639-6.337-3.102
		c-3.822-2.913-6.281-7.139-6.924-11.902C104.328,248.569,105.578,243.842,108.49,240.019z M157.583,221.513
		c8.914-5.168,19.072-7.9,29.376-7.9c5.275,0,10.53,0.714,15.617,2.124c15.196,4.209,31.54,3.102,46.026-3.123
		c12.913-5.549,23.885-14.977,31.362-26.821c1.728,4.943,4.251,10.698,7.91,16.47c8.397,13.245,24.533,28.878,53.856,30.702
		c-0.268,16.474-1.824,28.925-4.952,39.824c-7.835,27.282-23.138,51.242-43.091,67.467c-17.867,14.533-38.665,22.215-60.146,22.215
		c-46.229,0-87.634-36.044-103.031-89.694c-2.967-10.31-4.5-30.712-5.08-40.241C136.798,230.939,147.818,227.174,157.583,221.513z
		 M233.542,373.471c22.949,0,45.125-7.797,64.36-22.552c2.846,1.334,5.647,2.756,8.399,4.263
		c-3.962,4.339-8.186,8.344-12.617,11.947c-17.867,14.533-38.663,22.215-60.14,22.215c-27.146,0-52.787-12.127-72.837-34.288
		c2.746-1.499,5.54-2.914,8.38-4.241C187.934,365.279,210.16,373.471,233.542,373.471z M390.807,390.806
		c-5.359,5.359-10.947,10.407-16.735,15.144c-15.851-26.796-39.277-48.728-67.016-62.795c17.578-16.423,31.245-38.497,39.081-63.301
		c5.611-0.377,10.992-2.385,15.567-5.872c1.78-1.356,3.37-2.894,4.765-4.574l48.049,15.243c0.548,0.174,1.108,0.258,1.663,0.258
		c1.669,0,3.285-0.762,4.346-2.128c1.413-1.821,1.541-4.329,0.32-6.284c-20.44-32.747-30.191-70.473-28.198-109.097l1.226-23.676
		c0.039-0.801,0.064-1.579,0.064-2.38c0-16.887-9.162-32.486-23.909-40.711c-11.753-6.559-25.398-7.674-38.022-3.261l-1.432-1.432
		c-7.417-7.404-19.126-8.565-27.866-2.742l-3.408,2.371c-3.042-2.973-6.576-5.427-10.443-7.194
		c-0.004-0.002-0.113-0.052-0.118-0.054c-17.442-7.913-36.074-11.924-55.378-11.924c-24.508,0-47.5,6.61-67.296,18.133l-1.606-1.189
		l-0.224-0.157c-8.722-5.81-20.429-4.649-27.836,2.757l-1.178,1.177c-12.579-4.334-26.222-3.164-37.978,3.398
		c-14.733,8.217-23.885,23.839-23.885,40.77c0,0.79,0.038,1.609,0.077,2.427l1.231,23.671c1.986,38.483-7.767,76.131-28.204,108.873
		c-1.223,1.958-1.092,4.472,0.327,6.292c1.061,1.362,2.674,2.12,4.339,2.12c0.561,0,1.128-0.086,1.683-0.265l47.435-15.253
		c1.445,1.781,3.11,3.404,4.98,4.829c4.675,3.563,10.189,5.582,15.932,5.894c8.029,25.507,21.648,47.132,38.792,63.16
		c-27.78,14.047-51.237,36.012-67.098,62.878c-5.773-4.726-11.345-9.762-16.69-15.108C34.143,348.784,11,292.913,11,233.486
		c0-59.428,23.143-115.299,65.165-157.321S174.058,11,233.485,11c59.428,0,115.299,23.143,157.321,65.165
		s65.165,97.893,65.165,157.321C455.971,292.913,432.829,348.784,390.807,390.806z"/>
	<path d="M208.636,321.044c6.77,4.559,15.593,7.069,24.843,7.069c9.259,0,18.086-2.511,24.856-7.069
		c2.52-1.697,3.187-5.115,1.49-7.634c-1.696-2.52-5.114-3.187-7.634-1.49c-4.973,3.349-11.618,5.193-18.711,5.193
		c-7.084,0-13.725-1.844-18.699-5.193c-2.52-1.697-5.938-1.03-7.634,1.49C205.45,315.93,206.117,319.347,208.636,321.044z"/>
	<g>
		<path d="M293.563,264.895c1.934-1.686,3.118-3.909,3.537-6.253c1.065,1.031,2.44,1.555,3.819,1.555
			c1.405,0,2.81-0.535,3.883-1.605c2.151-2.145,2.156-5.627,0.011-7.778c-5.55-5.567-13.802-7.29-21.054-4.566
			c-1.59,0.406-3.113,1.169-4.434,2.321c-4.508,3.932-4.976,10.774-1.044,15.282C282.213,268.359,289.055,268.826,293.563,264.895z"
			/>
		<path d="M166.056,258.735c1.071,0,2.142-0.33,3.081-0.97c0.179,2.299,1.078,4.561,2.742,6.406
			c4.005,4.443,10.854,4.798,15.297,0.793c4.443-4.005,4.798-10.854,0.793-15.297c-1.017-1.129-2.219-1.991-3.518-2.587
			c-6.935-3.782-15.519-3.113-21.802,1.833c-2.387,1.879-2.799,5.337-0.92,7.724C162.816,258.016,164.428,258.735,166.056,258.735z"
			/>
	</g>
</g>
<g>
</g>
<g>
</g>
<g>
</g>
<g>
</g>
<g>
</g>
<g>
</g>
<g>
</g>
<g>
</g>
<g>
</g>
<g>
</g>
<g>
</g>
<g>
</g>
<g>
</g>
<g>
</g>
<g>
</g>
</svg>
