<?xml version="1.0" encoding="iso-8859-1"?>
<!-- Generator: Adobe Illustrator 18.0.0, SVG Export Plug-In . SVG Version: 6.00 Build 0)  -->
<!DOCTYPE svg PUBLIC "-//W3C//DTD SVG 1.1//EN" "http://www.w3.org/Graphics/SVG/1.1/DTD/svg11.dtd">
<svg version="1.1" id="Capa_1" xmlns="http://www.w3.org/2000/svg" xmlns:xlink="http://www.w3.org/1999/xlink" x="0px" y="0px"
	 viewBox="0 0 466.971 466.971" style="enable-background:new 0 0 466.971 466.971;" xml:space="preserve">
<g>
	<path d="M216.626,320.692c4.624,2.568,10.603,3.982,16.835,3.982c6.238,0,12.22-1.414,16.844-3.982
		c2.655-1.475,3.612-4.823,2.138-7.479c-1.477-2.656-4.824-3.613-7.479-2.138c-2.974,1.651-7.166,2.599-11.502,2.599
		c-4.332,0-8.521-0.947-11.494-2.599c-2.657-1.475-6.004-0.519-7.479,2.137C213.014,315.869,213.971,319.217,216.626,320.692z"/>
	<path d="M398.585,68.386C354.485,24.287,295.852,0,233.485,0c-62.366,0-121,24.287-165.099,68.386
		C24.287,112.486,0,171.12,0,233.486s24.287,121,68.386,165.099s102.733,68.386,165.099,68.386c62.367,0,121-24.287,165.1-68.386
		c44.099-44.1,68.386-102.733,68.386-165.099S442.684,112.486,398.585,68.386z M101.619,412.732
		c11.372-19.685,27.087-36.616,45.705-49.441c22.58,28.018,53.741,43.989,86.238,43.989c32.682,0,63.829-15.896,86.21-43.786
		c18.541,12.813,34.194,29.683,45.536,49.272c-37.977,28.048-83.733,43.207-131.822,43.207
		C185.378,455.971,139.605,440.801,101.619,412.732z M191.667,111.632c0.399,0.088,0.797,0.13,1.19,0.13
		c2.524,0,4.823-1.744,5.365-4.316c2.1-9.958,11.76-15.132,13.266-15.845c14.415-6.82,29.635-10.273,45.314-10.273
		c67.944,0,123.221,65.909,123.221,146.921c0,25.964-5.761,51.481-16.661,73.793c-8.74,17.891-20.614,33.424-34.675,45.5
		c-1.004-49.393-27.016-94.914-69.801-120.785l-4.279-2.588c-20.681-12.505-37.633-30.382-49.025-51.696l-11.745-21.973
		c-7.333-13.721-21.538-22.812-37.069-23.726c-3.039-0.181-5.635,2.136-5.813,5.168s2.135,5.635,5.168,5.813
		c5.856,0.344,11.462,2.228,16.299,5.316c-11.513,11.263-32.653,36.729-36.5,74.672c-0.28,2.779-1.972,5.1-4.524,6.209
		c-1.149,0.5-4.145,1.418-7.124-0.849c-0.076-0.058-0.148-0.114-0.226-0.178c-1.297-1.063-2.935-1.574-4.558-1.49
		c-0.848,0.044-4.414,0.934-5,1.051c-14.887,2.954-25.127,17.073-23.068,32.314c1.037,7.674,5,14.485,11.158,19.178
		c5.103,3.888,11.205,5.938,17.511,5.937c0.347,0,0.696-0.023,1.044-0.035c7.956,25.125,21.52,46.921,38.837,63.144
		c-8.319,4.205-16.25,9.119-23.706,14.664c-21.501-28.695-43.274-79.878-49.57-117.35c-7.518-44.748,3.159-86.341,29.293-114.116
		c19.692-20.928,46.914-32.396,76.035-32.39c-1.941,3.072-3.557,6.777-4.542,11.241C186.826,108.042,188.7,110.978,191.667,111.632z
		 M180.636,150.421c1.318,1.631,2.496,3.389,3.499,5.266l11.745,21.973c12.323,23.057,30.662,42.395,53.035,55.923l4.279,2.588
		c31.087,18.798,52.587,48.827,60.812,82.989c-20.465,27.557-49.644,43.31-80.44,43.31c-58.357,0-106.183-56.492-109.183-127.375
		c3.724,0.891,7.688,0.561,11.397-1.052c6.162-2.677,10.41-8.499,11.085-15.191C150.43,183.691,170.338,160.327,180.636,150.421z
		 M307.232,343.245c3.263-3.052,6.4-6.316,9.398-9.787c0.659,5.146,1.036,10.356,1.092,15.615
		C314.303,347.003,310.802,345.061,307.232,343.245z M233.566,373.471c23.204,0,45.521-7.939,64.518-22.467
		c4.226,1.988,8.347,4.175,12.36,6.538c-20.22,24.692-47.939,38.736-76.882,38.736c-28.762,0-56.488-14.113-76.897-38.927
		c4.04-2.37,8.19-4.561,12.445-6.548C187.755,365.149,209.87,373.471,233.566,373.471z M113.351,234.289
		c0.416,11.919,2.023,23.471,4.685,34.486c-3.165-0.369-6.189-1.56-8.79-3.542c-3.822-2.913-6.281-7.14-6.924-11.902
		C101.202,245.047,105.95,237.316,113.351,234.289z M390.807,390.807c-5.359,5.359-10.947,10.407-16.735,15.144
		c-10.793-18.245-25.1-34.234-41.887-47.024c16.805-13.446,30.919-31.294,41.06-52.055c11.63-23.807,17.777-50.993,17.777-78.621
		c0-87.078-60.211-157.921-134.221-157.921c-18.582,0-36.56,4.381-53.461,13.024c-36.346-3.362-71.02,9.462-95.364,35.334
		c-28.512,30.302-40.223,75.308-32.13,123.477c6.671,39.706,29.002,92.114,51.807,122.382
		c-13.746,11.729-25.56,25.719-34.799,41.368c-5.773-4.726-11.345-9.762-16.69-15.108C34.143,348.785,11,292.914,11,233.486
		c0-59.428,23.143-115.299,65.165-157.321S174.058,11,233.485,11c59.428,0,115.299,23.143,157.322,65.165
		c42.021,42.022,65.164,97.893,65.164,157.321C455.971,292.914,432.829,348.785,390.807,390.807z"/>
	<path d="M156.921,252.709c0.95,0.649,2.03,0.96,3.1,0.96c1.755,0,3.479-0.838,4.545-2.396c1.035-1.513,2.334-2.816,3.863-3.873
		c1.153-0.797,2.385-1.414,3.661-1.856c-0.099,2.276,0.505,4.601,1.901,6.619c3.402,4.92,10.148,6.151,15.069,2.749
		s6.205-10.186,2.75-15.069c-1.069-1.511-2.382-2.917-4.03-3.743c-8.155-4.083-18.104-2.936-25.605,2.251
		c-2.64,1.825-4.89,4.083-6.687,6.712C153.771,247.572,154.414,250.995,156.921,252.709z"/>
</g>
<g>
</g>
<g>
</g>
<g>
</g>
<g>
</g>
<g>
</g>
<g>
</g>
<g>
</g>
<g>
</g>
<g>
</g>
<g>
</g>
<g>
</g>
<g>
</g>
<g>
</g>
<g>
</g>
<g>
</g>
</svg>
