<?xml version="1.0" encoding="iso-8859-1"?>
<!-- Generator: Adobe Illustrator 18.0.0, SVG Export Plug-In . SVG Version: 6.00 Build 0)  -->
<!DOCTYPE svg PUBLIC "-//W3C//DTD SVG 1.1//EN" "http://www.w3.org/Graphics/SVG/1.1/DTD/svg11.dtd">
<svg version="1.1" id="Capa_1" xmlns="http://www.w3.org/2000/svg" xmlns:xlink="http://www.w3.org/1999/xlink" x="0px" y="0px"
	 viewBox="0 0 466.971 466.971" style="enable-background:new 0 0 466.971 466.971;" xml:space="preserve">
<g>
	<path d="M398.585,68.386C354.486,24.287,295.852,0,233.486,0s-121,24.287-165.1,68.386C24.287,112.486,0,171.119,0,233.485
		s24.287,121,68.386,165.1c44.1,44.1,102.733,68.386,165.1,68.386s121-24.287,165.1-68.386c44.099-44.1,68.386-102.733,68.386-165.1
		S442.684,112.486,398.585,68.386z M184.9,348.459c-19.39-26.422-29.638-58.078-29.638-91.629c0-1.087,0.022-7.51,0.054-14.384
		c23.152-16.362,50.085-25.02,78.081-25.02c28.059,0,55.051,8.695,78.256,25.127c0.016,6.579,0.026,12.768,0.026,14.337
		c0,33.523-10.225,65.151-29.569,91.548c-15.172,9.304-31.524,14.032-48.627,14.032C216.401,362.471,200.063,357.75,184.9,348.459z
		 M237.489,373.384c9.059-0.366,18.058-1.976,26.785-4.753c-0.123,0.115-0.242,0.234-0.365,0.349
		c-4.519,4.222-5.469,10.646-2.364,15.987c3.102,5.337,9.15,7.689,15.059,5.852c16.829-5.255,32.729-13.691,46.879-24.688
		c16.958,12.461,31.302,28.451,41.83,46.631c-36.922,27.27-81.2,42.344-127.823,43.161V373.384z M300.817,368.187
		c20.89-17.426,30.062-34.948,30.587-35.974c1.384-2.704,0.313-6.018-2.392-7.401c-2.704-1.385-6.018-0.312-7.401,2.391
		c-0.146,0.286-13.471,25.736-44.958,44.682c4.87-5.001,9.44-10.356,13.636-15.991c21.189-28.488,32.39-62.722,32.39-99.002
		c0-0.299-0.037-30.836-0.125-33.072c-0.12-3.035-2.674-5.396-5.712-5.277c-3.035,0.119-5.398,2.677-5.28,5.712
		c0.016,0.417,0.032,2.318,0.045,5.004c-2.147-1.362-4.319-2.669-6.518-3.913c-0.624-48.779-14.905-72.806-15.526-73.813
		c-1.592-2.579-4.965-3.234-7.546-1.653c-2.584,1.582-3.397,4.923-1.826,7.513c0.035,0.057,3.518,5.784,6.957,17.435
		c2.785,9.436,6.039,24.446,6.803,44.828c-4.951-2.272-10.006-4.264-15.151-5.959c-0.616-17.154-6.204-40.292-6.455-41.324
		c-0.719-2.952-3.691-4.763-6.645-4.042c-2.951,0.718-4.761,3.693-4.043,6.644c0.054,0.224,4.807,19.911,5.952,35.528
		c-9.176-2.224-18.581-3.549-28.122-3.945v-15.921c0-3.038-2.463-5.5-5.5-5.5s-5.5,2.462-5.5,5.5v15.881
		c-9.712,0.325-19.287,1.611-28.628,3.828c1.166-15.592,5.889-35.147,5.943-35.37c0.718-2.951-1.092-5.926-4.043-6.645
		c-2.955-0.72-5.926,1.091-6.645,4.042c-0.25,1.028-5.795,23.979-6.449,41.11c-5.139,1.666-10.19,3.624-15.136,5.864
		c1.624-40.863,13.521-61.712,13.737-62.071c1.583-2.583,0.779-5.842-1.802-7.434c-2.582-1.596-5.973-0.873-7.568,1.712
		c-0.619,1.004-14.832,24.893-15.521,73.428c-2.357,1.318-4.685,2.706-6.982,4.159c0.021-2.658,0.042-4.55,0.062-4.989
		c0.138-3.032-2.207-5.608-5.238-5.75c-3.085-0.132-5.605,2.196-5.75,5.228c-0.108,2.285-0.205,31.925-0.205,33.202
		c0,36.293,11.216,70.543,32.434,99.047c4.328,5.815,9.049,11.328,14.081,16.458c-31.862-18.919-45.541-44.795-45.719-45.14
		c-1.386-2.699-4.695-3.767-7.397-2.383c-2.705,1.383-3.775,4.697-2.392,7.401c0.523,1.021,9.616,18.389,30.305,35.736
		c-17.202-10.05-32.467-23.894-44.437-40.548c-18.83-26.194-28.783-57.491-28.783-90.508c0-39.118,14.63-74.447,41.195-99.48
		c25.855-24.365,61.316-37.784,99.849-37.784c38.536,0,73.999,13.418,99.856,37.784c26.565,25.033,41.195,60.362,41.195,99.48
		c0,32.963-9.926,64.221-28.703,90.396C333.667,344.123,318.222,358.094,300.817,368.187z M190.479,390.9
		c1.332,0.413,2.672,0.612,3.983,0.612c4.497,0,8.664-2.348,11.063-6.483c3.1-5.344,2.145-11.767-2.373-15.981
		c-0.145-0.135-0.287-0.276-0.432-0.412c7.759,2.468,15.73,4.018,23.769,4.585v82.63c-45.542-1.398-88.734-16.416-124.874-43.123
		c10.493-18.161,24.796-34.14,41.707-46.598C157.548,377.186,173.545,385.651,190.479,390.9z M390.807,390.807
		c-5.363,5.363-10.954,10.414-16.747,15.153c-10.756-18.181-25.081-34.265-41.919-47.073c8.328-7.499,15.909-15.942,22.541-25.186
		c20.127-28.055,30.766-61.53,30.766-96.808c0-42.18-15.857-80.353-44.651-107.486c-27.906-26.296-66.048-40.778-107.4-40.778
		c-41.349,0-79.488,14.482-107.393,40.778C97.21,156.54,81.353,194.713,81.353,236.893c0,35.335,10.668,68.853,30.851,96.929
		c6.613,9.198,14.167,17.599,22.459,25.066c-16.791,12.804-31.074,28.875-41.797,47.036c-5.777-4.729-11.353-9.768-16.702-15.117
		C34.143,348.785,11,292.914,11,233.485c0-59.428,23.143-115.299,65.164-157.321C118.187,34.143,174.058,11,233.486,11
		s115.299,23.143,157.321,65.165c42.021,42.022,65.164,97.893,65.164,157.321C455.971,292.914,432.828,348.785,390.807,390.807z"/>
	<path d="M257.821,311.651c-2.103-2.19-5.584-2.263-7.776-0.159c-4.462,4.284-10.346,6.643-16.565,6.643
		c-6.212,0-12.091-2.359-16.553-6.643c-2.192-2.103-5.673-2.032-7.776,0.159c-2.104,2.191-2.032,5.673,0.159,7.777
		c6.521,6.26,15.104,9.707,24.17,9.707c9.074,0,17.662-3.447,24.183-9.707C259.853,317.325,259.924,313.843,257.821,311.651z"/>
	<path d="M285.556,265.562c2.12-1.367,3.594-3.353,4.358-5.566c1.08,1.326,2.658,2.033,4.261,2.033c1.142,0,2.293-0.354,3.279-1.088
		c2.437-1.813,2.942-5.259,1.13-7.696c-4.743-6.375-12.782-9.27-20.422-7.5c-1.504,0.213-2.987,0.735-4.347,1.612
		c-5.027,3.242-6.474,9.946-3.232,14.973C273.825,267.357,280.529,268.804,285.556,265.562z"/>
	<path d="M192.987,247.357c-1.361-0.878-2.846-1.401-4.352-1.613c-7.64-1.767-15.676,1.127-20.417,7.501
		c-1.813,2.438-1.307,5.883,1.131,7.696c0.986,0.733,2.137,1.087,3.278,1.087c1.603,0,3.182-0.706,4.261-2.033
		c0.763,2.213,2.238,4.198,4.357,5.565c5.027,3.242,11.73,1.795,14.973-3.232C199.461,257.303,198.014,250.599,192.987,247.357z"/>
</g>
<g>
</g>
<g>
</g>
<g>
</g>
<g>
</g>
<g>
</g>
<g>
</g>
<g>
</g>
<g>
</g>
<g>
</g>
<g>
</g>
<g>
</g>
<g>
</g>
<g>
</g>
<g>
</g>
<g>
</g>
</svg>
