<?xml version="1.0" encoding="iso-8859-1"?>
<!-- Generator: Adobe Illustrator 18.0.0, SVG Export Plug-In . SVG Version: 6.00 Build 0)  -->
<!DOCTYPE svg PUBLIC "-//W3C//DTD SVG 1.1//EN" "http://www.w3.org/Graphics/SVG/1.1/DTD/svg11.dtd">
<svg version="1.1" id="Capa_1" xmlns="http://www.w3.org/2000/svg" xmlns:xlink="http://www.w3.org/1999/xlink" x="0px" y="0px"
	 viewBox="0 0 466.971 466.971" style="enable-background:new 0 0 466.971 466.971;" xml:space="preserve">
<g>
	<path d="M398.585,68.386C354.486,24.287,295.852,0,233.486,0s-121,24.287-165.1,68.386C24.287,112.486,0,171.119,0,233.486
		s24.287,121,68.386,165.099s102.733,68.386,165.1,68.386s121-24.287,165.1-68.386c44.099-44.1,68.386-102.733,68.386-165.099
		S442.684,112.486,398.585,68.386z M102.337,246.246c0.354,4.005,0.661,8.002,0.939,11.991c-0.683-1.541-1.162-3.187-1.393-4.906
		C101.556,250.909,101.731,248.509,102.337,246.246z M205.531,71.052c0-15.365,12.5-27.866,27.866-27.866s27.865,12.5,27.865,27.866
		c0,2.751-0.397,5.427-1.17,8c-8.603-1.739-17.499-2.655-26.607-2.655c-9.166,0-18.12,0.927-26.774,2.688
		C205.932,76.502,205.531,73.815,205.531,71.052z M233.486,87.397c67.913,0,123.164,55.276,123.164,123.221
		c0,4.708-0.289,9.507-0.858,14.265c-1.537,12.833-2.707,25.833-3.479,38.637c-0.245,4.068-0.539,9.406-0.884,15.653
		c-0.74,13.407-1.703,30.866-2.897,48.899l-6.758-102.423c2.803-6.668,8.819-24.995,3.687-50.464
		c-0.6-2.978-3.496-4.901-6.479-4.305c-2.978,0.6-4.905,3.5-4.305,6.478c3.911,19.405,0.45,34.096-1.977,41.165
		c-1.598-0.595-3.202-1.166-4.807-1.732c1.416-7.828,2.113-18.707-0.398-31.718c-0.575-2.983-3.464-4.933-6.442-4.358
		c-2.982,0.576-4.934,3.46-4.358,6.442c2.043,10.589,1.675,19.494,0.634,26.136c-54.752-16.943-112.945-16.941-167.697,0.003
		c-1.043-6.642-1.415-15.55,0.625-26.141c0.574-2.982-1.378-5.866-4.361-6.441c-2.983-0.573-5.866,1.378-6.441,4.361
		c-2.506,13.012-1.804,23.892-0.387,31.72c-1.606,0.566-3.211,1.137-4.81,1.733c-0.7-2.02-1.482-4.649-2.148-7.834
		c-1.517-7.26-2.717-18.936,0.186-33.336c0.6-2.978-1.327-5.878-4.305-6.478c-2.975-0.596-5.877,1.327-6.478,4.305
		c-5.133,25.47,0.883,43.798,3.687,50.465l-6.758,102.426c-1.195-18.037-2.158-35.494-2.897-48.903
		c-0.345-6.248-0.639-11.585-0.884-15.653c-0.773-12.81-1.943-25.809-3.479-38.637c-0.569-4.758-0.858-9.558-0.858-14.265
		C110.322,142.674,165.573,87.397,233.486,87.397z M364.946,253.326c-0.213,1.569-0.631,3.078-1.223,4.502
		c0.261-3.712,0.549-7.43,0.876-11.155C365.116,248.811,365.252,251.059,364.946,253.326z M127.971,350.707l3.083-46.714
		c7.497,14.994,17.224,28.215,28.802,39.093c-11.463,5.806-22.191,12.957-31.949,21.25L127.971,350.707z M171.776,339.013
		c-17.652-14.955-31.135-35.665-39.078-59.944l3.262-49.435c63.031-24.079,132.02-24.079,195.051,0l3.262,49.437
		c-17.145,50.758-56.555,83.483-100.753,83.483C211.305,362.554,189.954,354.414,171.776,339.013z M339,350.707l0.065,13.752
		c-9.803-8.334-20.586-15.52-32.11-21.354c11.392-10.738,21.226-24.026,28.943-39.396L339,350.707z M238.986,373.39
		c21.379-1.162,41.549-9.111,58.868-22.493c15.258,7.146,29.217,16.814,41.283,28.456l0.162,34.086
		c0.014,2.771,2.086,5.099,4.836,5.434c0.225,0.027,0.447,0.041,0.669,0.041c2.488,0,4.707-1.689,5.328-4.157
		c1.219-4.842,2.352-11.524,3.402-19.419c4.313,5.52,8.25,11.344,11.773,17.428c-36.526,26.976-80.249,42.029-126.321,43.14V373.39z
		 M116.838,414.755c0.677,2.687,3.247,4.454,5.997,4.117c2.75-0.334,4.823-2.663,4.836-5.434l0.163-34.213
		c12.027-11.602,25.933-21.234,41.131-28.353c17.695,13.662,37.904,21.367,59.02,22.515v82.517
		c-46.092-1.111-89.831-16.175-126.367-43.172c3.531-6.112,7.478-11.96,11.804-17.5
		C114.476,403.172,115.613,409.891,116.838,414.755z M390.807,390.806c-5.359,5.359-10.947,10.407-16.735,15.144
		c-5.417-9.156-11.721-17.741-18.775-25.643c3.323-31.789,5.652-74.009,7.115-100.528c0.084-1.521,0.165-2.986,0.242-4.393
		c7.182-4.559,12.033-12.039,13.192-20.585c1.309-9.678-2.291-19.17-9.477-25.542c0.117-1.022,0.222-2.049,0.344-3.069
		c0.621-5.191,0.937-10.43,0.937-15.573c0-61.063-40.973-112.727-96.858-128.936c0.976-3.429,1.471-6.984,1.471-10.63
		c0-21.431-17.435-38.866-38.865-38.866s-38.866,17.435-38.866,38.866c0,3.662,0.498,7.234,1.484,10.679
		c-55.8,16.262-96.693,67.884-96.693,128.886c0,5.143,0.315,10.382,0.937,15.573c0.118,0.984,0.219,1.974,0.332,2.96
		c-7.272,6.365-10.923,15.903-9.61,25.646c1.156,8.619,6.067,16.143,13.342,20.691c0.076,1.377,0.155,2.807,0.237,4.292
		c1.461,26.489,3.786,68.64,7.103,100.417c-7.069,7.921-13.384,16.531-18.807,25.718c-5.773-4.726-11.345-9.762-16.691-15.108
		C34.143,348.784,11,292.914,11,233.486c0-59.428,23.143-115.299,65.165-157.321S174.058,11,233.486,11
		c59.428,0,115.299,23.143,157.321,65.165c42.021,42.022,65.164,97.893,65.164,157.321
		C455.971,292.914,432.829,348.785,390.807,390.806z"/>
	<path d="M252.729,312.674c-2.104-2.191-5.586-2.262-7.776-0.158c-3.089,2.965-7.163,4.598-11.472,4.598
		c-4.302,0-8.373-1.633-11.462-4.599c-2.19-2.102-5.671-2.032-7.776,0.159c-2.104,2.191-2.032,5.673,0.159,7.776
		c5.147,4.941,11.924,7.663,19.08,7.663c7.163,0,13.942-2.722,19.089-7.664C254.761,318.346,254.833,314.865,252.729,312.674z"/>
	<path d="M292.312,265.562c2.155-1.39,3.646-3.417,4.398-5.674c1.081,1.399,2.704,2.141,4.353,2.141
		c1.142,0,2.293-0.354,3.279-1.087c2.437-1.813,2.942-5.259,1.13-7.696c-4.691-6.305-12.607-9.198-20.174-7.548
		c-1.633,0.172-3.252,0.709-4.727,1.66c-5.027,3.242-6.474,9.946-3.232,14.973C280.581,267.357,287.285,268.804,292.312,265.562z"/>
	<path d="M185.872,247.357c-1.278-0.824-2.664-1.342-4.074-1.578c-7.682-1.837-15.791,1.052-20.562,7.467
		c-1.813,2.437-1.307,5.883,1.13,7.696c0.986,0.733,2.137,1.087,3.278,1.087c1.559,0,3.093-0.668,4.17-1.924
		c0.774,2.169,2.232,4.112,4.317,5.457c5.027,3.242,11.731,1.795,14.973-3.232C192.346,257.303,190.899,250.599,185.872,247.357z"/>
</g>
<g>
</g>
<g>
</g>
<g>
</g>
<g>
</g>
<g>
</g>
<g>
</g>
<g>
</g>
<g>
</g>
<g>
</g>
<g>
</g>
<g>
</g>
<g>
</g>
<g>
</g>
<g>
</g>
<g>
</g>
</svg>
