<?xml version="1.0" encoding="iso-8859-1"?>
<!-- Generator: Adobe Illustrator 18.0.0, SVG Export Plug-In . SVG Version: 6.00 Build 0)  -->
<!DOCTYPE svg PUBLIC "-//W3C//DTD SVG 1.1//EN" "http://www.w3.org/Graphics/SVG/1.1/DTD/svg11.dtd">
<svg version="1.1" id="Capa_1" xmlns="http://www.w3.org/2000/svg" xmlns:xlink="http://www.w3.org/1999/xlink" x="0px" y="0px"
	 viewBox="0 0 466.971 466.971" style="enable-background:new 0 0 466.971 466.971;" xml:space="preserve">
<g>
	<path d="M286.121,255.537c1.69-1.863,2.601-4.155,2.771-6.483c3.515,2.707,7.817,4.128,12.159,4.128
		c2.354,0,4.72-0.416,6.973-1.265c2.843-1.071,4.278-4.244,3.207-7.086c-1.07-2.842-4.244-4.279-7.086-3.207
		c-2.899,1.093-6.209,0.577-8.641-1.349c-6.251-4.953-14.808-5.661-21.746-1.931c-1.359,0.594-2.62,1.469-3.681,2.639
		c-4.019,4.43-3.686,11.28,0.744,15.299S282.102,259.967,286.121,255.537z"/>
	<path d="M192.752,238.246c-6.904-3.614-15.358-2.879-21.55,2.028c-2.43,1.924-5.739,2.442-8.642,1.349
		c-2.842-1.073-6.016,0.364-7.086,3.207c-1.071,2.842,0.364,6.015,3.207,7.086c2.254,0.85,4.618,1.265,6.974,1.265
		c4.358,0,8.678-1.43,12.2-4.156c0.164,2.339,1.076,4.642,2.773,6.513c4.019,4.43,10.869,4.764,15.299,0.745
		s4.764-10.869,0.745-15.299C195.55,239.744,194.202,238.839,192.752,238.246z"/>
	<path d="M220.121,311.076c-2.659-1.475-6.003-0.519-7.479,2.138c-1.475,2.655-0.518,6.004,2.138,7.479
		c4.624,2.568,10.603,3.982,16.836,3.982c6.238,0,12.22-1.414,16.844-3.982c2.655-1.475,3.612-4.823,2.138-7.479
		c-1.477-2.656-4.825-3.612-7.479-2.138c-2.973,1.651-7.165,2.598-11.502,2.598C227.283,313.674,223.094,312.727,220.121,311.076z"
		/>
	<path d="M398.585,68.386C354.485,24.287,295.852,0,233.485,0s-121,24.287-165.1,68.386C24.287,112.486,0,171.119,0,233.485
		s24.287,121,68.386,165.099c44.1,44.1,102.733,68.386,165.1,68.386s121-24.287,165.1-68.386
		c44.099-44.1,68.386-102.733,68.386-165.099S442.684,112.486,398.585,68.386z M101.631,412.74
		c6.121-10.608,13.47-20.393,21.929-29.222l18.716,15.618c1.638,1.369,3.921,1.663,5.854,0.759c1.934-0.905,3.169-2.847,3.169-4.981
		v-34.279c1.68-1.081,3.387-2.126,5.114-3.142c9.099,34.676,40.847,59.426,77.076,59.426c36.187,0,67.92-24.706,77.055-59.324
		c1.64,0.966,3.263,1.959,4.862,2.984v34.335c0,2.135,1.235,4.077,3.169,4.981c0.744,0.348,1.539,0.519,2.33,0.519
		c1.265,0,2.517-0.436,3.524-1.277l18.798-15.686c8.517,8.86,15.912,18.679,22.067,29.323
		c-37.975,28.042-83.726,43.198-131.81,43.198C185.384,455.971,139.615,440.804,101.631,412.74z M343.188,369.157l-16.781,14.003
		V208.489c0-3.038-2.381-5.5-5.418-5.5s-5.582,2.462-5.582,5.5v12.742c-26.941-7.553-54.449-11.34-82.049-11.34
		c-27.501,0-55.199,3.76-82.058,11.263v-12.666c0-3.038-2.274-5.5-5.312-5.5s-5.688,2.462-5.688,5.5V383.16l-16.78-14.003
		c-8.238-6.875-12.963-16.971-12.963-27.699V210.621c0-32.896,12.802-63.782,36.047-86.967
		c23.202-23.143,54.084-35.902,86.966-35.937c32.851,0.034,63.652,12.791,86.741,35.927c23.111,23.159,35.839,54.048,35.839,86.976
		v130.838C356.149,352.187,351.425,362.283,343.188,369.157z M315.406,347.689c-2.737-1.594-5.526-3.104-8.354-4.537
		c2.882-2.693,5.669-5.553,8.354-8.572V347.689z M315.406,316.988c-20.785,28.923-50.552,45.482-81.923,45.482
		c-31.523,0-61.385-16.698-82.184-45.862v-83.971c53.771-15.66,110.349-15.66,164.106-0.001V316.988z M151.3,334.276
		c2.745,3.107,5.597,6.048,8.549,8.812c-2.896,1.466-5.75,3.014-8.549,4.648V334.276z M168.997,350.857
		c19.054,14.628,41.332,22.614,64.486,22.614c23.11,0,45.368-7.965,64.412-22.554c0.885,0.415,1.765,0.84,2.642,1.272
		c-6.929,31.191-34.954,53.729-67.048,53.729c-32.131,0-60.168-22.579-67.063-53.823
		C167.281,351.675,168.136,351.26,168.997,350.857z M390.807,390.806c-5.359,5.359-10.946,10.406-16.734,15.142
		c-6.322-10.704-13.819-20.622-22.394-29.62c9.849-8.92,15.47-21.515,15.47-34.87V210.621c0-35.862-13.869-69.51-39.053-94.746
		c-25.121-25.174-58.611-39.072-94.331-39.157c-0.021,0-0.044,0-0.065,0h-0.261c-0.021,0-0.044,0-0.065,0
		c-35.742,0.084-69.306,13.979-94.539,39.148c-25.329,25.264-39.278,58.915-39.278,94.755v130.838
		c0,13.391,5.652,26.017,15.552,34.941c-8.516,8.966-15.968,18.847-22.256,29.513c-5.772-4.725-11.343-9.761-16.688-15.106
		C34.143,348.784,11,292.913,11,233.485c0-59.428,23.143-115.299,65.164-157.321C118.187,34.143,174.058,11,233.485,11
		s115.299,23.143,157.321,65.165c42.021,42.021,65.164,97.893,65.164,157.321C455.971,292.913,432.828,348.784,390.807,390.806z"/>
</g>
<g>
</g>
<g>
</g>
<g>
</g>
<g>
</g>
<g>
</g>
<g>
</g>
<g>
</g>
<g>
</g>
<g>
</g>
<g>
</g>
<g>
</g>
<g>
</g>
<g>
</g>
<g>
</g>
<g>
</g>
</svg>
