<?xml version="1.0" encoding="iso-8859-1"?>
<!-- Generator: Adobe Illustrator 18.0.0, SVG Export Plug-In . SVG Version: 6.00 Build 0)  -->
<!DOCTYPE svg PUBLIC "-//W3C//DTD SVG 1.1//EN" "http://www.w3.org/Graphics/SVG/1.1/DTD/svg11.dtd">
<svg version="1.1" id="Capa_1" xmlns="http://www.w3.org/2000/svg" xmlns:xlink="http://www.w3.org/1999/xlink" x="0px" y="0px"
	 viewBox="0 0 466.971 466.971" style="enable-background:new 0 0 466.971 466.971;" xml:space="preserve">
<g>
	<path d="M398.585,68.386C354.485,24.287,295.852,0,233.485,0s-121,24.287-165.099,68.386S0,171.119,0,233.486
		s24.287,121,68.386,165.099s102.733,68.386,165.099,68.386s121-24.287,165.1-68.386s68.386-102.733,68.386-165.099
		S442.685,112.486,398.585,68.386z M130.897,276.99c2.272,0.927,4.638,1.771,7.123,2.51c2.475,0.735,5.128-0.349,6.379-2.608
		c1.251-2.258,0.762-5.083-1.175-6.79c-9.298-8.194-13.885-22.228-13.96-34.58c3.619,5.299,8.742,8.313,14.931,8.656
		c1.567,0.08,3.107-0.504,4.216-1.624c1.108-1.121,1.682-2.662,1.577-4.234c-0.923-13.838,1.503-39.224,14.954-55.688
		c1.622,5.177,4.181,11.828,8.07,18.511c11.107,19.085,27.626,29.173,47.772,29.173c1.833,0,3.545-0.913,4.566-2.435
		c1.021-1.521,1.218-3.452,0.524-5.148c-6.521-15.939-10.894-28.248-8.75-41.133c10.548,11.766,26.971,26.731,46.929,33.673
		c1.915,0.666,4.043,0.224,5.535-1.151c1.491-1.375,2.104-3.46,1.596-5.424c-0.582-2.242-1.105-4.329-1.578-6.268
		c1.364,1.596,2.817,3.235,4.355,4.895c15.904,17.166,33.456,28.364,50.756,32.382c1.735,0.401,3.559-0.06,4.894-1.242
		c1.333-1.182,2.011-2.937,1.819-4.709c-0.482-4.443-0.259-8.588,0.226-12.075c4.697,8.823,5.552,19.418,1.966,29.086
		c-3.982,10.736-6.787,19.009-8.336,24.587c-0.589,2.12,0.142,4.386,1.858,5.763c0.997,0.8,2.215,1.209,3.442,1.209
		c0.884,0,1.772-0.213,2.586-0.646c0.194-0.104,0.378-0.212,0.57-0.316c-7.545,21.325-19.636,40.248-34.878,54.295
		c-19.031,17.539-41.68,26.81-65.499,26.81c-23.384,0-45.772-8.939-64.744-25.851C151.685,321.521,138.454,300.546,130.897,276.99z
		 M145.284,327.745c-3.278,2.753-8.121,6.22-13.765,8.357c2.768-6.996,4.17-14.337,4.784-21.163
		C139.08,319.401,142.077,323.675,145.284,327.745z M102.233,251.32c0.174,0.352,0.344,0.705,0.527,1.055
		c3.274,6.275,7.726,11.627,13.29,16.054c-2.437-0.57-4.752-1.637-6.802-3.199c-3.823-2.913-6.281-7.139-6.923-11.901
		C102.237,252.673,102.208,252.001,102.233,251.32z M123.188,260.046c-4.5-3.522-8.058-7.763-10.645-12.699
		c-10.226-19.517-2.396-44.003-2.319-44.239c0.837-2.527-0.255-5.291-2.593-6.562c-1.415-0.77-3.04-0.858-4.471-0.35
		c-0.236-0.072-0.564-0.19-0.997-0.381c3.931-3.677,6.83-7.805,8.786-11.117c2.116-3.581,3.749-7.613,4.991-12.325
		c3.906-14.815,14.763-30.258,20.887-38.145c3.953-5.09,5.038-11.759,2.904-17.838c-1.031-2.938-2.735-5.513-4.929-7.559
		c26.74-16.675,75.25-19.345,75.782-19.372c1.912-0.098,3.637-1.183,4.552-2.865c1.118-2.055,3.164-8.263-6.186-16.557
		c32.393-2.578,55.994,20.5,56.252,20.757c1.461,1.468,3.66,1.979,5.63,1.341c0.053-0.017,5.343-1.69,14.573-1.287
		c6.526,0.285,16.098,1.682,27.866,6.216c-3.427,2.034-6.338,4.695-7.104,8.05c-0.71,3.107,0.436,6.182,3.144,8.436
		c1.023,0.852,2.593,1.815,5.193,3.413c14.784,9.081,52.686,32.363,52.168,71.439c-0.407,0.015-0.791,0.054-1.147,0.109
		c-5.511,0.848-8.383,5.868-8.903,6.866c-0.683,1.311-0.809,2.841-0.351,4.246c0.04,0.122,3.956,12.367,2.397,27.545
		c-1.51,14.698-7.493,26.742-17.833,35.965c0.933-2.63,1.968-5.478,3.102-8.537c6.352-17.126,2.061-36.476-10.932-49.296
		c-1.039-1.025-2.431-1.585-3.863-1.585c-0.356,0-0.716,0.035-1.073,0.105c-1.789,0.356-3.285,1.575-3.994,3.255
		c-0.175,0.415-3.554,8.565-3.888,19.842c-33.039-11.882-55.409-49.546-55.644-49.949c-1.253-2.146-3.79-3.187-6.186-2.538
		c-2.398,0.649-4.064,2.825-4.064,5.31c0,0.645,0.12,5.887,3.571,20.853c-10.248-5.361-24.27-15.351-38.832-33.796
		c-1.212-1.535-3.148-2.311-5.084-2.038s-3.583,1.554-4.323,3.364c-7.567,18.498-3.094,35.282,2.721,50.421
		c-12.227-2.333-22.184-9.931-29.674-22.671c-7.172-12.199-9.319-24.706-9.339-24.823c-0.317-1.933-1.638-3.551-3.467-4.249
		c-1.829-0.698-3.892-0.371-5.417,0.86c-10.725,8.663-18.25,21.545-22.365,38.291c-2.285,9.298-3.03,17.872-3.204,24.104
		c-4.37-5.319-4.483-15.512-4.484-15.64c0-2.448-1.618-4.602-3.969-5.283c-2.35-0.68-4.869,0.273-6.179,2.342
		C116.892,223.102,116.185,243.253,123.188,260.046z M365.379,253.33c-1.053,7.804-6.997,13.754-14.321,15.22
		c6.75-6.813,11.189-14.254,14.055-21.523C365.563,249.063,365.668,251.191,365.379,253.33z M335.398,336.08
		c-5.969-2.255-11.062-5.946-14.237-8.592c3.265-4.221,6.321-8.673,9.15-13.323C330.971,321.093,332.445,328.747,335.398,336.08z
		 M168.763,350.979c19.351,14.744,41.505,22.491,64.605,22.491c23.154,0,45.245-7.774,64.486-22.583
		c3.231,1.512,6.401,3.143,9.51,4.876c-20.216,22.823-46.215,35.313-73.834,35.313c-27.68,0-53.737-12.498-73.99-35.334
		C162.559,354.059,165.627,352.455,168.763,350.979z M156.281,344.961c0.438-1.329,0.801-2.59,1.1-3.779
		c0.721,0.698,1.464,1.371,2.2,2.052C158.475,343.798,157.374,344.373,156.281,344.961z M306.986,343.11
		c0.803-0.751,1.597-1.514,2.383-2.29c0.336,1.314,0.751,2.712,1.257,4.189C309.422,344.361,308.208,343.729,306.986,343.11z
		 M238.985,401.928c29.385-1.563,56.726-15.726,77.92-40.378c19.799,13.027,36.496,30.608,48.422,51.2
		c-36.53,26.986-80.26,42.044-126.342,43.154V401.928z M227.985,401.924v53.98c-46.088-1.111-89.824-16.173-126.358-43.167
		c11.909-20.611,28.599-38.179,48.377-51.201C171.214,386.174,198.577,400.341,227.985,401.924z M390.807,390.806
		c-5.359,5.359-10.945,10.406-16.733,15.142c-11.597-19.6-27.232-36.607-45.656-49.829c-3.913-6-6.227-11.121-7.578-15.237
		c6.446,4.163,15.149,8.195,24.703,8.195c2.038,0,3.908-1.126,4.861-2.927c0.953-1.801,0.833-3.981-0.313-5.666
		c-11.058-16.263-9.806-40.747-8.39-48.809c0.02-0.113,0.017-0.227,0.03-0.341c1.508-3.752,2.874-7.585,4.109-11.478
		c0.578,0.035,1.155,0.058,1.729,0.058c14.279,0,26.752-10.584,28.712-25.114c1.146-8.488-1.482-16.885-7.091-23.162
		c0.169-1.14,0.31-2.258,0.422-3.348c1.251-12.185-0.55-22.69-1.821-28.132c1.481,1.436,3.645,1.924,5.604,1.257
		c1.984-0.677,3.412-2.423,3.68-4.502c6.507-50.434-41.151-79.706-56.812-89.326c-0.508-0.312-1.036-0.636-1.538-0.947
		c2.348-1.354,6.214-2.967,10.018-3.918c2.224-0.556,3.869-2.433,4.13-4.709c0.261-2.277-0.917-4.477-2.957-5.521
		c-29.756-15.241-51.311-13.219-59.259-11.625c-8.451-7.401-38.534-30.213-77.39-19.109c-2.146,0.613-3.709,2.463-3.956,4.682
		c-0.247,2.218,0.873,4.366,2.833,5.435c5.381,2.935,8.529,5.369,10.367,7.175c-17.299,1.637-59.805,7.47-81.551,26.317
		c-1.57,1.361-2.24,3.491-1.73,5.506s2.112,3.57,4.141,4.02l0.385,0.089c2.653,0.636,4.693,2.477,5.597,5.05
		c0.904,2.576,0.462,5.291-1.213,7.449c-6.638,8.548-18.431,25.383-22.835,42.087c-0.98,3.719-2.231,6.837-3.825,9.534
		c-2.292,3.881-6.187,9.171-11.72,12.333c-1.608,0.919-2.646,2.585-2.76,4.434c-0.115,1.849,0.708,3.631,2.189,4.742
		c3.508,2.632,6.463,4.352,8.95,5.392c-1.365,6.445-2.816,17.045-1.091,28.442c-3.728,5.519-6.626,12.929-5.622,20.356
		c1.959,14.532,14.432,25.116,28.712,25.115c0.055,0,0.11-0.005,0.165-0.006c1.356,4.278,2.859,8.469,4.53,12.549
		c0.001,0.007,0,0.014,0.001,0.021c1.223,9.118,2.896,32.048-7.952,48.006c-1.146,1.685-1.266,3.865-0.313,5.666
		s2.824,2.927,4.861,2.927c9.538,0,18.161-4.003,24.612-8.233c-1.281,4.115-3.5,9.171-7.333,15.076
		c-18.503,13.243-34.201,30.316-45.829,50.014c-5.781-4.732-11.362-9.774-16.715-15.127C34.143,348.784,11,292.914,11,233.486
		c0-59.428,23.143-115.299,65.165-157.321S174.058,11,233.485,11c59.428,0,115.299,23.143,157.321,65.165
		s65.165,97.893,65.165,157.321C455.971,292.914,432.829,348.784,390.807,390.806z"/>
	<path d="M211.657,328.586c5.932,4.727,13.682,7.33,21.823,7.33c8.148,0,15.902-2.603,21.834-7.33
		c2.375-1.893,2.767-5.353,0.874-7.729c-1.894-2.376-5.355-2.767-7.729-0.874c-3.991,3.181-9.311,4.932-14.979,4.932
		c-5.661,0-10.976-1.751-14.967-4.932c-2.377-1.894-5.836-1.502-7.729,0.874C208.891,323.233,209.282,326.693,211.657,328.586z"/>
	<path d="M175.126,264.422c-0.602,2.26-0.489,4.727,0.503,7.043c2.355,5.499,8.722,8.047,14.221,5.692
		c5.499-2.355,8.047-8.722,5.692-14.221c-0.638-1.49-1.578-2.755-2.709-3.773c-5.346-5.734-13.626-7.827-21.118-5.194
		c-2.923,1.028-6.223,0.437-8.608-1.542c-2.338-1.941-5.806-1.617-7.745,0.721c-1.939,2.338-1.617,5.805,0.721,7.745
		C161.361,265.274,168.635,266.611,175.126,264.422z"/>
	<path d="M277.122,277.158c5.499,2.355,11.865-0.194,14.221-5.692c0.992-2.316,1.105-4.784,0.503-7.043
		c6.491,2.189,13.765,0.851,19.044-3.528c2.338-1.939,2.661-5.407,0.721-7.745s-5.407-2.662-7.745-0.721
		c-2.385,1.979-5.684,2.57-8.608,1.542c-7.493-2.633-15.775-0.54-21.121,5.196c-1.129,1.018-2.068,2.281-2.706,3.771
		C269.075,268.436,271.623,274.802,277.122,277.158z"/>
</g>
<g>
</g>
<g>
</g>
<g>
</g>
<g>
</g>
<g>
</g>
<g>
</g>
<g>
</g>
<g>
</g>
<g>
</g>
<g>
</g>
<g>
</g>
<g>
</g>
<g>
</g>
<g>
</g>
<g>
</g>
</svg>
