<?xml version="1.0" encoding="iso-8859-1"?>
<!-- Generator: Adobe Illustrator 18.0.0, SVG Export Plug-In . SVG Version: 6.00 Build 0)  -->
<!DOCTYPE svg PUBLIC "-//W3C//DTD SVG 1.1//EN" "http://www.w3.org/Graphics/SVG/1.1/DTD/svg11.dtd">
<svg version="1.1" id="Capa_1" xmlns="http://www.w3.org/2000/svg" xmlns:xlink="http://www.w3.org/1999/xlink" x="0px" y="0px"
	 viewBox="0 0 466.971 466.971" style="enable-background:new 0 0 466.971 466.971;" xml:space="preserve">
<g>
	<path d="M398.584,68.386C354.486,24.287,295.852,0,233.485,0c-62.366,0-121,24.287-165.099,68.386S0,171.119,0,233.486
		s24.287,121,68.386,165.099s102.733,68.386,165.099,68.386c62.367,0,121-24.287,165.1-68.386
		c44.099-44.1,68.386-102.733,68.386-165.099S442.684,112.486,398.584,68.386z M101.619,412.731
		c12.138-21.01,29.228-38.878,49.509-51.971c10.216,18.773,23.963,34.564,40.04,45.889c18.289,12.882,39.216,19.692,60.52,19.692
		c33.573,0,65.36-16.818,88.091-46.356c9.924,9.686,18.544,20.716,25.528,32.779c-37.977,28.048-83.733,43.206-131.822,43.206
		C185.378,455.971,139.605,440.801,101.619,412.731z M113.299,234.303c0.364,11.798,1.889,23.345,4.51,34.448
		c-3.082-0.4-6.024-1.583-8.563-3.518c-3.822-2.913-6.281-7.139-6.924-11.902c-0.644-4.762,0.606-9.489,3.519-13.312
		C107.805,237.441,110.377,235.501,113.299,234.303z M124.477,219.489h7.012c3.038,0,5.5-2.462,5.5-5.5s-2.462-5.5-5.5-5.5h-5.931
		c0.516-3.763,1.171-7.434,1.98-11h8.951c3.038,0,5.5-2.462,5.5-5.5s-2.462-5.5-5.5-5.5h-5.878c1.506-4.522,3.26-8.865,5.283-13
		h15.594c3.038,0,5.5-2.462,5.5-5.5s-2.462-5.5-5.5-5.5h-9.292c2.581-3.892,5.438-7.557,8.55-11h16.742c3.038,0,5.5-2.462,5.5-5.5
		s-2.462-5.5-5.5-5.5h-4.915c6.269-4.9,13.268-9.114,20.966-12.601c-0.67,14.297,7.662,27.688,21.358,33.225l26.526,10.724
		c0.661,0.267,1.361,0.401,2.062,0.401s1.4-0.134,2.061-0.401l26.527-10.724c13.928-5.631,22.304-19.387,21.31-33.956
		c8.147,3.631,15.507,8.095,22.054,13.333h-5.949c-3.037,0-5.5,2.462-5.5,5.5s2.463,5.5,5.5,5.5h17.508
		c3.042,3.444,5.836,7.108,8.356,11h-9.864c-3.037,0-5.5,2.462-5.5,5.5s2.463,5.5,5.5,5.5h15.997c1.975,4.137,3.694,8.475,5.161,13
		h-6.158c-3.037,0-5.5,2.462-5.5,5.5s2.463,5.5,5.5,5.5h9.137c0.785,3.568,1.428,7.235,1.925,11h-6.062c-3.037,0-5.5,2.462-5.5,5.5
		s2.463,5.5,5.5,5.5h7.086c0.161,2.915,0.252,5.875,0.252,8.891c0,74.017-49.041,134.234-109.321,134.234
		c-60.269,0-109.301-60.047-109.301-133.855C124.205,225.613,124.298,222.525,124.477,219.489z M233.485,128.989
		c3.037,0,5.5-2.462,5.5-5.5v-36.13c4.015,4.338,9.1,7.647,14.875,9.542c7.909,2.595,13.955,9.252,15.779,17.375l2.255,10.042
		c2.499,11.134-3.365,22.319-13.944,26.596l-24.465,9.89l-24.465-9.89c-10.579-4.276-16.443-15.461-13.944-26.596l2.254-10.042
		c1.824-8.123,7.871-14.781,15.78-17.375c5.775-1.895,10.86-5.203,14.875-9.541v36.129
		C227.985,126.527,230.448,128.989,233.485,128.989z M353.729,234.035c3.203,1.164,6.016,3.209,8.131,5.985
		c2.912,3.822,4.162,8.55,3.52,13.312c-0.644,4.763-3.103,8.989-6.925,11.902c-2.75,2.096-5.972,3.315-9.334,3.603
		C351.795,257.62,353.354,245.954,353.729,234.035z M233.506,373.614c23.263,0,45.488-7.88,64.596-22.596
		c12.087,5.688,23.351,12.962,33.505,21.543c-20.672,27.248-49.549,42.78-79.919,42.78c-19.023,0-37.76-6.115-54.185-17.685
		c-14.807-10.43-27.49-25.07-36.922-42.532c2.673-1.462,5.393-2.842,8.155-4.141C187.874,365.719,210.162,373.614,233.506,373.614z
		 M390.807,390.806c-5.359,5.359-10.947,10.407-16.735,15.144c-15.819-26.742-39.182-48.64-66.849-62.71
		c4.091-3.84,8.007-8.016,11.718-12.53c12.086-14.702,21.25-31.997,27.148-50.843c0.508,0.026,1.016,0.051,1.522,0.051
		c0.966,0,1.924-0.065,2.878-0.16v9.73c0,3.038,2.463,5.5,5.5,5.5s5.5-2.462,5.5-5.5v-13.156c1.255-0.692,2.473-1.468,3.633-2.352
		c6.159-4.693,10.122-11.504,11.158-19.178c1.037-7.674-0.978-15.292-5.671-21.451c-4.219-5.536-10.151-9.29-16.88-10.747
		c-0.881-26.921-7.966-50.093-21.106-68.943c-12.355-17.726-30.196-31.29-51.712-39.398l-0.538-2.398
		c-2.668-11.883-11.513-21.623-23.083-25.418c-6.873-2.255-12.339-7.406-14.996-14.132l-3.693-9.344
		c-0.829-2.1-2.857-3.479-5.115-3.479c-2.258,0-4.286,1.379-5.115,3.479l-3.692,9.344c-2.658,6.726-8.124,11.877-14.996,14.132
		c-11.571,3.795-20.417,13.535-23.084,25.418l-0.7,3.12c-21.711,8.32-39.021,21.509-51.466,39.263
		c-13.113,18.708-20.201,41.732-21.118,68.5c-6.459,1.554-12.142,5.247-16.224,10.603c-4.693,6.159-6.708,13.777-5.671,21.451
		s5,14.485,11.159,19.178c5.102,3.888,11.204,5.938,17.511,5.937c0.253,0,0.508-0.019,0.762-0.026
		c5.894,18.93,15.089,36.287,27.239,51.014c3.651,4.425,7.501,8.527,11.522,12.302c-27.631,14.054-50.961,35.95-66.757,62.706
		c-5.773-4.726-11.345-9.762-16.69-15.108C34.143,348.784,11,292.913,11,233.486c0-59.428,23.143-115.299,65.165-157.321
		S174.058,11,233.485,11c59.428,0,115.299,23.143,157.322,65.165c42.021,42.021,65.164,97.893,65.164,157.321
		C455.971,292.913,432.829,348.784,390.807,390.806z"/>
	<path d="M233.481,333.621c8.56,0,16.471-2.355,21.164-6.301c2.324-1.955,2.624-5.424,0.67-7.749
		c-1.957-2.325-5.425-2.626-7.75-0.67c-2.041,1.716-6.954,3.72-14.083,3.72c-7.124,0-12.034-2.004-14.074-3.72
		c-2.327-1.957-5.794-1.656-7.75,0.668c-1.956,2.325-1.656,5.794,0.668,7.75C217.017,331.265,224.926,333.621,233.481,333.621z"/>
	<g>
		<path d="M168.446,253.624c-1.547,5.778,1.884,11.717,7.662,13.263c5.778,1.547,11.717-1.884,13.263-7.662
			c0.153-0.573,0.244-1.146,0.302-1.718l5.687,1.08c0.347,0.066,0.692,0.098,1.032,0.098c2.589,0,4.896-1.837,5.397-4.475
			c0.567-2.984-1.394-5.863-4.377-6.429l-34.585-6.565c-2.984-0.568-5.863,1.393-6.429,4.377c-0.567,2.984,1.394,5.863,4.377,6.429
			l7.714,1.464C168.477,253.533,168.458,253.577,168.446,253.624z"/>
		<path d="M270.579,258.685c0.34,0,0.686-0.032,1.031-0.098l5.551-1.054c0.731,5.271,5.243,9.333,10.716,9.333
			c5.982,0,10.831-4.849,10.831-10.831c0-0.874-0.115-1.719-0.31-2.533l7.797-1.48c2.984-0.566,4.944-3.445,4.378-6.429
			c-0.566-2.984-3.448-4.945-6.429-4.377l-34.585,6.565c-2.984,0.566-4.944,3.445-4.378,6.429
			C265.682,256.847,267.989,258.685,270.579,258.685z"/>
	</g>
</g>
<g>
</g>
<g>
</g>
<g>
</g>
<g>
</g>
<g>
</g>
<g>
</g>
<g>
</g>
<g>
</g>
<g>
</g>
<g>
</g>
<g>
</g>
<g>
</g>
<g>
</g>
<g>
</g>
<g>
</g>
</svg>
