<?xml version="1.0" encoding="iso-8859-1"?>
<!-- Generator: Adobe Illustrator 18.0.0, SVG Export Plug-In . SVG Version: 6.00 Build 0)  -->
<!DOCTYPE svg PUBLIC "-//W3C//DTD SVG 1.1//EN" "http://www.w3.org/Graphics/SVG/1.1/DTD/svg11.dtd">
<svg version="1.1" id="Capa_1" xmlns="http://www.w3.org/2000/svg" xmlns:xlink="http://www.w3.org/1999/xlink" x="0px" y="0px"
	 viewBox="0 0 466.971 466.971" style="enable-background:new 0 0 466.971 466.971;" xml:space="preserve">
<g>
	<path d="M255.357,307.826c-5.894,5.659-13.665,8.775-21.88,8.775c-8.205,0-15.97-3.116-21.865-8.775
		c-2.19-2.103-5.673-2.032-7.776,0.159s-2.032,5.673,0.159,7.776c7.954,7.635,18.424,11.839,29.482,11.839
		c11.069,0,21.545-4.205,29.498-11.839c2.191-2.104,2.262-5.585,0.159-7.777C261.031,305.794,257.549,305.723,255.357,307.826z"/>
	<path d="M306.846,239.11c-8.367-3.631-18.158-2.572-25.556,2.765c-0.677,0.488-1.194,1.108-1.574,1.792
		c-0.66,0.785-1.223,1.673-1.652,2.662c-2.382,5.487,0.136,11.866,5.623,14.248s11.866-0.136,14.248-5.623
		c0.977-2.251,1.118-4.649,0.579-6.863c1.338,0.187,2.666,0.552,3.952,1.11c1.704,0.739,3.232,1.765,4.541,3.049
		c1.071,1.05,2.461,1.573,3.851,1.573c1.426,0,2.851-0.551,3.927-1.649c2.127-2.169,2.093-5.651-0.076-7.778
		C312.435,242.166,309.789,240.387,306.846,239.11z"/>
	<path d="M398.585,68.386C354.485,24.287,295.852,0,233.485,0s-121,24.287-165.099,68.386S0,171.119,0,233.486
		s24.287,121,68.386,165.099s102.733,68.386,165.099,68.386s121-24.287,165.1-68.386c44.1-44.1,68.386-102.733,68.386-165.099
		S442.685,112.486,398.585,68.386z M62.82,376.225c9.443-14.884,17.654-30.657,24.399-46.963
		c15.398-37.218,23.25-76.493,23.338-116.733c0.072-33.194,12.802-64.488,35.845-88.119c23.142-23.732,53.993-36.877,86.87-37.013
		c17.114-0.088,33.554,3.257,48.958,9.895c10.228,4.406,22.319,19.603,27.407,28.54c1.025,1.801,3.483,8.158,3.483,8.158
		l14.226,38.967c-2.247-0.86-4.763-1.764-7.553-2.674c-26.792-8.733-55.515-6.711-80.878,5.693
		c-25.397,12.42-44.577,33.866-54.007,60.387c-15.898,44.714-41.407,84.417-71.827,111.795c-2.258,2.032-2.441,5.509-0.409,7.767
		c1.086,1.207,2.584,1.821,4.09,1.821c1.311,0,2.626-0.466,3.677-1.412c9.167-8.25,17.898-17.565,26.084-27.751
		c4.164,5.263,8.627,10.098,13.335,14.501c-27.738,14.049-51.16,35.995-67.003,62.83c-5.773-4.726-11.345-9.762-16.69-15.108
		C71.475,386.117,67.034,381.245,62.82,376.225z M355.711,223.1c-0.667-0.194-1.346-0.358-2.031-0.505
		c-0.03-0.335-11.443-40.882-11.443-40.882c-0.038-0.133-16.701-45.792-16.701-45.792c5.471,2.149,10.089,6.134,13.394,11.669
		c10.833,18.153,16.56,39.948,16.56,63.028C355.489,210.617,355.687,221.768,355.711,223.1z M332.308,187.028l10.415,36.883
		c0.037,1.376,0.06,2.777,0.06,4.183c0,74.096-49.031,134.377-109.299,134.377c-30.388,0-59.352-15.588-80.022-42.905
		c17.103-23.234,31.446-50.366,41.811-79.518c8.461-23.796,25.676-43.042,48.475-54.191c22.782-11.141,48.578-12.958,72.637-5.116
		C324.023,183.23,329.549,185.7,332.308,187.028z M233.483,373.471c23.646,0,45.717-8.292,64.336-22.59
		c17.429,8.154,33.159,19.605,46.316,33.527c-19.296,27.847-50.648,44.352-84.707,44.352c-45.849,0-85.888-30.085-98.796-73.665
		c2.742-1.499,5.533-2.913,8.368-4.24C188.071,365.483,210.372,373.471,233.483,373.471z M306.968,343.112
		c17.361-16.236,30.958-38.073,38.925-63.251c0.574,0.034,1.147,0.058,1.718,0.058c0.485,0,0.966-0.035,1.448-0.059
		c-5.914,25.033-15.032,49.13-27.197,71.809C317.057,348.561,312.086,345.703,306.968,343.112z M358.455,265.233
		c-2.792,2.129-6.073,3.358-9.492,3.621c2.693-11.124,4.31-22.795,4.712-34.84c3.226,1.161,6.058,3.215,8.186,6.006
		c2.913,3.822,4.163,8.55,3.519,13.312C364.736,258.094,362.277,262.32,358.455,265.233z M101.619,412.731
		c12.099-20.943,29.118-38.763,49.314-51.845c15.109,46.79,58.697,78.874,108.496,78.874c36.778,0,70.711-17.382,92.172-46.851
		c5.075,6.231,9.663,12.871,13.707,19.855c-37.977,28.048-83.733,43.207-131.822,43.207
		C185.378,455.971,139.605,440.801,101.619,412.731z M390.807,390.806c-5.359,5.359-10.947,10.407-16.735,15.144
		c-11.059-18.696-25.802-35.024-43.125-47.965c13.867-25.598,23.988-52.951,30.133-81.416c1.403-0.744,2.755-1.606,4.042-2.587
		c6.159-4.693,10.122-11.504,11.159-19.178s-0.978-15.292-5.671-21.451c-1.176-1.543-2.485-2.949-3.908-4.205
		c0.097-3.517,0.004-6.998-0.087-10.392c-0.062-2.302-0.125-4.683-0.125-6.994v-1.145c0-25.064-6.264-48.796-18.114-68.655
		c-6.184-10.354-16.16-17.001-27.607-18.517c-5.105-10.382-19.708-29.973-34.184-36.21c-16.625-7.163-34.376-10.746-52.771-10.746
		c-0.195,0-0.391,0-0.586,0c-35.85,0-69.481,14.426-94.7,40.287c-25.051,25.69-38.891,59.657-38.969,95.728
		c-0.085,38.799-7.656,76.667-22.502,112.553c-6.018,14.547-13.238,28.657-21.494,42.052C26.651,328.78,11,282.338,11,233.486
		c0-59.428,23.143-115.299,65.165-157.321S174.058,11,233.485,11c59.428,0,115.299,23.143,157.321,65.165
		s65.165,97.893,65.165,157.321C455.971,292.913,432.829,348.784,390.807,390.806z"/>
</g>
<g>
</g>
<g>
</g>
<g>
</g>
<g>
</g>
<g>
</g>
<g>
</g>
<g>
</g>
<g>
</g>
<g>
</g>
<g>
</g>
<g>
</g>
<g>
</g>
<g>
</g>
<g>
</g>
<g>
</g>
</svg>
