<?xml version="1.0" encoding="iso-8859-1"?>
<!-- Generator: Adobe Illustrator 18.0.0, SVG Export Plug-In . SVG Version: 6.00 Build 0)  -->
<!DOCTYPE svg PUBLIC "-//W3C//DTD SVG 1.1//EN" "http://www.w3.org/Graphics/SVG/1.1/DTD/svg11.dtd">
<svg version="1.1" id="Capa_1" xmlns="http://www.w3.org/2000/svg" xmlns:xlink="http://www.w3.org/1999/xlink" x="0px" y="0px"
	 viewBox="0 0 466.971 466.971" style="enable-background:new 0 0 466.971 466.971;" xml:space="preserve">
<g>
	<path d="M233.481,330.925c6.747,0,13.132-2.563,17.982-7.219c2.191-2.104,2.263-5.585,0.159-7.776
		c-2.104-2.191-5.584-2.263-7.776-0.159c-2.791,2.679-6.472,4.154-10.365,4.154c-3.888,0-7.565-1.475-10.355-4.154
		c-2.191-2.102-5.672-2.033-7.777,0.159c-2.104,2.191-2.032,5.673,0.159,7.777C220.357,328.361,226.74,330.925,233.481,330.925z"/>
	<path d="M151.151,248.533c-1.714,2.507-1.071,5.93,1.437,7.644c0.949,0.649,2.029,0.96,3.099,0.96c1.755,0,3.48-0.838,4.545-2.397
		c1.034-1.512,2.333-2.815,3.862-3.872c1.153-0.797,2.385-1.414,3.661-1.856c-0.099,2.276,0.505,4.601,1.901,6.619
		c3.402,4.92,10.148,6.151,15.069,2.75c4.92-3.402,6.151-10.148,2.749-15.069c-0.6-0.868-1.309-1.615-2.089-2.248
		c-0.512-0.619-1.162-1.138-1.941-1.495c-8.293-3.798-18.105-2.935-25.606,2.251C155.197,243.646,152.947,245.905,151.151,248.533z"
		/>
	<path d="M398.584,68.386C354.486,24.287,295.852,0,233.485,0c-62.366,0-121,24.287-165.099,68.386S0,171.119,0,233.486
		s24.287,121,68.386,165.099s102.733,68.386,165.099,68.386c62.367,0,121-24.287,165.1-68.386
		c44.099-44.1,68.386-102.733,68.386-165.099S442.684,112.486,398.584,68.386z M88.451,341.306c0.02-0.042,0.039-0.083,0.058-0.125
		l7.439-16.438c5.003-10.392,7.54-22.238,7.54-35.207v-89.755c0-34.426,13.437-66.994,37.836-91.357
		c24.377-24.341,56.75-37.936,91.163-37.936c0.025,0,0.051,0,0.076,0c71.089,0,128.925,58.814,128.925,130.541v88.429
		c0,11.72,2.943,23.969,8.532,35.465l8.048,16.209c9.402,19.374,9.367,42.293-0.042,61.5c-0.642,0.55-1.291,1.09-1.938,1.633
		c-15.837-28.385-39.906-51.516-68.848-66.219c6.779-6.364,13.04-13.654,18.664-21.808c5.47,2.361,11.16,4.556,17.09,6.547
		c0.571,0.192,1.163,0.286,1.751,0.286c1.138,0,2.264-0.353,3.211-1.035c1.438-1.033,2.289-2.695,2.289-4.465
		c0-9.407,0.349-25.22,1.037-47.005c0.632-20.425,1.355-39.522,1.638-46.785c0.117-3.036-2.248-5.591-5.283-5.709
		c-3.022-0.116-5.591,2.248-5.709,5.283c-0.282,7.276-1.007,26.408-1.64,46.868c-0.529,16.747-0.859,30.003-0.985,39.573
		c-53.956-20.338-86.402-58.202-104.314-86.995c-20.394-32.78-26.979-61.32-27.042-61.6c-0.664-2.964-3.602-4.826-6.569-4.166
		c-2.964,0.664-4.829,3.604-4.166,6.569c0.274,1.223,6.949,30.341,28.215,64.652c2.864,4.621,6.094,9.467,9.694,14.432
		c-65.794-14.171-103.086-72.13-103.477-72.748c-1.305-2.074-3.825-3.035-6.18-2.356c-2.354,0.679-3.976,2.834-3.976,5.285v150.621
		c0,3.038,2.462,5.5,5.5,5.5s5.5-2.462,5.5-5.5v-21.702c7.431,13.979,16.688,26.152,27.308,36.125
		c-29,14.689-53.111,37.861-68.955,66.319c-0.803-0.673-1.61-1.34-2.404-2.025C79.105,382.836,79.084,360.702,88.451,341.306z
		 M315.758,311.545c-20.769,29.202-50.433,45.829-82.214,45.829c-43.516,0-83.568-32.541-101.056-81.584v-86.354
		c5.32,6.443,12.703,14.544,22.085,22.905c18.973,16.906,49.987,37.974,90.569,43.212
		C261.918,275.617,284.915,296.279,315.758,311.545z M233.544,368.374c23.334,0,45.578-7.942,64.576-22.552
		c3.7,1.74,7.319,3.628,10.851,5.652c-20.379,23.98-46.952,37.107-75.427,37.107c-28.449,0-55.024-13.187-75.43-37.277
		c3.526-2.013,7.136-3.894,10.828-5.624C187.813,360.206,210.07,368.374,233.544,368.374z M99.576,411.191
		c11.783-21.779,28.715-40.332,49.107-54.04c22.424,27.025,53.09,42.429,84.862,42.429c31.792,0,62.451-15.337,84.849-42.243
		c20.319,13.696,37.198,32.191,48.961,53.885c-38.376,29.029-84.911,44.748-133.869,44.748
		C184.51,455.971,137.959,440.24,99.576,411.191z M394.728,386.787c3.127-16.908,0.878-34.711-6.785-50.501l-8.05-16.213
		c-4.844-9.964-7.404-20.551-7.404-30.614V201.03c0-77.789-62.768-141.541-139.918-141.541c-0.03,0-0.054,0-0.083,0
		c-37.345,0-72.481,14.739-98.935,41.152c-26.48,26.441-41.063,61.774-41.063,99.141v89.755c0,11.327-2.179,21.585-6.477,30.49
		c-0.02,0.041-0.039,0.082-0.058,0.123l-7.438,16.435c-7.579,15.725-9.835,33.005-6.789,49.647
		C32.521,344.771,11,290.784,11,233.486c0-59.428,23.143-115.299,65.165-157.321S174.058,11,233.485,11
		c59.428,0,115.299,23.143,157.322,65.165c42.021,42.021,65.164,97.893,65.164,157.321
		C455.971,291.038,434.265,345.255,394.728,386.787z"/>
</g>
<g>
</g>
<g>
</g>
<g>
</g>
<g>
</g>
<g>
</g>
<g>
</g>
<g>
</g>
<g>
</g>
<g>
</g>
<g>
</g>
<g>
</g>
<g>
</g>
<g>
</g>
<g>
</g>
<g>
</g>
</svg>
