<?xml version="1.0" encoding="iso-8859-1"?>
<!-- Generator: Adobe Illustrator 18.0.0, SVG Export Plug-In . SVG Version: 6.00 Build 0)  -->
<!DOCTYPE svg PUBLIC "-//W3C//DTD SVG 1.1//EN" "http://www.w3.org/Graphics/SVG/1.1/DTD/svg11.dtd">
<svg version="1.1" id="Capa_1" xmlns="http://www.w3.org/2000/svg" xmlns:xlink="http://www.w3.org/1999/xlink" x="0px" y="0px"
	 viewBox="0 0 466.972 466.972" style="enable-background:new 0 0 466.972 466.972;" xml:space="preserve">
<g>
	<path d="M398.585,68.387C354.486,24.287,295.852,0,233.486,0s-121,24.287-165.1,68.387C24.288,112.486,0,171.119,0,233.485
		s24.287,121,68.386,165.1c44.1,44.1,102.733,68.387,165.1,68.387s121-24.287,165.1-68.387c44.099-44.1,68.386-102.733,68.386-165.1
		S442.684,112.486,398.585,68.387z M101.634,412.742c15.567-26.952,39.28-48.74,67.425-61.904
		c18.64,14.324,40.744,22.634,64.427,22.634c23.656,0,45.737-8.291,64.364-22.586c28.157,13.182,51.888,34.957,67.472,61.868
		c-37.98,28.055-83.742,43.217-131.836,43.217C185.385,455.972,139.617,440.805,101.634,412.742z M176.005,130.197
		c4.88,1.21,9.492,3.236,13.731,6.043c13.011,8.623,28.139,13.181,43.746,13.181c15.606,0,30.733-4.558,43.746-13.181
		c4.239-2.809,8.853-4.833,13.737-6.043c7.29,3.975,13.974,8.796,19.96,14.439c18.25,17.201,28.979,41.418,31.391,70.568
		c-4.168-0.394-8.147,1.375-10.831,4.904c-7.81,10.268-17.164,19.225-27.805,26.625c-10.675,7.421-25.428,5.476-34.332-4.521
		c-9.193-10.326-22.382-16.248-36.197-16.248c-13.814,0-26.992,5.923-36.176,16.25c-8.895,9.996-23.575,11.949-34.184,4.538
		c-10.467-7.31-19.674-16.186-27.472-26.382c-2.634-3.444-6.587-5.175-10.692-4.815c2.355-29.306,13.094-53.649,31.417-70.918
		C162.032,138.993,168.715,134.172,176.005,130.197z M190.182,123.813c13.073-4.757,27.629-7.203,43.304-7.203
		c15.673,0,30.228,2.446,43.3,7.202c-1.928,0.975-3.812,2.052-5.633,3.259c-11.205,7.426-24.231,11.351-37.67,11.351
		c-13.439,0-26.466-3.925-37.671-11.351C193.991,125.864,192.109,124.787,190.182,123.813z M124.647,227.178
		c0.156-0.281,0.341-0.513,0.544-0.582c0.605-0.205,0.892-0.051,1.278,0.452c8.487,11.098,18.57,20.76,29.966,28.72
		c6.233,4.353,13.436,6.467,20.636,6.466c10.342,0,20.669-4.361,28.098-12.713c7.099-7.981,17.285-12.559,27.958-12.559
		c10.676,0,20.862,4.578,27.968,12.561c12.604,14.155,33.573,16.839,48.817,6.238c11.586-8.058,21.724-17.813,30.23-28.997
		c0.432-0.569,0.885-0.743,1.559-0.516c0.275,0.092,0.518,0.497,0.708,0.937c0.301,0.698,0.429,1.461,0.423,2.221
		c-0.575,73.493-49.404,133.064-109.345,133.064c-59.968,0-108.814-59.624-109.346-133.162
		C124.135,228.57,124.287,227.825,124.647,227.178z M390.807,390.807c-5.355,5.355-10.938,10.399-16.721,15.133
		c-15.865-26.814-39.316-48.757-67.084-62.821c17.373-16.236,30.979-38.075,38.95-63.255c0.554,0.031,1.107,0.056,1.658,0.056
		c6.306,0,12.409-2.05,17.511-5.938c6.159-4.693,10.122-11.504,11.158-19.178c1.037-7.674-0.978-15.292-5.671-21.451
		c-4.214-5.53-10.138-9.282-16.858-10.742c-1.127-35.584-13.258-65.227-35.273-85.978c-21.227-20.006-51.41-31.023-84.992-31.023
		c-34.069,0-63.458,10.728-84.992,31.023c-22.049,20.781-34.184,50.485-35.278,86.143c-6.418,1.568-12.064,5.248-16.125,10.577
		c-4.693,6.159-6.708,13.777-5.671,21.451c1.036,7.674,4.999,14.484,11.158,19.178c5.102,3.888,11.204,5.938,17.511,5.938
		c0.312,0,0.625-0.022,0.938-0.032c7.964,25.143,21.546,46.953,38.887,63.179c-27.757,14.05-51.194,36.007-67.044,62.86
		c-5.778-4.729-11.355-9.769-16.705-15.119C34.143,348.785,11,292.913,11,233.485s23.143-115.299,65.164-157.32
		C118.187,34.143,174.058,11,233.486,11s115.299,23.143,157.321,65.165c42.021,42.021,65.164,97.893,65.164,157.32
		S432.829,348.785,390.807,390.807z M353.737,234.038c3.199,1.165,6.01,3.208,8.123,5.982c2.912,3.822,4.162,8.55,3.52,13.312
		c-0.644,4.763-3.103,8.989-6.925,11.901c-2.776,2.115-6.032,3.341-9.429,3.614C351.717,257.732,353.334,246.071,353.737,234.038z
		 M113.244,234.325c0.417,11.902,2.024,23.437,4.681,34.438c-3.124-0.385-6.109-1.572-8.679-3.53
		c-3.822-2.912-6.281-7.139-6.925-11.901c-0.643-4.762,0.607-9.489,3.52-13.312C107.793,237.457,110.344,235.525,113.244,234.325z"
		/>
	<g>
		<circle cx="189.591" cy="329.719" r="7.636"/>
		<circle cx="277.381" cy="329.719" r="7.636"/>
		<circle cx="233.486" cy="342.722" r="7.636"/>
	</g>
	<path d="M213.837,324.489h39.298c10.999,0,19.947-9.001,19.947-20s-8.948-20-19.947-20h-39.298c-10.999,0-19.948,9-19.948,20
		S202.838,324.489,213.837,324.489z M244.188,313.489h-7v-18h7V313.489z M226.188,313.489h-5v-18h5V313.489z M262.083,304.489
		c0,4.227-2.949,7.808-6.895,8.75v-17.5C259.134,296.682,262.083,300.262,262.083,304.489z M210.188,296.284v16.41
		c-3.118-1.415-5.299-4.572-5.299-8.206C204.889,300.855,207.07,297.699,210.188,296.284z"/>
	<g>
		<path d="M160.956,227.462c-0.361,1.08-0.565,2.232-0.565,3.434c0,5.982,4.849,10.831,10.831,10.831s10.831-4.849,10.831-10.831
			c0-1.192-0.2-2.335-0.555-3.407h11.988c3.037,0,5.5-2.463,5.5-5.5s-2.463-5.5-5.5-5.5h-32c-3.037,0-5.5,2.463-5.5,5.5
			C155.986,224.847,158.168,227.196,160.956,227.462z"/>
		<path d="M273.486,227.489h11.981c-0.355,1.072-0.555,2.215-0.555,3.407c0,5.982,4.849,10.831,10.831,10.831
			s10.831-4.849,10.831-10.831c0-1.201-0.204-2.354-0.565-3.433c2.792-0.264,4.977-2.613,4.977-5.474c0-3.037-2.463-5.5-5.5-5.5h-32
			c-3.037,0-5.5,2.463-5.5,5.5S270.449,227.489,273.486,227.489z"/>
	</g>
</g>
<g>
</g>
<g>
</g>
<g>
</g>
<g>
</g>
<g>
</g>
<g>
</g>
<g>
</g>
<g>
</g>
<g>
</g>
<g>
</g>
<g>
</g>
<g>
</g>
<g>
</g>
<g>
</g>
<g>
</g>
</svg>
