<?xml version="1.0" encoding="iso-8859-1"?>
<!-- Generator: Adobe Illustrator 18.0.0, SVG Export Plug-In . SVG Version: 6.00 Build 0)  -->
<!DOCTYPE svg PUBLIC "-//W3C//DTD SVG 1.1//EN" "http://www.w3.org/Graphics/SVG/1.1/DTD/svg11.dtd">
<svg version="1.1" id="Capa_1" xmlns="http://www.w3.org/2000/svg" xmlns:xlink="http://www.w3.org/1999/xlink" x="0px" y="0px"
	 viewBox="0 0 466.971 466.971" style="enable-background:new 0 0 466.971 466.971;" xml:space="preserve">
<g>
	<g>
		<circle cx="171.225" cy="248.234" r="10.831"/>
		<circle cx="295.746" cy="248.234" r="10.831"/>
	</g>
	<path d="M187.126,309.411c2.621,1.456,5.5,2.164,8.359,2.164c4.551-0.001,9.053-1.793,12.38-5.214l4.052-4.165
		c1.829-1.879,4.279-2.924,6.9-2.943c2.61,0.029,5.087,0.99,6.966,2.866l0.048,0.047c4.18,4.174,11.045,4.236,15.303,0.144
		c3.995-3.842,10.392-3.736,14.258,0.237l3.712,3.814c5.417,5.569,13.946,6.824,20.739,3.05c2.655-1.475,3.612-4.823,2.137-7.479
		c-1.476-2.655-4.823-3.613-7.479-2.137c-2.461,1.367-5.55,0.913-7.514-1.105l-3.712-3.815c-8.071-8.295-21.424-8.517-29.697-0.518
		l-0.048-0.047c-3.917-3.91-9.11-6.058-14.638-6.058c-0.052,0-0.104,0-0.156,0.001c-5.586,0.04-10.808,2.268-14.704,6.272
		l-4.052,4.165c-1.963,2.016-5.053,2.472-7.514,1.104c-2.657-1.478-6.004-0.52-7.479,2.137
		C183.514,304.588,184.471,307.937,187.126,309.411z"/>
	<path d="M246.717,311.206c-3.519,0.609-8.22,0.944-13.236,0.944c-5.01,0-9.708-0.335-13.227-0.944
		c-2.997-0.518-5.839,1.49-6.357,4.482c-0.518,2.993,1.489,5.84,4.482,6.357c4.12,0.712,9.483,1.104,15.102,1.104
		c5.625,0,10.992-0.393,15.111-1.104c2.993-0.519,5-3.364,4.482-6.357C252.556,312.697,249.714,310.691,246.717,311.206z"/>
	<path d="M233.486,327.99c-3.038,0-5.5,2.463-5.5,5.5v8c0,3.037,2.462,5.5,5.5,5.5s5.5-2.463,5.5-5.5v-8
		C238.986,330.452,236.523,327.99,233.486,327.99z"/>
	<path d="M398.585,68.387C354.485,24.287,295.852,0,233.485,0s-121,24.287-165.099,68.387S0,171.119,0,233.486
		s24.287,121,68.386,165.1c44.1,44.099,102.733,68.386,165.099,68.386s121-24.287,165.1-68.386
		c44.1-44.1,68.386-102.733,68.386-165.1S442.685,112.487,398.585,68.387z M101.346,412.534
		c15.24-26.599,38.444-48.254,65.981-61.567c0.59,0.449,1.184,0.891,1.781,1.328c-0.897,1.719-1.393,3.579-1.393,5.494v41.42
		c0,4.699,2.527,8.963,6.761,11.406c2.213,1.277,4.677,1.918,7.119,1.918c2.358,0,4.695-0.598,6.767-1.794l26.572-15.386
		c2.329,5.153,7.672,9.136,13.243,9.136h11.382c5.397,0,9.748-3.816,11.413-9.432l27.256,15.69c2.074,1.196,4.336,1.796,6.583,1.796
		c2.188,0,4.363-0.568,6.334-1.707c4.112-2.374,6.567-6.719,6.567-11.623v-41.428c0-2.52-0.546-4.802-1.561-6.743
		c0.446-0.339,0.89-0.682,1.333-1.027c28.491,13.24,52.476,35.27,68.125,62.532c-38.036,28.189-83.908,43.424-132.123,43.424
		C185.264,455.971,139.385,440.731,101.346,412.534z M352.86,222.423c-0.148-0.027-0.299-0.046-0.447-0.072
		c-0.313-6.465-1.104-12.518-1.98-17.807c0.027-0.004,0.053-0.007,0.08-0.011c3-0.472,5.051-3.287,4.579-6.288
		c-0.472-3-3.287-5.041-6.288-4.579c-38.858,6.109-76.903-20.891-88.588-30.137c4.079-4.774,6.106-8.151,6.396-8.646
		c1.53-2.624,0.644-5.992-1.979-7.522c-2.625-1.53-5.993-0.645-7.522,1.979c-0.244,0.419-25.188,41.894-91.371,43.997
		c-9.032,0.287-17.667,2.64-24.972,6.804c-10.565,6.023-22.007,17.044-25.339,36.995c-0.915-2.706-1.736-5.446-2.461-8.215
		c-2.659-10.164-4.007-20.688-4.007-31.281c-0.017-66.839,54.325-122.119,121.134-123.229c9.05-0.141,18.115,0.691,26.904,2.49
		c8.888,1.816,16.291,8.364,19.319,17.089l2.582,7.439l5.406-2.274c9.143-3.846,19.522-2.282,27.089,4.084
		c28.223,23.705,44.263,58.419,44.007,95.241C355.346,206.544,354.486,214.566,352.86,222.423z M361.86,240.02
		c2.913,3.822,4.163,8.55,3.519,13.312c-0.643,4.763-3.102,8.989-6.924,11.901c-3.162,2.41-6.95,3.662-10.858,3.664
		c0.387-1.6,0.74-3.212,1.081-4.828c4.741-8.256,8.559-16.983,11.428-26.005C360.727,238.673,361.323,239.315,361.86,240.02z
		 M105.147,241.044c2.432,7.119,5.458,14.02,9.056,20.629l0.333,1.981c0.338,1.574,0.702,3.133,1.079,4.683
		c-2.278-0.593-4.438-1.636-6.367-3.106c-3.822-2.913-6.281-7.14-6.923-11.904C101.732,248.96,102.813,244.606,105.147,241.044z
		 M127.864,271.654l-1.443-9.943c-4.513-31.09,8.273-45.445,19.793-52.013c5.754-3.28,12.626-5.136,19.874-5.366
		c44.322-1.409,71.68-18.994,86.463-32.812c10.675,8.677,45.249,34.053,84.476,34.053c0.801,0,1.607-0.023,2.412-0.045
		c1.112,6.546,2.118,14.351,2.118,22.566c0,10.471-1.131,21.387-3.362,32.442c-5.799,28.728-19.55,54.724-38.719,73.199
		c-19.503,18.799-42.903,28.735-67.67,28.735C184.796,362.471,143.235,325.63,127.864,271.654z M286.711,357.785v41.428
		c0,1.337-0.747,1.912-1.067,2.098c-0.585,0.337-1.23,0.307-1.924-0.094l-32.009-18.425v-11.334
		c12.183-2.471,24.002-7.188,34.994-13.948C286.709,357.604,286.711,357.696,286.711,357.785z M213.711,383.35l-30.858,17.867
		c-0.978,0.566-2.129,0.305-2.879-0.129c-0.471-0.271-1.26-0.876-1.26-1.879v-40.569c10.907,6.444,22.685,10.946,34.997,13.191
		V383.35z M224.711,373.215c2.351,0.166,4.716,0.256,7.094,0.256c2.977,0,5.947-0.143,8.906-0.409v16.833
		c0,2.082-0.814,3.422-1.154,3.595h-11.382c-1.328,0-3.464-2.218-3.464-3.595V373.215z M390.807,390.807
		c-5.27,5.27-10.758,10.242-16.444,14.91c-15.956-27.182-39.685-49.397-67.815-63.53c0.187-0.178,0.376-0.351,0.562-0.53
		c16.871-16.262,29.851-37.823,37.47-61.912c1.013,0.105,2.025,0.174,3.031,0.174c6.306,0,12.409-2.05,17.511-5.938
		c6.159-4.693,10.122-11.504,11.159-19.178s-0.978-15.292-5.671-21.451c-2.084-2.734-4.586-5.033-7.395-6.838
		c2.033-9.157,3.121-18.531,3.186-27.96c0.278-40.108-17.192-77.92-47.929-103.737c-9.271-7.799-21.511-10.525-33.031-7.61
		c-4.888-10.774-14.676-18.721-26.238-21.084c-9.569-1.958-19.418-2.873-29.289-2.711c-72.778,1.209-131.972,61.424-131.954,134.229
		c0,10.487,1.228,20.911,3.627,31.043c-7.509,6.307-11.508,16.195-10.162,26.117c1.901,14.099,13.698,24.48,27.442,25.085
		c8.18,25.54,21.946,47.289,39.304,63.374c-27.142,14.16-50.061,35.963-65.579,62.443c-5.679-4.663-11.161-9.631-16.426-14.896
		C34.143,348.784,11,292.913,11,233.486s23.143-115.299,65.165-157.32C118.187,34.143,174.058,11,233.485,11
		c59.428,0,115.299,23.143,157.321,65.165c42.022,42.021,65.165,97.893,65.165,157.32S432.829,348.784,390.807,390.807z"/>
</g>
<g>
</g>
<g>
</g>
<g>
</g>
<g>
</g>
<g>
</g>
<g>
</g>
<g>
</g>
<g>
</g>
<g>
</g>
<g>
</g>
<g>
</g>
<g>
</g>
<g>
</g>
<g>
</g>
<g>
</g>
</svg>
