<?xml version="1.0" encoding="iso-8859-1"?>
<!-- Generator: Adobe Illustrator 18.0.0, SVG Export Plug-In . SVG Version: 6.00 Build 0)  -->
<!DOCTYPE svg PUBLIC "-//W3C//DTD SVG 1.1//EN" "http://www.w3.org/Graphics/SVG/1.1/DTD/svg11.dtd">
<svg version="1.1" id="Capa_1" xmlns="http://www.w3.org/2000/svg" xmlns:xlink="http://www.w3.org/1999/xlink" x="0px" y="0px"
	 viewBox="0 0 466.972 466.972" style="enable-background:new 0 0 466.972 466.972;" xml:space="preserve">
<g>
	<path d="M398.586,68.387C354.486,24.287,295.852,0,233.486,0s-121,24.287-165.1,68.387C24.287,112.486,0,171.119,0,233.485
		s24.287,121,68.386,165.1c44.1,44.1,102.733,68.387,165.1,68.387s121-24.287,165.1-68.387c44.099-44.1,68.386-102.733,68.386-165.1
		S442.684,112.486,398.586,68.387z M101.634,412.743c10.5-18.179,24.707-34.005,41.481-46.423
		c7.326,19.232,18.69,35.734,33.169,48.025c16.795,14.257,36.579,21.792,57.212,21.792c20.62,0,40.394-7.524,57.183-21.759
		c14.474-12.273,25.842-28.756,33.178-47.969c16.763,12.411,30.963,28.21,41.465,46.345c-37.98,28.055-83.742,43.218-131.837,43.218
		C185.385,455.972,139.617,440.805,101.634,412.743z M113.306,234.156c0.409,11.979,2.02,23.588,4.697,34.656
		c-3.284-0.322-6.428-1.529-9.119-3.579c-3.822-2.912-6.281-7.139-6.924-11.901c-0.644-4.762,0.606-9.489,3.519-13.312
		C107.526,237.333,110.231,235.338,113.306,234.156z M142.534,147.489h181.907l41.219,41.756
		c-86.67,24.613-177.676,24.613-264.346,0L142.534,147.489z M147.885,136.489l10.899-67.684c49.601-7.808,99.825-7.81,149.408-0.006
		l10.899,67.689H147.885z M365.017,253.331c-0.644,4.763-3.103,8.989-6.925,11.901c-2.691,2.052-5.835,3.257-9.119,3.579
		c2.676-11.066,4.288-22.674,4.697-34.652C361.254,237.093,366.152,244.929,365.017,253.331z M125.655,206.758
		c35.573,7.962,71.703,11.949,107.833,11.949c36.13,0,72.26-3.987,107.833-11.949c0.969,6.819,1.462,13.968,1.462,21.335
		c0,74.096-49.031,134.377-109.299,134.377c-60.263,0-109.29-60.281-109.29-134.377
		C124.194,220.731,124.687,213.585,125.655,206.758z M233.484,373.471c23.649,0,45.724-8.295,64.344-22.596
		c5.756,2.693,11.328,5.744,16.683,9.126c-6.63,18.555-17.272,34.393-30.946,45.988c-14.774,12.527-32.088,19.148-50.068,19.148
		c-17.991,0-35.313-6.632-50.094-19.178c-13.68-11.613-24.319-27.47-30.938-46.046c5.335-3.367,10.884-6.405,16.618-9.085
		C187.714,365.158,209.81,373.471,233.484,373.471z M390.807,390.807c-5.355,5.355-10.937,10.399-16.72,15.132
		c-15.871-26.823-39.331-48.771-67.11-62.835c17.354-16.233,30.947-38.062,38.913-63.231c0.453,0.021,0.907,0.046,1.359,0.046
		c6.306,0,12.409-2.05,17.511-5.938c6.159-4.693,10.122-11.504,11.158-19.178c1.037-7.674-0.978-15.292-5.671-21.451
		c-4.152-5.448-9.961-9.174-16.558-10.679c-0.198-6.333-0.742-12.503-1.627-18.447c8.563-2.117,17.091-4.457,25.575-7.038
		c1.843-0.561,3.258-2.044,3.73-3.91c0.474-1.867-0.064-3.845-1.417-5.216l-49.485-50.13l-12.046-74.814
		c-0.397-2.471-2.393-4.309-4.794-4.585c-53.101-8.77-106.958-8.777-160.08-0.025c-2.486,0.198-4.578,2.072-4.986,4.608
		l-12.047,74.816l-49.485,50.13c-1.353,1.371-1.891,3.349-1.417,5.216c0.473,1.866,1.888,3.35,3.73,3.91
		c8.482,2.581,17.009,4.92,25.57,7.036c-0.885,5.95-1.424,12.121-1.621,18.448c-6.597,1.506-12.407,5.231-16.559,10.679
		c-4.693,6.159-6.708,13.777-5.671,21.451c1.037,7.674,5,14.484,11.159,19.178c5.102,3.888,11.204,5.938,17.511,5.938
		c0.452,0,0.905-0.025,1.359-0.046c7.957,25.143,21.528,46.953,38.855,63.18c-27.769,14.05-51.216,36.012-67.071,62.874
		c-5.778-4.729-11.355-9.77-16.706-15.12C34.143,348.785,11,292.913,11,233.485s23.143-115.299,65.165-157.32
		C118.187,34.143,174.058,11,233.486,11c59.428,0,115.299,23.143,157.321,65.165c42.021,42.021,65.164,97.893,65.164,157.32
		S432.829,348.785,390.807,390.807z"/>
	<g>
		<circle cx="171.225" cy="251.701" r="10.831"/>
		<circle cx="295.746" cy="251.701" r="10.831"/>
	</g>
	<path d="M233.481,324.953c8.561,0,16.472-2.355,21.164-6.302c2.325-1.955,2.624-5.425,0.669-7.749
		c-1.956-2.326-5.426-2.624-7.749-0.669c-2.04,1.716-6.953,3.72-14.083,3.72c-7.124,0-12.034-2.004-14.074-3.72
		c-2.327-1.956-5.795-1.657-7.75,0.669c-1.956,2.324-1.656,5.794,0.668,7.749C217.018,322.598,224.926,324.953,233.481,324.953z"/>
</g>
<g>
</g>
<g>
</g>
<g>
</g>
<g>
</g>
<g>
</g>
<g>
</g>
<g>
</g>
<g>
</g>
<g>
</g>
<g>
</g>
<g>
</g>
<g>
</g>
<g>
</g>
<g>
</g>
<g>
</g>
</svg>
