<?xml version="1.0" encoding="iso-8859-1"?>
<!-- Generator: Adobe Illustrator 18.0.0, SVG Export Plug-In . SVG Version: 6.00 Build 0)  -->
<!DOCTYPE svg PUBLIC "-//W3C//DTD SVG 1.1//EN" "http://www.w3.org/Graphics/SVG/1.1/DTD/svg11.dtd">
<svg version="1.1" id="Capa_1" xmlns="http://www.w3.org/2000/svg" xmlns:xlink="http://www.w3.org/1999/xlink" x="0px" y="0px"
	 viewBox="0 0 466.972 466.972" style="enable-background:new 0 0 466.972 466.972;" xml:space="preserve">
<g>
	<g>
		<circle cx="171.225" cy="237.831" r="10.831"/>
		<circle cx="295.746" cy="237.831" r="10.831"/>
	</g>
	<path d="M233.49,282.165c-9.125,0-17.689,4.87-22.351,12.71c-1.552,2.61-0.694,5.985,1.917,7.538
		c0.881,0.524,1.85,0.773,2.806,0.773c1.876,0,3.705-0.961,4.733-2.69c2.729-4.59,7.551-7.331,12.896-7.331
		c5.34,0,10.158,2.74,12.887,7.331c1.553,2.611,4.93,3.472,7.538,1.917c2.611-1.553,3.47-4.928,1.917-7.538
		C251.171,287.035,242.611,282.165,233.49,282.165z"/>
	<path d="M199.861,223.509l-29.905-22.104c-2.443-1.806-5.887-1.289-7.692,1.153c-1.806,2.443-1.289,5.887,1.154,7.692
		l29.905,22.104c0.983,0.727,2.129,1.077,3.265,1.077c1.686,0,3.349-0.771,4.427-2.23
		C202.821,228.758,202.304,225.314,199.861,223.509z"/>
	<path d="M304.172,202.559c-1.805-2.443-5.251-2.958-7.692-1.153l-29.905,22.104c-2.442,1.806-2.959,5.249-1.153,7.692
		c1.078,1.459,2.742,2.23,4.427,2.23c1.136,0,2.282-0.351,3.266-1.077l29.905-22.104
		C305.461,208.445,305.977,205.002,304.172,202.559z"/>
	<path d="M398.586,68.387C354.485,24.287,295.852,0,233.486,0c-62.366,0-121,24.287-165.099,68.387S0,171.119,0,233.485
		s24.287,121,68.386,165.1s102.733,68.387,165.099,68.387c62.367,0,121-24.287,165.1-68.387
		c44.099-44.1,68.386-102.733,68.386-165.1S442.684,112.486,398.586,68.387z M101.644,412.75
		c14.127-24.458,34.959-44.653,59.727-58.02c8.401,32.301,37.93,55.689,72.087,55.689c34.199,0,63.669-23.342,72.083-55.636
		c24.78,13.374,45.626,33.552,59.77,57.979c-37.978,28.05-83.736,43.21-131.826,43.21
		C185.389,455.972,139.625,440.808,101.644,412.75z M223.986,372.989c1.578,0,2.997-0.668,4-1.733v2.233c0,3.037,2.462,5.5,5.5,5.5
		c3.037,0,5.5-2.463,5.5-5.5v-2.233c1.003,1.065,2.422,1.733,4,1.733c3.037,0,5.5-2.463,5.5-5.5v-0.347
		c17.221-2.6,33.323-9.615,47.503-20.078c-5.294,30.053-31.656,52.356-62.53,52.356c-30.833,0-57.251-22.344-62.527-52.395
		c14.192,10.484,30.312,17.514,47.555,20.117v0.347C218.486,370.526,220.948,372.989,223.986,372.989z M248.486,355.999v-13.51
		c0-3.037-2.463-5.5-5.5-5.5c-1.578,0-2.997,0.669-4,1.733v-2.233c0-3.037-2.463-5.5-5.5-5.5c-3.038,0-5.5,2.463-5.5,5.5v2.233
		c-1.003-1.065-2.422-1.733-4-1.733c-3.038,0-5.5,2.463-5.5,5.5v13.51c-53.192-9.017-94.294-65.265-94.294-133.104
		c0-34.923,11.029-63.783,31.896-83.461c19.442-18.335,46.206-28.026,77.398-28.026c31.192,0,57.957,9.691,77.398,28.026
		c20.867,19.678,31.896,48.538,31.896,83.461C342.78,290.734,301.678,346.982,248.486,355.999z M390.807,390.807
		c-5.355,5.355-10.938,10.399-16.721,15.132c-16.579-28.023-41.437-50.723-70.848-64.668c19.145-16.523,34.125-39.655,42.654-66.611
		c0.574,0.034,1.148,0.058,1.719,0.058c6.306,0,12.409-2.05,17.511-5.938c6.159-4.693,10.122-11.504,11.158-19.178
		c1.037-7.674-0.978-15.292-5.671-21.451c-4.228-5.548-10.177-9.306-16.925-10.756c-1.129-35.578-13.253-65.217-35.254-85.963
		c-21.521-20.296-50.895-31.023-84.945-31.023s-63.424,10.728-84.945,31.023c-22.034,20.778-34.162,50.476-35.259,86.126
		c-6.445,1.559-12.117,5.247-16.191,10.594c-4.693,6.159-6.708,13.777-5.671,21.451s5,14.484,11.159,19.178
		c5.102,3.888,11.204,5.938,17.511,5.938c0.332,0,0.665-0.022,0.998-0.034c8.521,26.919,23.477,50.022,42.589,66.537
		c-29.402,13.932-54.246,36.647-70.807,64.705c-5.778-4.729-11.355-9.769-16.705-15.119C34.143,348.784,11,292.913,11,233.485
		s23.143-115.299,65.165-157.32C118.187,34.143,174.058,11,233.486,11c59.428,0,115.299,23.143,157.322,65.165
		c42.021,42.021,65.164,97.893,65.164,157.32S432.829,348.785,390.807,390.807z M353.672,228.811
		c3.227,1.161,6.06,3.215,8.188,6.008c2.912,3.822,4.162,8.55,3.52,13.312c-0.644,4.763-3.103,8.989-6.925,11.901
		c-2.793,2.129-6.074,3.358-9.494,3.621C351.654,252.528,353.271,240.856,353.672,228.811z M113.308,229.098
		c0.416,11.913,2.022,23.46,4.681,34.47c-3.148-0.376-6.156-1.565-8.744-3.537c-3.822-2.912-6.281-7.139-6.924-11.901
		c-0.644-4.762,0.606-9.489,3.519-13.312C107.808,232.237,110.383,230.296,113.308,229.098z"/>
</g>
<g>
</g>
<g>
</g>
<g>
</g>
<g>
</g>
<g>
</g>
<g>
</g>
<g>
</g>
<g>
</g>
<g>
</g>
<g>
</g>
<g>
</g>
<g>
</g>
<g>
</g>
<g>
</g>
<g>
</g>
</svg>
