<?xml version="1.0" encoding="iso-8859-1"?>
<!-- Generator: Adobe Illustrator 18.0.0, SVG Export Plug-In . SVG Version: 6.00 Build 0)  -->
<!DOCTYPE svg PUBLIC "-//W3C//DTD SVG 1.1//EN" "http://www.w3.org/Graphics/SVG/1.1/DTD/svg11.dtd">
<svg version="1.1" id="Capa_1" xmlns="http://www.w3.org/2000/svg" xmlns:xlink="http://www.w3.org/1999/xlink" x="0px" y="0px"
	 viewBox="0 0 466.971 466.971" style="enable-background:new 0 0 466.971 466.971;" xml:space="preserve">
<g>
	<path d="M398.585,68.386C354.485,24.287,295.852,0,233.485,0s-121,24.287-165.099,68.386C24.287,112.486,0,171.12,0,233.486
		s24.287,121,68.386,165.099s102.733,68.386,165.099,68.386s121-24.287,165.1-68.386c44.1-44.1,68.386-102.733,68.386-165.099
		S442.685,112.486,398.585,68.386z M363.675,243.009c1.545,3.152,2.187,6.74,1.703,10.322c-0.852,6.326-4.86,11.419-10.262,13.913
		C358.752,259.451,361.614,251.345,363.675,243.009z M342.355,268.206c-5.081-13.66-7.661-28.034-7.661-42.851
		c0-13.752,2.258-27.228,6.687-40.076c3.266-5.043,6.039-10.225,8.274-15.494c4.504,12.785,6.963,26.526,6.963,40.833
		C356.618,230.931,351.714,250.556,342.355,268.206z M244.678,235.746l21.122-17.35c2.011-1.652,2.589-4.489,1.384-6.796
		c-1.205-2.308-3.863-3.455-6.368-2.748l-29.377,8.286c-38.736,10.925-79.976,8.172-116.124-7.75
		c-1.754-0.773-3.448-1.559-5.082-2.349c1.901-66.295,56.418-119.642,123.165-119.642c47.828,0,89.378,27.391,109.789,67.31
		C334.577,187.797,298.379,224.509,244.678,235.746z M103.441,244.269c1.974,7.66,4.608,15.128,7.919,22.325
		c-4.767-2.692-8.256-7.501-9.031-13.268C101.903,250.197,102.319,247.09,103.441,244.269z M110.49,219.279
		c0.131,0.058,0.259,0.117,0.39,0.175c9.094,4.006,18.492,7.219,28.083,9.653c-0.482,15.92-4.071,31.68-10.473,46.161
		C118.001,258.307,111.868,239.228,110.49,219.279z M149.886,231.522c27.749,5.243,56.754,4.039,84.539-3.797l4.094-1.155
		l-16.107,13.231c-1.862,1.53-2.512,4.094-1.602,6.326c0.849,2.083,2.872,3.424,5.091,3.424c0.158,0,0.317-0.007,0.476-0.021
		c31.651-2.735,61.05-13.909,85.018-32.312c4.97-3.816,9.585-7.861,13.818-12.09c-1.007,6.658-1.518,13.411-1.518,20.226
		c0,18.54,3.709,36.452,11,53.267c-8.024,24.257-21.535,44.968-39.187,59.97c-18.314,15.565-39.798,23.793-62.128,23.793
		c-41.668,0-79.979-29.53-98.282-75.459C143.917,269.856,148.999,250.825,149.886,231.522z M238.489,378.656l39.35,28.489
		c1.459,1.056,3.343,1.331,5.042,0.736c1.7-0.595,3.001-1.985,3.483-3.72l14.396-51.866c26.878,13.297,49.506,34.49,64.547,60.469
		c-36.658,27.073-80.564,42.132-126.819,43.146V378.656z M248.411,372.259c13.783-2.044,27.07-6.907,39.403-14.45l-9.933,35.786
		L248.411,372.259z M217.638,372.108l-29.431,21.431l-9.903-36.339C190.49,364.785,203.778,369.889,217.638,372.108z
		 M179.69,404.125c0.476,1.745,1.778,3.144,3.484,3.743c0.594,0.208,1.209,0.311,1.822,0.311c1.148,0,2.285-0.36,3.238-1.054
		l39.255-28.584v77.346c-45.909-1.207-89.466-16.256-125.87-43.156c14.933-25.847,37.359-46.942,64.001-60.236L179.69,404.125z
		 M390.807,390.807c-5.359,5.359-10.947,10.407-16.735,15.144c-15.856-26.805-39.292-48.742-67.043-62.809
		c15.716-14.657,28.071-33.529,36.16-55.308c1.827-2.594,3.563-5.236,5.191-7.93c14.06-0.365,25.976-10.8,27.9-25.101
		c1.319-9.77-2.527-19.576-9.915-25.916c0.815-6.013,1.253-12.109,1.253-18.268c0-74.01-60.211-134.221-134.221-134.221
		S99.176,136.608,99.176,210.618c0,6.403,0.469,12.738,1.35,18.981c-6.931,6.367-10.385,15.73-9.098,25.2
		c1.856,13.803,13.373,24.233,26.967,25.061c1.713,2.834,3.543,5.611,5.475,8.335l-0.086,0.032
		c8.287,21.975,20.828,40.63,36.108,54.84c-27.754,14.048-51.188,36.001-67.038,62.848c-5.773-4.726-11.345-9.762-16.69-15.108
		C34.143,348.785,11,292.914,11,233.486c0-59.428,23.143-115.299,65.165-157.321S174.058,11,233.485,11
		c59.428,0,115.299,23.143,157.321,65.165s65.165,97.893,65.165,157.321C455.971,292.914,432.829,348.785,390.807,390.807z"/>
	<g>
		<circle cx="171.225" cy="253.435" r="10.831"/>
		<circle cx="295.746" cy="253.435" r="10.831"/>
	</g>
	<path d="M176.985,306.191c-1.991-1.072-4.457-1.069-6.19,0.383c-2.987,2.502-2.616,6.641,0.022,8.693
		c9.074,8.812,21.315,13.784,33.653,13.587c2.384-0.034,4.734-0.264,7.039-0.663c0.238,0.31,0.507,0.602,0.818,0.863
		c4.692,3.945,12.6,6.301,21.154,6.301c8.56,0,16.471-2.355,21.163-6.301c0.305-0.257,0.571-0.541,0.806-0.844
		c2.328,0.406,4.702,0.64,7.111,0.674c0.211,0.003,0.42,0.004,0.631,0.004c12.357,0,24.526-5.098,33.474-14.046
		c0.032-0.032,0.055-0.069,0.082-0.104c2.041-2.128,2.168-5.711-0.402-8.017c-1.735-1.557-4.276-1.664-6.324-0.551
		c-4.1,2.229-9.216,1.457-12.474-1.893l-5.038-5.178c-10.626-10.921-28.494-10.771-38.906,0.688l-1.442-1.435
		c-4.992-4.982-11.62-7.689-18.676-7.646c-7.052,0.052-13.644,2.864-18.562,7.918l-5.5,5.652
		C186.173,307.617,181.078,308.396,176.985,306.191z M233.481,324.355c-3.187,0-5.928-0.403-8.17-1
		c2.905-1.603,5.645-3.54,8.174-5.794c2.527,2.253,5.265,4.191,8.166,5.796C239.408,323.953,236.668,324.355,233.481,324.355z
		 M264.625,306.771l5.038,5.178c1.562,1.605,3.337,2.908,5.239,3.926c-3.919,1.376-8.047,2.078-12.187,2.011
		c-8.627-0.121-16.712-3.482-22.943-9.497c0.975-0.531,1.899-1.184,2.733-1.986C248.705,300.441,258.627,300.606,264.625,306.771z
		 M197.307,311.949l5.5-5.652c2.851-2.93,6.671-4.56,10.759-4.59c4.082,0.012,7.932,1.544,10.821,4.428l0.1,0.1
		c0.843,0.841,1.783,1.529,2.779,2.086c-6.222,6.037-14.312,9.413-22.949,9.534c-4.15,0.063-8.269-0.636-12.177-2.003
		C194.015,314.839,195.763,313.535,197.307,311.949z"/>
</g>
<g>
</g>
<g>
</g>
<g>
</g>
<g>
</g>
<g>
</g>
<g>
</g>
<g>
</g>
<g>
</g>
<g>
</g>
<g>
</g>
<g>
</g>
<g>
</g>
<g>
</g>
<g>
</g>
<g>
</g>
</svg>
