<?xml version="1.0" encoding="iso-8859-1"?>
<!-- Generator: Adobe Illustrator 18.0.0, SVG Export Plug-In . SVG Version: 6.00 Build 0)  -->
<!DOCTYPE svg PUBLIC "-//W3C//DTD SVG 1.1//EN" "http://www.w3.org/Graphics/SVG/1.1/DTD/svg11.dtd">
<svg version="1.1" id="Capa_1" xmlns="http://www.w3.org/2000/svg" xmlns:xlink="http://www.w3.org/1999/xlink" x="0px" y="0px"
	 viewBox="0 0 466.971 466.971" style="enable-background:new 0 0 466.971 466.971;" xml:space="preserve">
<g>
	<path d="M398.585,68.386C354.486,24.287,295.852,0,233.486,0s-121,24.287-165.1,68.386C24.287,112.486,0,171.12,0,233.486
		s24.287,121,68.386,165.099c44.1,44.1,102.733,68.386,165.1,68.386s121-24.287,165.1-68.386
		c44.099-44.1,68.386-102.733,68.386-165.099S442.684,112.486,398.585,68.386z M110.384,210.609
		c0-67.944,55.202-123.221,123.056-123.221c67.974,0,123.273,55.269,123.273,123.204c0,4.428-0.191,8.613-0.581,12.645
		c-0.744-0.23-2.45-0.874-2.45-0.874c-1.053-31.44-10.807-58.521-28.38-78.596c-5.852-6.684-14.292-10.622-23.157-10.804
		c-8.797-0.183-16.973,3.208-22.997,9.545c-12.017,12.637-28.234,19.596-45.665,19.596s-33.647-6.959-45.665-19.595
		c-6.025-6.335-14.215-9.727-22.995-9.541c-8.865,0.183-17.306,4.121-23.156,10.805c-17.568,20.072-27.321,47.149-28.375,78.584
		c0,0-1.704,0.864-2.382,1.092C110.446,219.168,110.384,214.81,110.384,210.609z M284.197,212.382
		c-16.744,0-31.121,10.3-37.147,24.894c-8.959-1.037-17.937-0.752-26.797,0.839c-5.814-15.035-20.417-25.732-37.479-25.732
		c-17.585,0-32.557,11.362-37.988,27.126l-20.558-13.368c0.367-30.331,9.225-56.281,25.717-75.122
		c3.818-4.362,9.324-6.933,15.105-7.052c0.146-0.003,0.291-0.004,0.436-0.004c5.508,0,10.594,2.167,14.362,6.129
		c14.114,14.841,33.162,23.014,53.636,23.014s39.522-8.174,53.636-23.016c3.868-4.068,9.118-6.243,14.8-6.127
		c5.781,0.119,11.287,2.689,15.106,7.052c16.495,18.843,25.354,44.793,25.722,75.125l-20.563,13.371
		C316.753,223.744,301.781,212.382,284.197,212.382z M313.371,252.557c0,16.087-13.088,29.175-29.175,29.175
		s-29.174-13.088-29.174-29.175s13.087-29.175,29.174-29.175S313.371,236.47,313.371,252.557z M211.948,252.557
		c0,16.087-13.088,29.175-29.175,29.175s-29.175-13.088-29.175-29.175s13.088-29.175,29.175-29.175S211.948,236.47,211.948,252.557z
		 M353.675,234.014c7.789,2.82,12.857,10.781,11.705,19.317c-0.644,4.762-3.103,8.989-6.925,11.901
		c-2.792,2.128-6.071,3.359-9.492,3.621C351.656,257.73,353.273,246.059,353.675,234.014z M113.31,234.305
		c0.417,11.912,2.023,23.456,4.682,34.466c-3.148-0.375-6.157-1.566-8.746-3.539c-3.822-2.913-6.281-7.139-6.925-11.901
		C101.204,245.062,105.932,237.345,113.31,234.305z M142.633,251.228c-0.014,0.442-0.034,0.883-0.034,1.329
		c0,22.152,18.022,40.175,40.175,40.175s40.175-18.022,40.175-40.175c0-1.249-0.065-2.482-0.177-3.703
		c7.116-1.225,14.315-1.486,21.509-0.788c-0.165,1.475-0.257,2.972-0.257,4.491c0,22.152,18.021,40.175,40.174,40.175
		s40.175-18.022,40.175-40.175c0-0.446-0.019-0.886-0.034-1.329l18.048-11.735c-4.722,68.78-51.757,122.978-108.902,122.978
		c-57.14,0-104.17-54.196-108.894-122.975L142.633,251.228z M238.489,378.656l39.351,28.489c1.46,1.057,3.346,1.33,5.043,0.736
		c1.699-0.595,3.001-1.985,3.482-3.72l14.396-51.866c26.876,13.298,49.505,34.491,64.546,60.469
		c-36.658,27.073-80.564,42.132-126.818,43.146V378.656z M248.519,372.338c13.984-2.117,27.229-7.146,39.306-14.567l-9.944,35.825
		L248.519,372.338z M217.527,372.19l-29.319,21.349l-9.887-36.28C190.354,364.794,203.565,369.943,217.527,372.19z M179.692,404.125
		c0.476,1.745,1.778,3.144,3.484,3.743c0.594,0.208,1.209,0.311,1.822,0.311c1.147,0,2.284-0.36,3.237-1.054l39.253-28.582v77.344
		c-45.909-1.207-89.466-16.256-125.87-43.156c14.932-25.848,37.36-46.942,64.003-60.237L179.692,404.125z M390.807,390.807
		c-5.359,5.359-10.947,10.407-16.735,15.144c-15.868-26.823-39.326-48.773-67.103-62.839c17.361-16.236,30.958-38.073,38.925-63.251
		c0.574,0.034,1.147,0.058,1.719,0.058c6.306,0,12.408-2.05,17.51-5.937c6.159-4.693,10.122-11.504,11.158-19.178
		c1.355-10.036-2.626-19.58-9.751-25.775c0.793-5.846,1.185-11.908,1.185-18.437c0-74-60.234-134.204-134.273-134.204
		c-73.919,0-134.056,60.211-134.056,134.221c0,6.062,0.123,12.457,1.286,18.864c-6.81,6.202-10.574,15.533-9.25,25.331
		c1.036,7.674,4.999,14.485,11.158,19.178c5.102,3.888,11.204,5.937,17.51,5.937c0.333,0,0.667-0.022,1.001-0.034
		c7.956,25.134,21.523,46.937,38.844,63.161c-27.772,14.048-51.221,36.009-67.078,62.868c-5.773-4.726-11.345-9.762-16.691-15.108
		C34.143,348.785,11,292.914,11,233.486c0-59.428,23.143-115.299,65.164-157.321C118.187,34.143,174.058,11,233.486,11
		s115.299,23.143,157.321,65.165c42.021,42.022,65.164,97.893,65.164,157.321C455.971,292.914,432.828,348.785,390.807,390.807z"/>
	<path d="M233.481,335.355c8.561,0,16.473-2.355,21.164-6.301c2.325-1.955,2.624-5.425,0.669-7.75
		c-1.955-2.324-5.424-2.625-7.749-0.669c-2.04,1.716-6.953,3.72-14.084,3.72c-7.124,0-12.034-2.004-14.074-3.72
		c-2.325-1.955-5.794-1.656-7.749,0.669c-1.955,2.325-1.656,5.794,0.669,7.75C217.018,333,224.926,335.355,233.481,335.355z"/>
</g>
<g>
</g>
<g>
</g>
<g>
</g>
<g>
</g>
<g>
</g>
<g>
</g>
<g>
</g>
<g>
</g>
<g>
</g>
<g>
</g>
<g>
</g>
<g>
</g>
<g>
</g>
<g>
</g>
<g>
</g>
</svg>
