<?xml version="1.0" encoding="iso-8859-1"?>
<!-- Generator: Adobe Illustrator 18.0.0, SVG Export Plug-In . SVG Version: 6.00 Build 0)  -->
<!DOCTYPE svg PUBLIC "-//W3C//DTD SVG 1.1//EN" "http://www.w3.org/Graphics/SVG/1.1/DTD/svg11.dtd">
<svg version="1.1" id="Capa_1" xmlns="http://www.w3.org/2000/svg" xmlns:xlink="http://www.w3.org/1999/xlink" x="0px" y="0px"
	 viewBox="0 0 466.971 466.971" style="enable-background:new 0 0 466.971 466.971;" xml:space="preserve">
<g>
	<path d="M183.333,180.117c13.564,6.28,30.908,9.601,50.155,9.601c19.244,0,36.585-3.32,50.149-9.601
		c2.756-1.276,3.956-4.546,2.68-7.302c-1.276-2.757-4.547-3.955-7.302-2.681c-12.126,5.615-27.869,8.583-45.527,8.583
		c-17.662,0-33.407-2.968-45.533-8.583c-2.755-1.275-6.026-0.077-7.302,2.681C179.377,175.572,180.577,178.841,183.333,180.117z"/>
	<path d="M166.476,201.054c18.091,8.377,41.264,12.805,67.013,12.805c25.744,0,48.915-4.428,67.006-12.805
		c2.756-1.276,3.956-4.546,2.68-7.302c-1.276-2.757-4.546-3.955-7.302-2.681c-16.653,7.711-38.225,11.787-62.384,11.787
		c-24.164,0-45.738-4.076-62.391-11.787c-2.756-1.273-6.026-0.077-7.302,2.681C162.52,196.508,163.72,199.778,166.476,201.054z"/>
	<path d="M398.585,68.386C354.485,24.287,295.852,0,233.485,0s-121,24.287-165.099,68.386C24.287,112.486,0,171.119,0,233.486
		s24.287,121,68.386,165.1c44.1,44.099,102.733,68.386,165.099,68.386s121-24.287,165.1-68.386
		c44.1-44.1,68.386-102.733,68.386-165.1S442.685,112.486,398.585,68.386z M113.308,234.306c0.416,11.911,2.022,23.455,4.681,34.463
		c-3.148-0.376-6.155-1.565-8.744-3.537c-3.822-2.912-6.281-7.139-6.924-11.901C101.205,245.063,105.932,237.346,113.308,234.306z
		 M124.191,228.097c0-29.821,8.049-55.217,23.391-74.254c0.422,4.169,0.64,8.367,0.64,12.564c0,26.277-8.333,51.618-23.669,72.612
		C124.317,235.416,124.191,231.774,124.191,228.097z M159.223,166.407c0-7.669-0.655-15.347-1.944-22.866
		c19.338-17.622,45.644-26.932,76.206-26.932c30.563,0,56.87,9.31,76.208,26.933c-1.293,7.509-1.95,15.186-1.95,22.865
		c0,32.471,11.673,63.629,32.919,88.045c-9.991,61.518-54.248,108.02-107.178,108.02c-52.931,0-97.189-46.503-107.178-108.023
		C147.551,230.028,159.223,198.872,159.223,166.407z M361.86,240.02c2.913,3.822,4.163,8.55,3.519,13.312
		c-0.643,4.763-3.102,8.989-6.924,11.901c-2.793,2.129-6.074,3.357-9.494,3.62c2.693-11.124,4.31-22.796,4.711-34.841
		C356.898,235.173,359.732,237.228,361.86,240.02z M342.416,239.025c-15.338-20.992-23.673-46.334-23.673-72.618
		c0-4.202,0.219-8.401,0.642-12.567c15.344,19.038,23.393,44.434,23.393,74.257C342.779,231.776,342.653,235.42,342.416,239.025z
		 M237.489,384.711l25.732,23.426c1.28,1.164,3.034,1.657,4.735,1.335c1.7-0.325,3.148-1.432,3.909-2.986l26.953-55.127
		c27.728,13.226,51.087,34.804,66.489,61.406c-36.921,27.268-81.197,42.34-127.819,43.158V384.711z M241.15,373.168
		c14.352-1.096,28.028-5.246,40.588-11.919l-16.534,33.816L241.15,373.168z M225.154,373.117l-23.837,21.962l-17.064-34.349
		C196.886,367.606,210.672,371.914,225.154,373.117z M194.728,406.538c0.77,1.55,2.225,2.647,3.927,2.961
		c0.332,0.062,0.667,0.092,0.999,0.092c1.369,0,2.703-0.512,3.727-1.455l23.109-21.292v69.006
		c-45.541-1.398-88.731-16.415-124.87-43.119c15.271-26.433,38.38-47.892,65.819-61.125L194.728,406.538z M390.807,390.807
		c-5.359,5.359-10.947,10.407-16.735,15.144c-15.868-26.824-39.325-48.774-67.103-62.839c17.36-16.236,30.956-38.073,38.922-63.25
		c0.574,0.034,1.148,0.058,1.72,0.058c6.306,0,12.409-2.05,17.511-5.938c6.159-4.693,10.122-11.504,11.159-19.178
		s-0.978-15.292-5.671-21.451c-4.228-5.549-10.178-9.307-16.926-10.756c-1.129-35.578-13.253-65.217-35.253-85.963
		c-21.521-20.296-50.895-31.023-84.945-31.023s-63.424,10.728-84.945,31.023c-22.034,20.778-34.162,50.476-35.259,86.126
		c-6.445,1.559-12.116,5.247-16.191,10.594c-4.694,6.159-6.708,13.777-5.671,21.451c1.037,7.674,5,14.484,11.159,19.178
		c5.102,3.888,11.204,5.938,17.511,5.938c0.332,0,0.665-0.022,0.998-0.034c7.956,25.134,21.523,46.937,38.844,63.161
		c-27.77,14.048-51.22,36.009-67.077,62.868c-5.773-4.726-11.345-9.762-16.691-15.108C34.143,348.784,11,292.913,11,233.486
		S34.143,118.187,76.165,76.164C118.187,34.143,174.058,11,233.485,11c59.428,0,115.299,23.143,157.321,65.164
		c42.022,42.022,65.165,97.894,65.165,157.321S432.829,348.784,390.807,390.807z"/>
	<g>
		<circle cx="171.225" cy="243.899" r="10.831"/>
		<circle cx="295.746" cy="243.899" r="10.831"/>
	</g>
	<path d="M250.708,309.825c-11.268,2.921-23.177,2.92-34.445,0c-2.938-0.762-5.941,1.004-6.704,3.944
		c-0.762,2.94,1.004,5.942,3.945,6.704c6.536,1.693,13.258,2.54,19.981,2.54c6.723,0,13.445-0.847,19.981-2.54
		c2.94-0.762,4.707-3.764,3.945-6.704C256.649,310.83,253.649,309.062,250.708,309.825z"/>
</g>
<g>
</g>
<g>
</g>
<g>
</g>
<g>
</g>
<g>
</g>
<g>
</g>
<g>
</g>
<g>
</g>
<g>
</g>
<g>
</g>
<g>
</g>
<g>
</g>
<g>
</g>
<g>
</g>
<g>
</g>
</svg>
