<?xml version="1.0" encoding="iso-8859-1"?>
<!-- Generator: Adobe Illustrator 18.0.0, SVG Export Plug-In . SVG Version: 6.00 Build 0)  -->
<!DOCTYPE svg PUBLIC "-//W3C//DTD SVG 1.1//EN" "http://www.w3.org/Graphics/SVG/1.1/DTD/svg11.dtd">
<svg version="1.1" id="Capa_1" xmlns="http://www.w3.org/2000/svg" xmlns:xlink="http://www.w3.org/1999/xlink" x="0px" y="0px"
	 viewBox="0 0 466.971 466.971" style="enable-background:new 0 0 466.971 466.971;" xml:space="preserve">
<g>
	<path d="M246.698,322.52c2.146,0,4.187-1.265,5.071-3.368c1.178-2.8-0.137-6.024-2.937-7.202c-3.488-1.468-9.081-2.31-15.344-2.31
		c-6.268,0-11.862,0.842-15.351,2.31c-2.8,1.178-4.114,4.402-2.937,7.202s4.402,4.113,7.202,2.937
		c1.714-0.721,5.806-1.448,11.085-1.448c5.274,0,9.364,0.728,11.078,1.448C245.263,322.381,245.986,322.52,246.698,322.52z"/>
	<g>
		<path d="M199.993,235.133c-1.849,0.251-5.988-0.108-11.082-1.477c-5.093-1.368-8.854-3.132-10.323-4.273
			c-2.4-1.865-5.854-1.431-7.718,0.968c-1.864,2.399-1.431,5.854,0.968,7.718c1.723,1.338,4.189,2.653,7.113,3.841
			c-1.285,1.781-2.051,3.961-2.051,6.325c0,5.982,4.849,10.831,10.831,10.831c5.982,0,10.831-4.849,10.831-10.831
			c0-0.697-0.072-1.376-0.198-2.036c0.099,0.001,0.204,0.007,0.302,0.007c1.021,0,1.966-0.057,2.813-0.173
			c3.01-0.41,5.117-3.183,4.706-6.192C205.775,236.83,203.009,234.717,199.993,235.133z"/>
		<path d="M288.383,229.383c-1.469,1.142-5.23,2.905-10.323,4.273c-5.096,1.368-9.238,1.723-11.083,1.477
			c-3.02-0.42-5.782,1.696-6.192,4.706c-0.411,3.01,1.696,5.782,4.706,6.192c0.849,0.116,1.791,0.173,2.813,0.173
			c0.121,0,0.251-0.007,0.374-0.009c-0.126,0.661-0.198,1.341-0.198,2.038c0,5.982,4.849,10.831,10.831,10.831
			c5.982,0,10.831-4.849,10.831-10.831c0-2.374-0.772-4.562-2.068-6.347c2.9-1.182,5.346-2.488,7.058-3.818
			c2.398-1.863,2.832-5.318,0.968-7.718C294.236,227.953,290.783,227.517,288.383,229.383z"/>
	</g>
	<path d="M279.979,201.699c-0.408-3.01-3.186-5.122-6.188-4.712c-8.329,1.128-23.777,1.829-40.315,1.829
		c-16.525,0-31.966-0.701-40.296-1.829c-3.017-0.412-5.781,1.701-6.188,4.712c-0.408,3.01,1.702,5.781,4.712,6.188
		c8.916,1.208,24.532,1.929,41.772,1.929c17.254,0,32.877-0.721,41.792-1.929C278.277,207.479,280.388,204.709,279.979,201.699z"/>
	<path d="M183.163,185.364c10.72,1.198,29.527,1.913,50.311,1.913c20.799,0,39.615-0.715,50.335-1.913
		c3.02-0.337,5.193-3.058,4.855-6.076c-0.337-3.019-3.067-5.2-6.076-4.855c-10.185,1.138-29.004,1.845-49.114,1.845
		c-20.095,0-38.905-0.707-49.09-1.845c-3.017-0.346-5.739,1.836-6.076,4.855C177.969,182.307,180.143,185.027,183.163,185.364z"/>
	<path d="M398.585,68.387C354.485,24.287,295.852,0,233.485,0s-121,24.287-165.1,68.387C24.287,112.486,0,171.119,0,233.485
		s24.287,121,68.386,165.1c44.1,44.099,102.733,68.386,165.1,68.386s121-24.287,165.1-68.386
		c44.099-44.1,68.386-102.733,68.386-165.1S442.684,112.486,398.585,68.387z M101.619,412.732
		c12.344-21.366,29.806-39.486,50.54-52.636c19.604,29.8,49.646,47.434,81.331,47.434c31.656,0,61.675-17.6,81.281-47.347
		c20.728,13.152,38.188,31.251,50.537,52.581c-37.977,28.048-83.733,43.206-131.821,43.206
		C185.378,455.971,139.605,440.8,101.619,412.732z M269.418,355.045c1.297-2.11,2.428-4.344,3.355-6.697
		c5.158-13.097,3.433-27.751-4.615-39.201c-9.81-13.956-22.124-21.642-34.675-21.642s-24.866,7.686-34.676,21.642
		c-8.048,11.45-9.773,26.104-4.615,39.201c0.927,2.353,2.057,4.585,3.353,6.695c-43.089-18.39-73.353-68.753-73.353-126.949
		c0-34.921,11.029-63.779,31.896-83.458c19.441-18.334,46.204-28.025,77.395-28.025c31.193,0,57.959,9.691,77.402,28.025
		c20.866,19.678,31.896,48.537,31.896,83.458C342.782,286.291,312.514,336.656,269.418,355.045z M233.483,330.989
		c-3.037,0-5.5,2.463-5.5,5.5v27.157c-0.305-0.055-0.61-0.104-0.915-0.168h0.001c-10.308-2.172-18.771-9.336-22.642-19.162
		c-3.856-9.79-2.624-20.303,3.38-28.844c7.69-10.942,16.81-16.968,25.676-16.968s17.984,6.025,25.675,16.968
		c6.004,8.541,7.236,19.054,3.38,28.844c-3.87,9.826-12.334,16.99-22.641,19.162c-0.304,0.064-0.61,0.113-0.915,0.168v-27.158
		C238.983,333.452,236.52,330.989,233.483,330.989z M215.288,371.813c2.117,0.387,4.19,0.977,6.251,1.595
		c1.07,0.321,2.157,0.601,3.263,0.834h0.001c2.88,0.606,5.779,0.91,8.68,0.91s5.802-0.304,8.682-0.91
		c1.105-0.233,2.192-0.513,3.262-0.833c2.064-0.619,4.138-1.208,6.257-1.596c16.872-3.088,32.507-10.367,46.218-20.892
		c2.491,1.167,4.944,2.406,7.363,3.706c-17.564,26.342-44.033,41.904-71.774,41.904c-27.767,0-54.257-15.594-71.82-41.987
		c2.406-1.291,4.845-2.523,7.323-3.683C182.72,361.418,198.383,368.72,215.288,371.813z M390.807,390.807
		c-5.359,5.359-10.947,10.407-16.735,15.143c-15.854-26.802-39.282-48.734-67.023-62.798c17.399-16.285,30.934-38.173,38.861-63.291
		c0.568,0.033,1.136,0.057,1.701,0.057c6.306,0,12.409-2.05,17.511-5.938c6.159-4.693,10.122-11.504,11.158-19.178
		c1.037-7.674-0.978-15.292-5.671-21.451c-4.227-5.548-10.175-9.305-16.921-10.756c-1.128-35.577-13.253-65.216-35.255-85.963
		c-21.215-20.006-51.383-31.023-84.948-31.023c-33.562,0-63.728,11.018-84.942,31.023c-22.034,20.779-34.162,50.476-35.258,86.124
		c-6.446,1.558-12.117,5.247-16.192,10.594c-4.693,6.159-6.708,13.777-5.671,21.451c1.036,7.674,4.999,14.484,11.158,19.178
		c5.102,3.888,11.204,5.938,17.511,5.938c0.327,0,0.656-0.022,0.984-0.033c7.916,25.074,21.422,46.928,38.779,63.201
		c-27.735,14.049-51.155,35.993-66.997,62.828c-5.773-4.726-11.345-9.762-16.691-15.108C34.143,348.784,11,292.913,11,233.485
		s23.143-115.299,65.164-157.32C118.187,34.143,174.058,11,233.485,11s115.299,23.143,157.321,65.165
		c42.021,42.021,65.164,97.893,65.164,157.32S432.828,348.784,390.807,390.807z M353.677,234.014
		c3.225,1.161,6.056,3.215,8.182,6.005c2.912,3.822,4.162,8.55,3.52,13.312c-0.644,4.763-3.103,8.989-6.925,11.901
		c-2.791,2.128-6.068,3.357-9.486,3.62C351.661,257.707,353.276,246.032,353.677,234.014z M113.306,234.3
		c0.416,11.888,2.02,23.437,4.679,34.469c-3.146-0.377-6.153-1.566-8.74-3.537c-3.822-2.912-6.281-7.139-6.925-11.901
		c-0.643-4.762,0.607-9.489,3.52-13.312C107.806,237.439,110.381,235.498,113.306,234.3z"/>
</g>
<g>
</g>
<g>
</g>
<g>
</g>
<g>
</g>
<g>
</g>
<g>
</g>
<g>
</g>
<g>
</g>
<g>
</g>
<g>
</g>
<g>
</g>
<g>
</g>
<g>
</g>
<g>
</g>
<g>
</g>
</svg>
