<?xml version="1.0" encoding="iso-8859-1"?>
<!-- Generator: Adobe Illustrator 18.0.0, SVG Export Plug-In . SVG Version: 6.00 Build 0)  -->
<!DOCTYPE svg PUBLIC "-//W3C//DTD SVG 1.1//EN" "http://www.w3.org/Graphics/SVG/1.1/DTD/svg11.dtd">
<svg version="1.1" id="Capa_1" xmlns="http://www.w3.org/2000/svg" xmlns:xlink="http://www.w3.org/1999/xlink" x="0px" y="0px"
	 viewBox="0 0 466.971 466.971" style="enable-background:new 0 0 466.971 466.971;" xml:space="preserve">
<g>
	<path d="M398.585,68.386C354.485,24.287,295.852,0,233.485,0s-121,24.287-165.1,68.386C24.287,112.486,0,171.119,0,233.485
		s24.287,121,68.386,165.099c44.1,44.1,102.733,68.386,165.1,68.386s121-24.287,165.1-68.386
		c44.099-44.1,68.386-102.733,68.386-165.099S442.684,112.486,398.585,68.386z M101.619,412.731
		c15.563-26.939,39.265-48.719,67.396-61.883c2.557,1.958,5.17,3.8,7.837,5.516c-0.14,1.626-0.228,3.259-0.228,4.872
		c0,31.349,25.509,56.853,56.862,56.853s56.861-25.504,56.861-56.853c0-1.651-0.087-3.277-0.226-4.867
		c2.641-1.698,5.229-3.522,7.763-5.458c28.137,13.186,51.848,34.954,67.423,61.854c-37.977,28.048-83.733,43.207-131.821,43.207
		C185.378,455.971,139.605,440.8,101.619,412.731z M386.538,306.882c5.645,3.692,12.193,5.421,18.698,5.09
		c-2.45,5.335-6.318,12.396-12.033,19.463c-15.028,18.584-35.122,28.149-59.719,28.488c-8.238-6.407-17.091-12.033-26.432-16.77
		c0.864-0.807,1.722-1.623,2.569-2.459c20.356-20.119,34.798-48.022,40.86-78.762c5.03-3.538,9.441-7.369,13.008-10.823
		c2.183-2.113,2.239-5.595,0.126-7.777c-2.11-2.182-5.595-2.239-7.776-0.126c-4.67,4.521-10.912,9.778-18.032,13.771
		c11.148-24.423,10.423-56.477,10.378-58.117c-0.083-2.984-2.528-5.346-5.495-5.346c-0.051,0-0.102,0-0.153,0.002
		c-3.035,0.083-5.429,2.611-5.348,5.647c0.004,0.158,0.128,5.802-0.495,13.924c-1.93-1.623-3.892-3.195-5.884-4.718
		c1.004-7.78,3.314-30.729-1.159-50.857c-0.658-2.964-3.588-4.835-6.563-4.176c-2.965,0.659-4.835,3.597-4.176,6.563
		c3.247,14.611,2.499,31.427,1.61,41.207c-14.3-9.271-29.877-16.136-46.203-20.417c0.453-6.742,1.139-19.407,0.487-26.586
		c-0.274-3.025-2.95-5.248-5.976-4.98c-3.024,0.275-5.254,2.95-4.979,5.975c0.532,5.857,0.022,16.459-0.398,23.146
		c-9.659-1.818-19.531-2.755-29.518-2.755c-0.044,0-0.092,0-0.137,0c-31.274,0-61.294,9.011-86.998,25.866
		c-0.899-9.741-1.688-26.719,1.587-41.456c0.659-2.965-1.211-5.903-4.176-6.563c-2.964-0.659-5.903,1.211-6.563,4.176
		c-4.536,20.409-2.096,43.73-1.117,51.185c-1.954,1.516-3.88,3.079-5.772,4.692c-0.65-8.285-0.522-14.066-0.518-14.226
		c0.083-3.036-2.31-5.564-5.346-5.648c-3.029-0.098-5.566,2.309-5.65,5.345c-0.045,1.64-0.771,33.694,10.378,58.117
		c-7.12-3.993-13.362-9.25-18.032-13.771c-2.181-2.113-5.664-2.056-7.776,0.126c-2.113,2.183-2.057,5.665,0.126,7.777
		c3.442,3.333,7.671,7.017,12.482,10.451c6.013,30.831,20.443,58.826,40.824,79.022c0.86,0.852,1.732,1.682,2.609,2.503
		c-9.372,4.747-18.252,10.393-26.512,16.827c-24.237-0.451-44.086-9.903-58.993-28.164c-5.825-7.135-9.776-14.344-12.273-19.775
		c6.504,0.315,13.045-1.403,18.684-5.091c8.888-5.813,14.193-15.625,14.193-26.245v-68.644c0-37.252,14.406-72.362,40.565-98.862
		c26.218-26.56,61.05-41.183,98.098-41.183c0.021,0,0.048,0,0.067,0c37.042,0,71.879,14.625,98.095,41.183
		c26.16,26.5,40.566,61.61,40.566,98.862v68.644C372.345,291.257,377.65,301.068,386.538,306.882z M233.483,373.471
		c15.805,0,31.388-3.792,45.831-10.966c-0.677,24.697-20.967,44.584-45.829,44.584c-24.863,0-45.155-19.887-45.83-44.586
		C202.096,369.679,217.678,373.471,233.483,373.471z M233.483,362.471c-25.199,0-48.885-10.271-68.495-29.703
		c-16.675-16.523-29.058-38.785-35.561-63.586c3.956,1.814,8.118,3.272,12.441,4.136c0.36,0.072,0.722,0.107,1.079,0.107
		c1.939,0,3.771-1.029,4.765-2.755c1.179-2.045,0.92-4.614-0.642-6.384c-8.392-9.511-12.614-24.402-14.732-37.547
		c27.649-26.033,63.563-40.251,101.464-40.251c0.042,0,0.088,0,0.127,0c37.517,0,73.34,14.137,101.209,39.943
		c-2.102,13.219-6.323,28.269-14.78,37.855c-1.562,1.77-1.82,4.339-0.642,6.384c0.994,1.727,2.825,2.755,4.765,2.755
		c0.357,0,0.719-0.035,1.079-0.107c4.135-0.827,8.126-2.194,11.928-3.899c-6.53,24.758-18.928,46.974-35.6,63.451
		C282.296,352.235,258.642,362.471,233.483,362.471z M390.807,390.806c-5.359,5.359-10.947,10.407-16.735,15.144
		c-7.846-13.264-17.551-25.333-28.713-35.85c28.029-3.702,45.932-18.804,56.399-31.748c12.926-15.986,17.426-31.883,17.611-32.552
		c0.566-2.045-0.095-4.233-1.697-5.623c-1.604-1.391-3.864-1.733-5.808-0.884c-6.411,2.804-13.446,2.214-19.304-1.616
		c-5.856-3.831-9.215-10.042-9.215-17.04v-68.644c0-40.163-15.533-78.018-43.738-106.589c-28.301-28.67-65.913-44.455-105.92-44.455
		c-0.021,0-0.05,0-0.073,0c-40.007,0-77.624,15.787-105.923,44.455c-28.204,28.572-43.737,66.426-43.737,106.589v68.644
		c0,6.998-3.358,13.209-9.215,17.04c-5.855,3.831-12.892,4.419-19.304,1.616c-1.946-0.851-4.204-0.507-5.808,0.884
		c-1.603,1.39-2.264,3.578-1.697,5.623c0.186,0.669,4.686,16.566,17.611,32.552c10.417,12.882,28.201,27.897,55.999,31.691
		c-11.152,10.52-20.848,22.596-28.685,35.872c-5.773-4.726-11.345-9.762-16.691-15.108C34.143,348.784,11,292.913,11,233.485
		c0-59.428,23.143-115.299,65.164-157.321C118.187,34.143,174.058,11,233.485,11s115.299,23.143,157.321,65.165
		c42.021,42.021,65.164,97.893,65.164,157.321C455.971,292.913,432.828,348.784,390.807,390.806z"/>
	<path d="M250.044,314.96c-4.462,4.284-10.346,6.643-16.565,6.643c-6.212,0-12.091-2.359-16.553-6.643
		c-2.191-2.104-5.673-2.032-7.776,0.159c-2.104,2.191-2.032,5.673,0.159,7.777c6.521,6.26,15.104,9.707,24.17,9.707
		c9.074,0,17.662-3.447,24.183-9.707c2.191-2.104,2.263-5.585,0.159-7.777C255.717,312.928,252.236,312.856,250.044,314.96z"/>
	<path d="M192.837,252.234c-5.346-5.737-13.63-7.834-21.125-5.198c-2.924,1.028-6.222,0.437-8.607-1.542
		c-2.338-1.94-5.807-1.616-7.744,0.721c-1.939,2.338-1.617,5.805,0.721,7.745c5.28,4.38,12.553,5.717,19.043,3.528
		c-0.602,2.26-0.489,4.727,0.503,7.043c2.355,5.499,8.722,8.047,14.221,5.692c5.499-2.355,8.047-8.722,5.692-14.221
		C194.903,254.514,193.965,253.251,192.837,252.234z"/>
	<path d="M310.889,253.958c2.338-1.939,2.661-5.407,0.722-7.745c-1.94-2.338-5.406-2.662-7.745-0.721
		c-2.386,1.979-5.685,2.571-8.608,1.542c-7.498-2.636-15.778-0.539-21.121,5.196c-1.129,1.018-2.068,2.281-2.706,3.77
		c-2.355,5.499,0.194,11.865,5.692,14.221c5.499,2.355,11.866-0.193,14.221-5.692c0.992-2.316,1.104-4.784,0.502-7.043
		C298.335,259.676,305.609,258.338,310.889,253.958z"/>
</g>
<g>
</g>
<g>
</g>
<g>
</g>
<g>
</g>
<g>
</g>
<g>
</g>
<g>
</g>
<g>
</g>
<g>
</g>
<g>
</g>
<g>
</g>
<g>
</g>
<g>
</g>
<g>
</g>
<g>
</g>
</svg>
