<?xml version="1.0" encoding="iso-8859-1"?>
<!-- Generator: Adobe Illustrator 18.0.0, SVG Export Plug-In . SVG Version: 6.00 Build 0)  -->
<!DOCTYPE svg PUBLIC "-//W3C//DTD SVG 1.1//EN" "http://www.w3.org/Graphics/SVG/1.1/DTD/svg11.dtd">
<svg version="1.1" id="Capa_1" xmlns="http://www.w3.org/2000/svg" xmlns:xlink="http://www.w3.org/1999/xlink" x="0px" y="0px"
	 viewBox="0 0 466.971 466.971" style="enable-background:new 0 0 466.971 466.971;" xml:space="preserve">
<g>
	<path d="M398.585,68.386C354.486,24.287,295.852,0,233.486,0s-121,24.287-165.1,68.386C24.287,112.486,0,171.12,0,233.486
		s24.287,121,68.386,165.099c44.1,44.1,102.733,68.386,165.1,68.386s121-24.287,165.1-68.386
		c44.099-44.1,68.386-102.733,68.386-165.099S442.684,112.486,398.585,68.386z M101.619,412.732
		c13.338-23.087,32.654-42.382,55.614-55.714c10.096,33.1,41.055,56.433,76.233,56.433c35.144,0,66.094-23.302,76.215-56.357
		c22.96,13.343,42.281,32.622,55.626,55.671c-37.977,28.048-83.733,43.207-131.821,43.207
		C185.378,455.971,139.605,440.801,101.619,412.732z M136.455,130.621c-0.563-1.724-1.938-3.061-3.677-3.572l-6.225-1.832
		c15.42-6.93,39.016-17.66,44.276-20.767c1.69-0.999,2.721-2.822,2.703-4.785c-0.018-1.963-1.08-3.768-2.788-4.736l-4.727-2.678
		c18.177-1.096,43.841-2.732,49.368-3.541c1.977-0.289,3.641-1.627,4.348-3.496c0.706-1.868,0.345-3.973-0.945-5.498l-4.79-5.661
		c18.042,6.689,41.456,15.261,44.911,15.988c1.802,0.38,3.677-0.169,4.99-1.461c1.313-1.292,1.893-3.156,1.542-4.965l-1.407-7.271
		c13.002,11.919,28.856,26.27,31.461,27.792c1.644,0.961,3.665,1.003,5.348,0.114c1.683-0.89,2.785-2.585,2.916-4.484l0.618-8.987
		c16.449,16.183,52.239,58.446,52.239,119.765c0,4.239-0.237,8.462-0.66,12.635c-0.582-0.176-1.171-0.335-1.769-0.475
		l-29.852-40.976c2.451-1.601,3.242-4.85,1.735-7.393c-1.549-2.614-4.925-3.475-7.535-1.927l-1.829,1.084
		c-27.805,16.476-60.504,21.731-92.065,14.795l-15.247-3.35c-32.313-7.098-66.139-2.352-95.248,13.368
		c-2.673,1.443-3.67,4.78-2.227,7.453c0.995,1.842,2.889,2.888,4.845,2.888c0.882,0,1.777-0.213,2.608-0.662
		c0.038-0.021,0.077-0.04,0.115-0.061l-8.701,14.788c-0.391-4.017-0.612-8.059-0.612-12.094c0-8.478,0.869-16.96,2.584-25.211
		c0.377-1.813-0.185-3.695-1.493-5.006c-1.309-1.31-3.19-1.875-5.005-1.5l-2.105,0.435c9.803-13.841,25.764-36.275,31.433-43.662
		C136.693,134.235,137.017,132.345,136.455,130.621z M353.675,234.014c7.789,2.82,12.857,10.781,11.705,19.317
		c-0.644,4.762-3.103,8.989-6.925,11.902c-2.793,2.128-6.07,3.357-9.491,3.62C351.656,257.729,353.273,246.059,353.675,234.014z
		 M358.29,279.058c3.848,0,6.979,3.13,6.979,6.979s-3.131,6.979-6.979,6.979s-6.979-3.131-6.979-6.979
		S354.443,279.058,358.29,279.058z M113.31,234.305c0.417,11.911,2.023,23.456,4.682,34.465c-3.15-0.375-6.157-1.564-8.746-3.537
		c-3.822-2.913-6.281-7.14-6.925-11.902C101.204,245.063,105.932,237.345,113.31,234.305z M115.612,286.037
		c0,3.848-3.131,6.979-6.979,6.979s-6.979-3.131-6.979-6.979s3.131-6.979,6.979-6.979S115.612,282.188,115.612,286.037z
		 M124.193,228.094c0-2.268,0.058-4.518,0.151-6.731l12.443-21.147c22.404-8.047,46.762-9.694,70.248-4.534l15.246,3.35
		c31.447,6.909,63.925,2.675,92.394-11.875l28.079,38.635c0.011,0.767,0.029,1.529,0.029,2.303
		c0,74.096-49.031,134.377-109.299,134.377C173.22,362.471,124.193,302.19,124.193,228.094z M169.072,350.821
		c18.634,14.335,40.734,22.65,64.412,22.65c23.646,0,45.718-8.292,64.336-22.59c0.647,0.303,1.289,0.615,1.931,0.927
		c-8.039,29.58-35.261,50.642-66.284,50.642c-31.055,0-58.285-21.094-66.299-50.715
		C167.801,351.428,168.434,351.119,169.072,350.821z M390.807,390.807c-5.359,5.359-10.947,10.407-16.735,15.144
		c-15.868-26.823-39.326-48.773-67.103-62.839c14.455-13.518,26.3-30.918,34.46-50.897c2.527,6.875,9.122,11.802,16.862,11.802
		c9.913,0,17.979-8.065,17.979-17.979c0-6.194-3.148-11.666-7.929-14.9c4.32-4.424,7.097-10.093,7.94-16.333
		c1.366-10.116-2.691-19.732-9.924-25.923c0.822-6.02,1.262-12.167,1.262-18.336c0-44.203-17.514-78.729-32.205-99.908
		c-15.908-22.933-31.701-35.349-32.365-35.866c-1.604-1.249-3.766-1.512-5.623-0.682c-1.856,0.83-3.104,2.616-3.243,4.644
		l-0.651,9.468c-8.33-7.39-21.927-19.795-34.338-31.27c-1.746-1.614-4.331-1.923-6.408-0.767c-2.077,1.156-3.177,3.517-2.725,5.851
		l2.806,14.498c-13.014-4.589-37.933-13.816-54.711-20.106c-2.341-0.878-4.985-0.064-6.427,1.983
		c-1.442,2.046-1.319,4.808,0.297,6.719l11.551,13.653c-14.966,1.139-41.487,2.73-56.786,3.598c-2.436,0.138-4.489,1.864-5.044,4.24
		c-0.556,2.376,0.521,4.833,2.644,6.036l11.99,6.794c-13.49,6.431-37.446,17.177-47.918,21.825
		c-2.108,0.936-3.408,3.087-3.257,5.389c0.151,2.301,1.724,4.264,3.936,4.915l12.961,3.813
		c-11.654,15.912-33.884,47.452-34.975,49.001c-1.3,1.845-1.341,4.296-0.104,6.184s3.498,2.826,5.713,2.371l7.825-1.617
		c-0.92,6.38-1.384,12.845-1.384,19.306c0,6.353,0.452,12.729,1.339,19c-6.71,6.202-10.408,15.463-9.095,25.186
		c0.824,6.1,3.503,11.651,7.658,16.031c-5.051,3.186-8.424,8.801-8.424,15.202c0,9.914,8.065,17.979,17.979,17.979
		c7.765,0,14.376-4.958,16.886-11.867c8.147,19.975,19.976,37.374,34.414,50.898c-27.771,14.048-51.221,36.009-67.078,62.868
		c-5.773-4.726-11.345-9.762-16.691-15.108C34.143,348.785,11,292.914,11,233.486c0-59.428,23.143-115.299,65.164-157.321
		C118.187,34.143,174.058,11,233.486,11s115.299,23.143,157.321,65.165c42.021,42.022,65.164,97.893,65.164,157.321
		C455.971,292.914,432.828,348.785,390.807,390.807z"/>
	<path d="M286.253,261.605c1.69-1.863,2.601-4.155,2.771-6.483c3.515,2.707,7.816,4.127,12.159,4.127
		c2.354,0,4.72-0.415,6.974-1.265c2.843-1.071,4.278-4.244,3.207-7.086c-1.07-2.843-4.243-4.277-7.086-3.207
		c-2.902,1.093-6.212,0.575-8.642-1.349c-6.252-4.954-14.809-5.66-21.748-1.93c-1.358,0.594-2.619,1.469-3.679,2.638
		c-4.019,4.43-3.686,11.28,0.744,15.299C275.384,266.369,282.234,266.036,286.253,261.605z"/>
	<path d="M177.988,255.093c0.164,2.339,1.076,4.642,2.773,6.512c4.019,4.43,10.869,4.764,15.299,0.745
		c4.43-4.019,4.764-10.869,0.745-15.299c-1.122-1.237-2.469-2.142-3.918-2.735c-6.904-3.614-15.359-2.881-21.554,2.027
		c-2.429,1.925-5.738,2.442-8.64,1.349c-2.844-1.071-6.016,0.364-7.086,3.207c-1.071,2.842,0.364,6.015,3.207,7.086
		c2.254,0.85,4.619,1.265,6.974,1.265C170.146,259.25,174.467,257.819,177.988,255.093z"/>
	<path d="M233.461,326.591c6.747,0,13.133-2.563,17.982-7.219c2.191-2.104,2.263-5.585,0.159-7.776
		c-2.104-2.19-5.585-2.263-7.776-0.159c-2.791,2.679-6.472,4.154-10.365,4.154c-3.887,0-7.564-1.476-10.355-4.154
		c-2.191-2.104-5.673-2.033-7.776,0.159c-2.104,2.191-2.032,5.673,0.159,7.776C220.338,324.027,226.721,326.591,233.461,326.591z"/>
</g>
<g>
</g>
<g>
</g>
<g>
</g>
<g>
</g>
<g>
</g>
<g>
</g>
<g>
</g>
<g>
</g>
<g>
</g>
<g>
</g>
<g>
</g>
<g>
</g>
<g>
</g>
<g>
</g>
<g>
</g>
</svg>
