<?xml version="1.0" encoding="iso-8859-1"?>
<!-- Generator: Adobe Illustrator 18.0.0, SVG Export Plug-In . SVG Version: 6.00 Build 0)  -->
<!DOCTYPE svg PUBLIC "-//W3C//DTD SVG 1.1//EN" "http://www.w3.org/Graphics/SVG/1.1/DTD/svg11.dtd">
<svg version="1.1" id="Capa_1" xmlns="http://www.w3.org/2000/svg" xmlns:xlink="http://www.w3.org/1999/xlink" x="0px" y="0px"
	 viewBox="0 0 466.971 466.971" style="enable-background:new 0 0 466.971 466.971;" xml:space="preserve">
<g>
	<path d="M251.188,336.709c2.191-2.104,2.263-5.585,0.159-7.776c-2.104-2.19-5.585-2.263-7.776-0.159
		c-2.791,2.679-6.472,4.154-10.365,4.154c-3.887,0-7.565-1.476-10.356-4.154c-2.191-2.104-5.672-2.032-7.776,0.159
		c-2.104,2.191-2.032,5.673,0.159,7.776c4.85,4.655,11.232,7.219,17.973,7.219C239.953,343.928,246.338,341.365,251.188,336.709z"/>
	<path d="M202.993,264.613c-2.612-1.553-5.986-0.694-7.538,1.917c-2.496,4.198-6.905,6.705-11.794,6.705
		c-4.884,0-9.29-2.507-11.786-6.705c-1.552-2.611-4.928-3.47-7.538-1.917c-2.611,1.552-3.469,4.927-1.917,7.538
		c4.431,7.454,12.57,12.084,21.241,12.084c8.676,0,16.818-4.63,21.25-12.084C206.462,269.54,205.604,266.165,202.993,264.613z"/>
	<path d="M283.35,284.235c8.676,0,16.818-4.63,21.25-12.083c1.553-2.611,0.694-5.986-1.917-7.539
		c-2.609-1.551-5.986-0.695-7.538,1.917c-2.496,4.199-6.906,6.706-11.795,6.706c-4.884,0-9.29-2.507-11.786-6.706
		c-1.553-2.61-4.929-3.467-7.538-1.917c-2.611,1.553-3.47,4.928-1.917,7.539C266.541,279.604,274.68,284.235,283.35,284.235z"/>
	<path d="M398.584,68.386C354.486,24.287,295.852,0,233.485,0c-62.366,0-121,24.287-165.099,68.386S0,171.119,0,233.486
		s24.287,121,68.386,165.099s102.733,68.386,165.099,68.386c62.367,0,121-24.287,165.1-68.386
		c44.099-44.1,68.386-102.733,68.386-165.099S442.684,112.486,398.584,68.386z M356.489,381.632
		c-13.887-15.892-30.79-29.077-49.682-38.612c9.842-9.199,18.538-20.249,25.682-32.862v40.33c0,3.038,2.463,5.5,5.5,5.5
		s5.5-2.462,5.5-5.5v-60.017c0-60.701-49.346-110.084-110-110.084s-110,49.407-110,110.137v59.964c0,3.038,2.462,5.5,5.5,5.5
		s5.5-2.462,5.5-5.5v-39.261c6.983,12.112,15.474,22.881,25.194,31.954c-18.7,9.504-35.432,22.599-49.194,38.368V210.617
		c0-67.963,55.178-123.255,123-123.255s123,55.261,123,123.186V381.632z M134.596,286.008c2.367-52.575,45.816-94.62,98.893-94.62
		c52.666,0,95.852,41.374,98.83,93.351c-17.916,47.253-56.715,77.732-99.113,77.732
		C191.307,362.471,152.694,332.485,134.596,286.008z M101.638,412.745c15.531-26.89,39.163-48.636,67.211-61.808
		c19.229,14.735,41.434,22.534,64.358,22.534c23.29,0,45.536-8.174,64.441-22.677c28.235,13.163,52.041,34.974,67.678,61.957
		c-37.981,28.056-83.744,43.22-131.84,43.22C185.386,455.971,139.62,440.805,101.638,412.745z M390.807,390.806
		c-5.354,5.354-10.936,10.398-16.719,15.131c-2.072-3.499-4.277-6.912-6.599-10.239v-185.15c0-73.99-60.112-134.186-134-134.186
		s-134,60.227-134,134.255V395.64c-2.329,3.343-4.54,6.772-6.615,10.289c-5.779-4.73-11.357-9.771-16.709-15.122
		C34.143,348.784,11,292.913,11,233.486c0-59.428,23.143-115.299,65.165-157.321S174.058,11,233.485,11
		c59.428,0,115.299,23.143,157.322,65.165c42.021,42.021,65.164,97.893,65.164,157.321
		C455.971,292.913,432.829,348.784,390.807,390.806z"/>
</g>
<g>
</g>
<g>
</g>
<g>
</g>
<g>
</g>
<g>
</g>
<g>
</g>
<g>
</g>
<g>
</g>
<g>
</g>
<g>
</g>
<g>
</g>
<g>
</g>
<g>
</g>
<g>
</g>
<g>
</g>
</svg>
