<?xml version="1.0" encoding="iso-8859-1"?>
<!-- Generator: Adobe Illustrator 18.0.0, SVG Export Plug-In . SVG Version: 6.00 Build 0)  -->
<!DOCTYPE svg PUBLIC "-//W3C//DTD SVG 1.1//EN" "http://www.w3.org/Graphics/SVG/1.1/DTD/svg11.dtd">
<svg version="1.1" id="Capa_1" xmlns="http://www.w3.org/2000/svg" xmlns:xlink="http://www.w3.org/1999/xlink" x="0px" y="0px"
	 viewBox="0 0 466.972 466.972" style="enable-background:new 0 0 466.972 466.972;" xml:space="preserve">
<g>
	<path d="M398.586,68.387C354.485,24.287,295.852,0,233.486,0c-62.366,0-121,24.287-165.099,68.387S0,171.119,0,233.485
		s24.287,121,68.386,165.1s102.733,68.387,165.099,68.387c62.367,0,121-24.287,165.1-68.387
		c44.099-44.1,68.386-102.733,68.386-165.1S442.684,112.486,398.586,68.387z M101.619,412.732
		c15.574-26.958,39.298-48.75,67.455-61.91c14.638,11.26,31.414,18.804,49.415,21.521v12.146c0,3.037,2.462,5.5,5.5,5.5
		s5.5-2.463,5.5-5.5v-11.107c1.327,0.053,2.657,0.089,3.995,0.089c1.341,0,2.675-0.036,4.005-0.089v11.108
		c0,3.037,2.463,5.5,5.5,5.5s5.5-2.463,5.5-5.5v-12.148c17.966-2.713,34.713-10.235,49.33-21.46
		c28.165,13.183,51.902,34.964,67.488,61.883c-37.977,28.048-83.733,43.207-131.822,43.207
		C185.378,455.972,139.605,440.801,101.619,412.732z M113.31,234.298c0.416,11.914,2.022,23.46,4.682,34.471
		c-3.149-0.375-6.157-1.564-8.746-3.537c-3.822-2.912-6.281-7.139-6.924-11.901c-0.644-4.762,0.606-9.489,3.519-13.312
		C107.808,237.438,110.384,235.497,113.31,234.298z M353.675,234.013c3.226,1.161,6.058,3.215,8.185,6.006
		c2.912,3.822,4.162,8.55,3.52,13.312c-0.644,4.763-3.103,8.989-6.925,11.901c-2.793,2.128-6.073,3.358-9.491,3.621
		C351.656,257.729,353.274,246.058,353.675,234.013z M372.443,265.802c2.402,1.677,3.931,4.459,3.931,7.568
		c0,5.093-4.144,9.236-9.236,9.236c-3.589,0-6.683-2.022-8.214-5.008c2.181-0.934,4.262-2.142,6.198-3.617
		C368.108,271.706,370.573,268.93,372.443,265.802z M311.979,169.466c-26.696-3.99-53.583-5.984-80.481-5.984
		c-25.686,0-51.382,1.82-76.9,5.46l-62.068,8.854l0.254-74.665c0.003-1.03,0.408-1.997,1.139-2.724
		c0.728-0.723,1.692-1.12,2.725-1.12c0.005,0,0.009,0,0.014,0l0.502,0.001c28.418,0.091,55.239-14.753,69.968-38.756
		c14.371-23.42,39.29-37.377,66.706-37.377c0.09,0,0.185,0.001,0.276,0.001c27.523,0.094,52.467,14.236,66.726,37.831
		c14.563,24.102,41.271,39.134,69.702,39.231c2.127,0.007,3.851,1.743,3.844,3.87l-0.254,74.667L311.979,169.466z M156.152,179.832
		c51.185-7.302,103.065-7.129,154.203,0.513l25.602,3.827c0.961,2.793,1.819,5.66,2.578,8.593l-26.558-3.97
		c-52.183-7.8-105.133-7.977-157.383-0.526l-25.946,3.703c0.781-2.935,1.662-5.801,2.647-8.594L156.152,179.832z M126.174,203.437
		l29.973-4.277c15.387-2.194,30.837-3.7,46.309-4.544L189.21,215.1c-4.209-1.74-8.817-2.707-13.648-2.707
		c-19.762,0-35.84,16.078-35.84,35.84c0,10.246,4.328,19.494,11.244,26.032l-12.721,19.676
		c-8.94-19.471-14.051-41.938-14.051-65.847C124.194,219.494,124.86,211.259,126.174,203.437z M150.722,248.233
		c0-13.696,11.144-24.84,24.84-24.84s24.84,11.144,24.84,24.84c0,13.697-11.143,24.841-24.84,24.841
		S150.722,261.931,150.722,248.233z M160.018,280.524c4.705,2.274,9.978,3.55,15.544,3.55c19.762,0,35.84-16.078,35.84-35.841
		c0-10.99-4.977-20.836-12.79-27.416l17.308-26.766c31.54-0.922,63.127,0.943,94.431,5.622l30.583,4.572
		c1.226,7.583,1.85,15.546,1.85,23.848c0,67.837-41.101,124.085-94.294,133.105v-11.709c0-3.037-2.463-5.5-5.5-5.5
		s-5.5,2.463-5.5,5.5v12.882c-1.33,0.059-2.664,0.1-4.005,0.1c-1.338,0-2.668-0.04-3.995-0.099v-12.882c0-3.037-2.462-5.5-5.5-5.5
		s-5.5,2.463-5.5,5.5V361.2c-30.704-5.203-57.377-26.143-74.444-55.97L160.018,280.524z M390.807,390.807
		c-5.359,5.359-10.947,10.407-16.735,15.144c-15.868-26.823-39.326-48.773-67.104-62.839c17.361-16.236,30.958-38.073,38.925-63.25
		c0.573,0.034,1.146,0.058,1.718,0.058c0.12,0,0.239-0.013,0.359-0.015c2.706,8.018,10.251,13.702,19.167,13.702
		c11.158,0,20.236-9.078,20.236-20.236c0-7.852-4.464-14.742-11.171-18.084c0.025-0.161,0.055-0.32,0.077-0.482
		c1.037-7.674-0.978-15.292-5.671-21.451c-4.227-5.547-10.175-9.305-16.92-10.755c-0.411-13.032-2.285-25.298-5.61-36.614
		l30.718,4.591c0.271,0.041,0.543,0.061,0.813,0.061c1.306,0,2.579-0.465,3.583-1.327c1.212-1.041,1.911-2.557,1.917-4.154
		l0.275-81.028c0.014-3.969-1.52-7.705-4.315-10.521c-2.797-2.815-6.522-4.373-10.491-4.387
		c-24.617-0.084-47.732-13.082-60.325-33.921c-16.26-26.906-44.71-43.034-76.103-43.142c-0.105,0-0.209,0-0.314,0
		c-31.269,0-59.692,15.916-76.08,42.622c-12.693,20.687-35.785,33.51-60.321,33.51c-0.08,0-0.161,0-0.241,0l-0.503-0.001
		c-0.017,0-0.034,0-0.052,0c-3.949,0-7.665,1.531-10.468,4.315c-2.815,2.797-4.374,6.522-4.387,10.491l-0.276,81.027
		c-0.005,1.598,0.684,3.118,1.889,4.167c1.206,1.049,2.805,1.52,4.388,1.297l31.372-4.475c-3.499,11.604-5.463,24.216-5.874,37.649
		c-6.446,1.559-12.118,5.247-16.192,10.594c-4.693,6.159-6.708,13.777-5.671,21.451s5,14.484,11.159,19.178
		c5.102,3.888,11.204,5.938,17.511,5.938c0.332,0,0.667-0.022,1-0.034c7.956,25.134,21.523,46.937,38.844,63.161
		c-27.771,14.047-51.221,36.008-67.078,62.869c-5.773-4.726-11.345-9.762-16.69-15.108C34.143,348.784,11,292.913,11,233.485
		s23.143-115.299,65.165-157.32C118.187,34.143,174.058,11,233.486,11c59.428,0,115.299,23.143,157.322,65.165
		c42.021,42.021,65.164,97.893,65.164,157.32S432.829,348.785,390.807,390.807z"/>
	<path d="M211.657,310.902c-1.955,2.324-1.655,5.794,0.669,7.749c4.692,3.946,12.6,6.302,21.155,6.302
		c8.561,0,16.472-2.355,21.164-6.302c2.325-1.955,2.624-5.425,0.669-7.749c-1.956-2.326-5.426-2.624-7.749-0.669
		c-2.04,1.716-6.953,3.72-14.083,3.72c-7.124,0-12.034-2.004-14.075-3.72C217.082,308.277,213.612,308.577,211.657,310.902z"/>
	<path d="M233.486,43.354c-19.762,0-35.84,16.078-35.84,35.841c0,19.762,16.078,35.84,35.84,35.84s35.84-16.078,35.84-35.84
		C269.326,59.433,253.248,43.354,233.486,43.354z M258.326,79.195c0,4.836-1.394,9.35-3.794,13.171L241.35,79.184l13.173-13.174
		C256.928,69.834,258.326,74.354,258.326,79.195z M246.762,58.216l-13.19,13.19l-13.258-13.258c3.821-2.4,8.335-3.794,13.171-3.794
		C238.366,54.354,242.919,55.775,246.762,58.216z M212.507,92.471c-2.441-3.844-3.862-8.396-3.862-13.276
		c0-4.886,1.424-9.444,3.87-13.29l13.279,13.279L212.507,92.471z M220.302,100.233l13.271-13.271l13.203,13.203
		c-3.846,2.447-8.404,3.871-13.29,3.871C228.644,104.035,224.125,102.638,220.302,100.233z"/>
	<g>
		<path d="M193.612,308.336c0.723,0,1.458-0.143,2.164-0.445l24.272-10.402c2.792-1.197,4.085-4.431,2.889-7.223
			c-1.196-2.791-4.431-4.085-7.222-2.889l-24.272,10.402c-2.792,1.197-4.085,4.431-2.889,7.223
			C189.448,307.087,191.479,308.336,193.612,308.336z"/>
		<path d="M246.922,297.488l24.272,10.402c0.707,0.303,1.441,0.445,2.164,0.445c2.134,0,4.164-1.249,5.059-3.334
			c1.196-2.792-0.097-6.025-2.889-7.223l-24.272-10.402c-2.794-1.196-6.024,0.098-7.223,2.889
			C242.837,293.058,244.13,296.291,246.922,297.488z"/>
	</g>
	<path d="M271.929,254.589c0.18,0,1.138-0.009,2.636-0.146c0.509,5.509,5.139,9.823,10.78,9.823c5.982,0,10.831-4.849,10.831-10.831
		c0-2.099-0.607-4.051-1.64-5.711c4.074-2.677,7.933-6.396,10.806-11.568c1.476-2.655,0.519-6.004-2.137-7.479
		c-2.654-1.477-6.003-0.52-7.479,2.137c-6.947,12.504-23.651,12.773-23.819,12.774c-3.028,0.011-5.479,2.469-5.479,5.5
		C266.429,252.126,268.892,254.589,271.929,254.589z"/>
</g>
<g>
</g>
<g>
</g>
<g>
</g>
<g>
</g>
<g>
</g>
<g>
</g>
<g>
</g>
<g>
</g>
<g>
</g>
<g>
</g>
<g>
</g>
<g>
</g>
<g>
</g>
<g>
</g>
<g>
</g>
</svg>
