<?xml version="1.0" encoding="iso-8859-1"?>
<!-- Generator: Adobe Illustrator 18.0.0, SVG Export Plug-In . SVG Version: 6.00 Build 0)  -->
<!DOCTYPE svg PUBLIC "-//W3C//DTD SVG 1.1//EN" "http://www.w3.org/Graphics/SVG/1.1/DTD/svg11.dtd">
<svg version="1.1" id="Capa_1" xmlns="http://www.w3.org/2000/svg" xmlns:xlink="http://www.w3.org/1999/xlink" x="0px" y="0px"
	 viewBox="0 0 466.972 466.972" style="enable-background:new 0 0 466.972 466.972;" xml:space="preserve">
<g>
	<path d="M399.043,68.847C355.067,24.625,296.501,0.175,234.135,0.001C233.911,0,233.691,0,233.466,0
		C171.351,0,112.91,24.109,68.846,67.928C24.625,111.905,0.174,170.471,0.001,232.836c-0.174,62.366,23.95,121.066,67.927,165.289
		c43.977,44.222,102.542,68.672,164.907,68.846c0.225,0.001,0.442,0.001,0.667,0.001c62.115,0,120.56-24.11,164.622-67.929
		c44.222-43.977,68.672-102.542,68.846-164.907C467.144,171.77,443.02,113.069,399.043,68.847z M233.501,455.972
		c-0.21,0-0.425,0-0.635-0.001c-47.897-0.133-93.436-15.303-131.246-43.243c9.125-15.787,21.205-30.016,35.303-41.607
		c21.751,29.795,56.931,49.194,96.563,49.194c39.597,0,74.751-19.365,96.506-49.117c14.103,11.592,26.188,25.808,35.318,41.569
		C327.324,440.823,281.57,455.972,233.501,455.972z M352.978,233.784c3.515,1.105,6.604,3.245,8.882,6.236
		c2.912,3.822,4.162,8.55,3.52,13.312c-0.644,4.763-3.103,8.989-6.925,11.901c-1.674,1.276-3.528,2.212-5.477,2.831V233.784z
		 M267.916,189.014c2.935,3.745,6.986,2.188,12.591-0.05c21.444-8.569,45.286-13.867,60.017,10.354
		c0.42,3.875,0.744,7.825,0.983,11.945l-23.017,40.633c-8.854,15.628-27.204,23.493-44.629,19.134
		c-26.412-6.616-54.334-6.616-80.748,0c-17.42,4.363-35.775-3.505-44.629-19.134l-21.29-37.585
		c6.256-18.708,24.096-39.341,58.192-47.599C218.62,158.662,251.013,167.436,267.916,189.014z M286.176,174.988
		c1.33-2.407,2.647-5.045,3.842-7.899c6.1-14.562,6.639-28.592,1.688-41.081c5.728,0.391,13.999,2.278,22.145,8.814
		c10.95,8.787,18.829,23.757,23.414,44.171C320.519,166.4,299.97,170.397,286.176,174.988z M278.477,124.089
		c4.973,8.065,6.62,17.025,4.959,26.745c-7.756-12.376-24.528-31.089-56.871-36.255c-3.008-0.492-5.819,1.563-6.298,4.563
		c-0.479,2.999,1.563,5.819,4.563,6.298c40.721,6.505,52.814,37.326,53.825,40.106c-0.911,1.929-1.869,3.733-2.826,5.387
		c-3.083-5.25-7.95-12.037-15.204-18.516c-13.284-11.864-37.438-24.965-77.11-20.01c-3.014,0.377-5.151,3.126-4.775,6.141
		c0.378,3.014,3.126,5.147,6.141,4.775c28.306-3.542,51.19,2.16,68.01,16.937c2.253,1.98,4.24,4,5.99,5.985
		c-20.354-12.974-48.052-17.045-76.087-10.256c-29.297,7.096-51.973,24.204-62.67,46.368c-2.122-27.577,0.436-67.108,27.286-89.383
		c20.115-16.688,40.556-25.109,60.885-25.109c2.719,0,5.439,0.15,8.153,0.453C252.144,92.288,276.295,121.37,278.477,124.089z
		 M113.301,234.302c0.116,3.519,0.346,7.008,0.693,10.658v22.871c-1.683-0.615-3.283-1.482-4.748-2.598
		c-3.822-2.912-6.281-7.139-6.925-11.901c-0.643-4.762,0.607-9.489,3.52-13.312C107.805,237.44,110.378,235.5,113.301,234.302z
		 M124.994,232.746l13.919,24.571c11.28,19.917,34.671,29.941,56.871,24.382c24.666-6.176,50.738-6.176,75.404,0
		c22.202,5.563,45.59-4.466,56.871-24.382l13.919-24.571v68.076c0,59.823-48.669,108.492-108.492,108.492
		s-108.492-48.669-108.492-108.492V232.746z M390.368,391.243c-5.229,5.2-10.671,10.108-16.305,14.718
		c-9.885-16.701-22.86-31.745-37.96-43.982c10.71-17.902,16.875-38.822,16.875-61.157v-21.427c4.362-0.828,8.509-2.645,12.144-5.414
		c6.159-4.693,10.122-11.504,11.158-19.178c1.037-7.674-0.978-15.292-5.671-21.451c-4.388-5.758-10.626-9.595-17.69-10.917
		c-0.836-47.628-11.649-79.468-32.185-95.947c-14.186-11.383-28.875-11.954-35.418-11.382c-7.09-8.222-31.688-33.673-67.539-37.709
		c-26.125-2.938-52.16,6.182-77.389,27.11c-20.568,17.064-31.591,45.304-31.874,81.666c-0.116,14.783,1.528,27.987,3.075,37.053
		c-5.743,1.762-10.784,5.253-14.497,10.125c-4.693,6.159-6.708,13.777-5.671,21.451c1.036,7.674,4.999,14.484,11.158,19.178
		c3.431,2.615,7.321,4.376,11.415,5.264v21.577c0,22.301,6.147,43.189,16.826,61.073c-15.098,12.238-28.07,27.295-37.951,44.023
		c-5.934-4.858-11.659-10.039-17.14-15.551c-41.905-42.139-64.892-98.073-64.727-157.501s23.463-115.234,65.602-157.14
		C118.592,33.971,174.275,11,233.467,11c0.21,0,0.427,0,0.637,0.001c59.429,0.165,115.235,23.464,157.14,65.603
		c41.905,42.139,64.892,98.073,64.727,157.501S432.506,349.339,390.368,391.243z"/>
	<g>
		<circle cx="171.226" cy="247.367" r="10.831"/>
		<circle cx="295.746" cy="247.367" r="10.831"/>
	</g>
	<path d="M220.276,314.993c2.04-1.716,6.953-3.72,14.083-3.72c7.124,0,12.034,2.004,14.075,3.721c1.031,0.866,2.288,1.29,3.537,1.29
		c1.567,0,3.125-0.667,4.213-1.96c1.954-2.325,1.654-5.795-0.67-7.75c-4.692-3.945-12.601-6.301-21.155-6.301
		c-8.561,0-16.472,2.355-21.163,6.302c-2.325,1.955-2.624,5.425-0.669,7.749C214.482,316.649,217.951,316.947,220.276,314.993z"/>
	<path d="M239.489,319.489h-9c-3.037,0-5.5,2.463-5.5,5.5s2.463,5.5,5.5,5.5h9c3.037,0,5.5-2.463,5.5-5.5
		S242.526,319.489,239.489,319.489z"/>
</g>
<g>
</g>
<g>
</g>
<g>
</g>
<g>
</g>
<g>
</g>
<g>
</g>
<g>
</g>
<g>
</g>
<g>
</g>
<g>
</g>
<g>
</g>
<g>
</g>
<g>
</g>
<g>
</g>
<g>
</g>
</svg>
