<?xml version="1.0" encoding="iso-8859-1"?>
<!-- Generator: Adobe Illustrator 18.0.0, SVG Export Plug-In . SVG Version: 6.00 Build 0)  -->
<!DOCTYPE svg PUBLIC "-//W3C//DTD SVG 1.1//EN" "http://www.w3.org/Graphics/SVG/1.1/DTD/svg11.dtd">
<svg version="1.1" id="Capa_1" xmlns="http://www.w3.org/2000/svg" xmlns:xlink="http://www.w3.org/1999/xlink" x="0px" y="0px"
	 viewBox="0 0 466.971 466.971" style="enable-background:new 0 0 466.971 466.971;" xml:space="preserve">
<g>
	<path d="M398.585,68.386C354.485,24.287,295.852,0,233.485,0s-121,24.287-165.099,68.386S0,171.119,0,233.486
		s24.287,121,68.386,165.099s102.733,68.386,165.099,68.386s121-24.287,165.1-68.386c44.1-44.1,68.386-102.733,68.386-165.099
		S442.685,112.486,398.585,68.386z M101.619,412.731c11.906-20.608,28.572-38.198,48.345-51.22
		c22.54,26.195,52.032,40.566,83.546,40.566c31.447,0,60.875-14.356,83.376-40.528c19.802,13.03,36.496,30.617,48.422,51.215
		c-37.977,28.048-83.733,43.207-131.822,43.207C185.378,455.971,139.605,440.801,101.619,412.731z M83.983,221.184
		c-3.835-13.127-7.458-25.527-7.763-40.155c-0.669-32.017,11.5-62.451,34.266-85.697c23.282-23.774,55.732-37.409,89.029-37.409
		c35.019,0,68.437,14.943,91.804,41.013c1.576,3.208,9.266,20.119,5.104,36.764c-0.737,2.947,1.055,5.933,4.002,6.67
		c0.448,0.112,0.896,0.166,1.338,0.166c2.464,0,4.707-1.668,5.332-4.167c2.908-11.633,1.266-23-1.079-31.437
		c32.996,18.988,53.686,54.136,53.686,92.919c0,7.644-0.797,15.214-2.374,22.595l-6.01-4.15c-0.262-0.182-0.54-0.339-0.83-0.473
		c-13.637-6.263-19.184-18.389-24.548-30.116c-1.591-3.477-3.235-7.073-5.049-10.398c-5.012-9.188-12.528-9.403-19.796-9.611
		c-8.028-0.229-18.02-0.515-32.379-11.61c-14.254-11.015-35.399-16.034-59.542-14.133c-21.564,1.698-43.074,8.879-57.538,19.21
		c-20.548,14.677-19.671,45.604-18.967,70.454c0.315,11.104,0.612,21.593-1.257,27.2c-4.108,12.325-15.315,32.63-45.075,38.055
		C96.918,265.461,90.352,242.981,83.983,221.184z M365.022,284.328c0,3.218-2.618,5.835-5.836,5.835s-5.835-2.618-5.835-5.835
		s2.618-5.836,5.835-5.836S365.022,281.111,365.022,284.328z M348.963,268.854c2.693-11.124,4.31-22.796,4.712-34.841
		c3.226,1.161,6.058,3.215,8.186,6.006c2.913,3.822,4.163,8.55,3.519,13.312c-0.643,4.763-3.102,8.989-6.924,11.902
		C355.662,267.361,352.382,268.591,348.963,268.854z M141.849,262.296c2.484-7.452,2.175-18.36,1.817-30.99
		c-0.63-22.24-1.415-49.919,14.365-61.19c12.908-9.22,32.35-15.648,52.007-17.196c21.415-1.687,39.864,2.53,51.953,11.872
		c17.191,13.285,30.189,13.656,38.79,13.902c7.08,0.202,8.626,0.534,10.453,3.883c1.629,2.986,3.122,6.25,4.703,9.707
		c5.542,12.114,11.781,25.74,26.833,33.962c0.007,0.602,0.011,1.213,0.011,1.848c0,74.096-49.031,134.377-109.299,134.377
		c-42.645,0-83.241-32.712-101.275-81.484C137.371,273.878,140.297,266.952,141.849,262.296z M233.483,373.471
		c23.646,0,45.717-8.292,64.336-22.59c3.236,1.515,6.411,3.147,9.525,4.883c-20.217,22.823-46.216,35.313-73.835,35.313
		c-27.686,0-53.749-12.503-74.005-35.35c3.244-1.809,6.554-3.504,9.931-5.071C188.517,365.177,210.706,373.471,233.483,373.471z
		 M390.807,390.806c-5.359,5.359-10.947,10.407-16.735,15.144c-15.868-26.824-39.325-48.774-67.102-62.839
		c15.344-14.35,27.75-33.073,35.926-54.613c1.863,7.269,8.45,12.666,16.292,12.666c9.283,0,16.836-7.552,16.836-16.835
		c0-5.681-2.836-10.704-7.159-13.754c4.017-4.339,6.609-9.79,7.417-15.771c1.037-7.674-0.978-15.292-5.671-21.451
		c-1.097-1.44-2.314-2.755-3.627-3.945c2.465-9.599,3.72-19.522,3.72-29.556c0-47.417-28.038-89.926-71.537-108.651
		c-25.436-28.156-61.681-44.277-99.65-44.277c-36.236,0-71.55,14.839-96.888,40.712c-24.852,25.377-38.136,58.626-37.405,93.624
		c0.336,16.084,4.335,29.772,8.203,43.01c6.701,22.935,13.03,44.597-0.527,77.077c-0.736,1.764-0.504,3.785,0.614,5.335
		c1.038,1.44,2.702,2.284,4.46,2.284c0.135,0,0.271-0.005,0.407-0.015c21.373-1.583,35.872-9.478,45.655-18.676
		c8.599,20.881,21.136,38.826,36.152,52.644c-27.882,14.042-51.426,36.055-67.331,62.996c-5.773-4.726-11.345-9.762-16.69-15.108
		C34.143,348.784,11,292.913,11,233.486c0-59.428,23.143-115.299,65.165-157.321S174.058,11,233.485,11
		c59.428,0,115.299,23.143,157.321,65.165s65.165,97.893,65.165,157.321C455.971,292.913,432.829,348.784,390.807,390.806z"/>
	<path d="M211.638,328.586c5.932,4.727,13.682,7.33,21.823,7.33c8.149,0,15.903-2.603,21.834-7.33
		c2.375-1.893,2.767-5.354,0.874-7.729c-1.895-2.376-5.355-2.767-7.729-0.874c-3.991,3.181-9.311,4.932-14.979,4.932
		c-5.661,0-10.976-1.751-14.967-4.932c-2.376-1.893-5.836-1.502-7.729,0.874C208.871,323.233,209.262,326.693,211.638,328.586z"/>
	<path d="M177.707,253.153c-0.602,2.26-0.489,4.727,0.503,7.043c2.355,5.499,8.722,8.047,14.221,5.692
		c5.499-2.355,8.047-8.722,5.692-14.22c-0.638-1.489-1.576-2.752-2.705-3.769c-5.345-5.737-13.628-7.832-21.123-5.198
		c-2.924,1.028-6.223,0.437-8.609-1.542c-2.339-1.939-5.806-1.616-7.745,0.722c-1.939,2.338-1.616,5.806,0.722,7.745
		C163.943,254.004,171.217,255.341,177.707,253.153z"/>
	<path d="M279.703,265.888c5.499,2.355,11.866-0.193,14.221-5.692c0.992-2.316,1.105-4.784,0.503-7.043
		c6.492,2.189,13.765,0.851,19.043-3.527c2.338-1.939,2.661-5.407,0.722-7.745c-1.941-2.339-5.408-2.661-7.745-0.722
		c-2.385,1.979-5.684,2.571-8.609,1.542c-7.49-2.632-15.772-0.539-21.119,5.194c-1.13,1.018-2.07,2.282-2.709,3.773
		C271.656,257.167,274.205,263.533,279.703,265.888z"/>
</g>
<g>
</g>
<g>
</g>
<g>
</g>
<g>
</g>
<g>
</g>
<g>
</g>
<g>
</g>
<g>
</g>
<g>
</g>
<g>
</g>
<g>
</g>
<g>
</g>
<g>
</g>
<g>
</g>
<g>
</g>
</svg>
