<?xml version="1.0" encoding="iso-8859-1"?>
<!-- Generator: Adobe Illustrator 18.0.0, SVG Export Plug-In . SVG Version: 6.00 Build 0)  -->
<!DOCTYPE svg PUBLIC "-//W3C//DTD SVG 1.1//EN" "http://www.w3.org/Graphics/SVG/1.1/DTD/svg11.dtd">
<svg version="1.1" id="Capa_1" xmlns="http://www.w3.org/2000/svg" xmlns:xlink="http://www.w3.org/1999/xlink" x="0px" y="0px"
	 viewBox="0 0 466.971 466.971" style="enable-background:new 0 0 466.971 466.971;" xml:space="preserve">
<g>
	<path d="M398.585,68.386C354.485,24.287,295.852,0,233.485,0s-121,24.287-165.099,68.386C24.287,112.486,0,171.12,0,233.486
		s24.287,121,68.386,165.099s102.733,68.386,165.099,68.386s121-24.287,165.1-68.386c44.1-44.1,68.386-102.733,68.386-165.099
		S442.685,112.486,398.585,68.386z M101.619,412.732c13.339-23.089,32.657-42.384,55.618-55.716
		c10.096,33.101,41.054,56.435,76.234,56.435c35.144,0,66.093-23.301,76.215-56.356c22.959,13.342,42.277,32.62,55.622,55.669
		c-37.977,28.048-83.733,43.207-131.822,43.207C185.378,455.971,139.605,440.801,101.619,412.732z M112.609,372.197
		c-0.427,0.041-0.788,0.061-1.103,0.061c-5.212,0-9.453-4.241-9.453-9.453c0-1.824,0.529-3.603,1.531-5.144
		c1.161-1.787,1.185-4.083,0.063-5.894c-1.123-1.811-3.19-2.807-5.305-2.566c-0.295,0.034-0.611,0.051-0.965,0.051
		c-5.212,0-9.453-4.241-9.453-9.454c0-2.488,0.965-4.843,2.717-6.629c1.625-1.657,2.036-4.155,1.026-6.245
		c-1.01-2.089-3.224-3.316-5.53-3.076c-0.299,0.032-0.612,0.048-0.931,0.048c-5.212,0-9.453-4.241-9.453-9.453
		c0-2.872,1.286-5.553,3.529-7.356c1.854-1.49,2.539-4.002,1.7-6.227c-0.839-2.225-3.021-3.656-5.388-3.554l-0.347,0.021
		c-5.213,0-9.454-4.237-9.454-9.445c0-2.923,1.333-5.64,3.657-7.453c1.762-1.375,2.517-3.68,1.91-5.831
		c-0.607-2.151-2.456-3.72-4.677-3.971c-4.782-0.539-8.388-4.573-8.388-9.384c0-2.785,1.229-5.421,3.373-7.234
		c1.512-1.279,2.221-3.271,1.854-5.218c-0.367-1.946-1.751-3.545-3.625-4.186c-3.821-1.308-6.388-4.895-6.388-8.926
		c0-2.642,1.079-5.099,3.037-6.919c1.229-1.143,1.87-2.784,1.74-4.457c-0.13-1.673-1.018-3.195-2.409-4.133
		c-2.617-1.764-4.18-4.7-4.18-7.853c0-4.226,2.852-7.967,6.935-9.099c2.212-0.613,3.812-2.537,4.01-4.825
		c0.198-2.288-1.045-4.458-3.119-5.443c-3.336-1.584-5.408-4.85-5.408-8.521c0-4.776,3.576-8.809,8.317-9.38
		c2.182-0.263,3.998-1.799,4.619-3.908c0.62-2.108-0.074-4.383-1.765-5.786c-2.168-1.798-3.412-4.448-3.412-7.27
		c0-5.154,4.146-9.358,9.277-9.452c2.091,0.16,4.098-0.885,5.163-2.702c1.089-1.856,0.995-4.177-0.24-5.939
		c-1.129-1.61-1.726-3.487-1.726-5.425c0-5.213,4.241-9.454,9.453-9.454c0.502,0,1.051,0.053,1.678,0.162
		c1.949,0.339,3.924-0.394,5.182-1.917c1.257-1.523,1.602-3.604,0.902-5.451c-0.419-1.106-0.631-2.232-0.631-3.348
		c0-5.213,4.241-9.454,9.454-9.454c1.118,0,2.233,0.205,3.316,0.608c1.794,0.667,3.806,0.355,5.313-0.826
		c1.507-1.181,2.291-3.061,2.07-4.962C111.026,99.42,111,99.051,111,98.731c0-5.212,4.241-9.453,9.454-9.453
		c1.801,0,3.56,0.519,5.086,1.501c1.604,1.032,3.627,1.158,5.348,0.336c1.72-0.823,2.892-2.478,3.095-4.374
		c0.516-4.8,4.553-8.42,9.39-8.42c2.654,0,5.116,1.084,6.935,3.052c1.321,1.429,3.299,2.053,5.2,1.644
		c1.902-0.411,3.446-1.795,4.059-3.642c1.287-3.871,4.892-6.472,8.971-6.472c3.673,0,6.942,2.076,8.529,5.417
		c0.885,1.863,2.738,3.074,4.799,3.138c2.084,0.058,3.985-1.032,4.982-2.836c1.667-3.018,4.838-4.891,8.275-4.891
		c4.41,0,8.189,2.997,9.19,7.284c0.459,1.967,1.96,3.531,3.909,4.062c1.948,0.53,4.032-0.034,5.426-1.495
		c1.806-1.892,4.232-2.906,6.831-2.906c3.41,0,6.567,1.909,8.241,4.892c0.973,1.735,2.807,2.922,4.797,2.922
		c0.001,0,0.003,0,0.004,0c1.991,0,3.826-1.192,4.797-2.93c1.673-2.994,4.836-4.967,8.254-4.967c2.593,0,5.024,1.048,6.846,2.95
		c1.396,1.458,3.476,2.034,5.424,1.502c1.946-0.533,3.445-2.089,3.904-4.054c1.001-4.287,4.777-7.281,9.182-7.281
		c3.445,0,6.618,1.875,8.281,4.895c0.995,1.806,2.906,2.895,4.977,2.844c2.061-0.06,3.915-1.267,4.804-3.127
		c1.594-3.336,4.864-5.409,8.534-5.409c4.078,0,7.679,2.602,8.96,6.475c0.611,1.847,2.153,3.234,4.054,3.646
		c1.903,0.414,3.879-0.209,5.202-1.636c1.822-1.966,4.287-3.049,6.94-3.049c4.842,0,8.878,3.621,9.389,8.423
		c0.202,1.895,1.37,3.55,3.087,4.375s3.74,0.703,5.345-0.324c1.534-0.981,3.294-1.5,5.089-1.5c5.213,0,9.454,4.241,9.454,9.454
		c0,0.327-0.028,0.701-0.085,1.144c-0.246,1.911,0.525,3.811,2.034,5.009c1.508,1.198,3.534,1.518,5.339,0.848
		c1.083-0.403,2.197-0.608,3.309-0.608c5.213,0,9.454,4.241,9.454,9.453c0,1.137-0.21,2.264-0.626,3.351
		c-0.709,1.857-0.362,3.952,0.909,5.48c1.271,1.528,3.271,2.252,5.223,1.892c0.556-0.102,1.084-0.152,1.615-0.152
		c5.212,0,9.453,4.241,9.453,9.453c0,1.944-0.595,3.818-1.72,5.417c-1.181,1.679-1.329,3.876-0.383,5.699
		c0.946,1.822,2.828,2.966,4.881,2.966c0.106,0,0.213-0.003,0.325-0.008c5.171,0.049,9.362,4.271,9.362,9.453
		c0,2.817-1.25,5.471-3.431,7.28c-1.691,1.404-2.385,3.681-1.762,5.79c0.622,2.108,2.44,3.644,4.624,3.904
		c4.737,0.565,8.31,4.594,8.31,9.371c0,3.667-2.069,6.935-5.4,8.525c-2.068,0.988-3.307,3.155-3.109,5.439
		c0.199,2.284,1.792,4.205,4,4.821c4.068,1.136,6.91,4.875,6.91,9.093c0,3.15-1.565,6.085-4.188,7.852
		c-1.392,0.938-2.279,2.46-2.41,4.133c-0.13,1.673,0.51,3.315,1.739,4.458c1.954,1.815,3.029,4.272,3.029,6.919
		c0,4.037-2.57,7.627-6.395,8.934c-1.876,0.641-3.262,2.242-3.627,4.19c-0.366,1.948,0.346,3.942,1.861,5.22
		c2.14,1.803,3.367,4.438,3.367,7.229c0,4.816-3.603,8.851-8.381,9.383c-2.221,0.248-4.072,1.815-4.682,3.965
		c-0.61,2.15,0.142,4.456,1.902,5.833c2.327,1.82,3.662,4.539,3.662,7.458c0,5.193-4.211,9.42-9.398,9.45
		c-0.137-0.01-0.273-0.02-0.412-0.026c-2.377-0.106-4.544,1.326-5.386,3.546c-0.841,2.221-0.162,4.731,1.685,6.225
		c2.25,1.82,3.541,4.505,3.541,7.366c0,5.213-4.241,9.454-9.453,9.454c-0.351,0-0.702-0.019-1.041-0.049
		c-2.289-0.191-4.471,1.052-5.452,3.136c-0.981,2.084-0.561,4.559,1.055,6.201c1.749,1.777,2.711,4.126,2.711,6.614
		c0,5.212-4.241,9.453-9.454,9.453c-0.309,0-0.647-0.019-1.068-0.06c-2.099-0.202-4.141,0.813-5.238,2.621
		c-1.097,1.808-1.06,4.084,0.094,5.856c0.999,1.532,1.526,3.305,1.526,5.128c0,5.212-4.241,9.453-9.454,9.453
		c-0.326,0-0.66-0.02-1.022-0.061c-1.831-0.207-3.64,0.522-4.825,1.932c-12.368-12.515-26.725-23.039-42.473-31.031
		c18.464-17.231,32.81-40.985,40.55-69.109c0.561-2.039-0.096-4.219-1.691-5.608c-2.066-1.799-3.251-4.4-3.251-7.138
		c0-2.69,1.166-5.265,3.199-7.064c1.338-1.185,2.017-2.945,1.821-4.722c-0.196-1.776-1.242-3.346-2.806-4.211
		c-3.023-1.671-4.902-4.845-4.902-8.284c0-2.045,0.654-3.997,1.891-5.646c1.03-1.374,1.36-3.149,0.892-4.801
		c-0.469-1.652-1.681-2.99-3.279-3.618c-3.653-1.436-6.013-4.888-6.013-8.794c0-1.03,0.179-2.072,0.532-3.097
		c0.533-1.546,0.35-3.249-0.498-4.646c-0.849-1.398-2.275-2.346-3.892-2.586c-4.397-0.654-7.766-4.352-8.009-8.792
		c-0.087-1.601-0.869-3.083-2.14-4.06c-1.272-0.978-2.906-1.351-4.475-1.023c-0.652,0.136-1.313,0.205-1.963,0.205
		c-3.93,0-7.49-2.491-8.857-6.198c-0.585-1.586-1.867-2.816-3.477-3.333c-1.611-0.517-3.369-0.266-4.768,0.683
		c-1.555,1.053-3.381,1.61-5.28,1.61c-3.302,0-6.314-1.693-8.056-4.53c-0.916-1.492-2.487-2.458-4.232-2.603
		c-1.743-0.145-3.454,0.55-4.603,1.87c-1.799,2.066-4.391,3.251-7.112,3.251c-2.19,0-4.25-0.732-5.957-2.117
		c-1.223-0.993-2.812-1.413-4.366-1.155c-1.553,0.257-2.922,1.168-3.759,2.502c-1.747,2.784-4.736,4.445-7.998,4.445
		c-2.448,0-4.774-0.943-6.55-2.655c-2.131-2.055-5.505-2.055-7.636,0c-1.775,1.712-4.101,2.655-6.55,2.655
		c-3.261,0-6.251-1.662-7.998-4.445c-0.837-1.334-2.206-2.245-3.759-2.502c-1.555-0.258-3.143,0.163-4.366,1.155
		c-1.707,1.385-3.767,2.117-5.957,2.117c-2.721,0-5.313-1.186-7.112-3.252c-1.15-1.321-2.861-2.012-4.607-1.87
		c-1.746,0.146-3.317,1.115-4.232,2.61c-1.734,2.832-4.74,4.523-8.043,4.523c-1.905,0-3.734-0.557-5.289-1.61
		c-1.401-0.949-3.161-1.201-4.771-0.682s-2.893,1.75-3.477,3.339c-1.36,3.703-4.918,6.191-8.854,6.191
		c-0.651,0-1.312-0.069-1.963-0.205c-1.567-0.326-3.203,0.046-4.475,1.023c-1.271,0.977-2.053,2.459-2.14,4.06
		c-0.243,4.44-3.611,8.137-8.008,8.792c-1.617,0.24-3.043,1.188-3.892,2.585c-0.849,1.397-1.031,3.1-0.499,4.646
		c0.353,1.025,0.532,2.068,0.532,3.098c0,3.906-2.36,7.358-6.013,8.794c-1.598,0.628-2.811,1.966-3.279,3.618
		c-0.468,1.651-0.139,3.427,0.892,4.801c1.237,1.649,1.891,3.601,1.891,5.646c0,3.439-1.878,6.613-4.902,8.284
		c-1.564,0.865-2.61,2.435-2.806,4.211c-0.196,1.776,0.483,3.537,1.821,4.722c2.034,1.799,3.2,4.375,3.2,7.064
		c0,3.07-1.503,5.961-4.021,7.735c-1.907,1.343-2.76,3.743-2.127,5.989c7.79,27.639,22.01,51.019,40.235,68.048
		c-15.759,7.984-30.124,18.515-42.497,31.047C116.183,372.755,114.424,372.019,112.609,372.197z M133.938,250.991
		c3.483-3.734,5.503-8.699,5.503-13.951c0-2.372-0.403-4.685-1.186-6.868c4.802-3.805,7.696-9.617,7.696-15.991
		c0-0.362-0.01-0.725-0.03-1.086c5.065-2.334,8.996-6.679,10.811-11.957c5.979-0.396,11.441-3.426,14.98-8.109
		c1.949,0.604,3.993,0.915,6.075,0.915c5.025,0,9.731-1.8,13.387-4.989c3.166,1.928,6.828,2.978,10.607,2.978
		c2.842,0,5.649-0.601,8.229-1.735c3.724,3.45,8.623,5.411,13.85,5.411c3.692,0,7.252-0.984,10.368-2.827
		c3.116,1.843,6.676,2.827,10.368,2.827c5.227,0,10.126-1.96,13.85-5.411c2.581,1.134,5.387,1.735,8.229,1.735
		c3.781,0,7.445-1.051,10.612-2.98c3.66,3.19,8.368,4.992,13.392,4.992c2.08,0,4.123-0.311,6.071-0.915
		c3.542,4.683,9.003,7.713,14.976,8.109c1.815,5.278,5.746,9.622,10.811,11.957c-0.02,0.362-0.03,0.725-0.03,1.087
		c0,6.374,2.894,12.186,7.696,15.991c-0.783,2.184-1.186,4.496-1.186,6.868c0,5.252,2.02,10.217,5.503,13.951
		c-1.824,3.105-2.815,6.666-2.815,10.33c0,4.687,1.605,9.189,4.491,12.791c-15.703,52.984-56.657,88.36-102.711,88.36
		c-45.585,0-86.344-34.858-102.319-87.106c3.552-3.763,5.59-8.781,5.59-14.044C136.754,257.657,135.763,254.096,133.938,250.991z
		 M169,350.856c18.84,14.442,41.066,22.615,64.483,22.615c23.435,0,45.637-8.14,64.452-22.537c0.61,0.286,1.214,0.582,1.82,0.877
		c-8.04,29.578-35.261,50.64-66.284,50.64c-31.056,0-58.286-21.094-66.3-50.716C167.779,351.439,168.387,351.143,169,350.856z
		 M390.807,390.807c-5.359,5.359-10.947,10.407-16.735,15.144c-4.243-7.172-9.031-13.992-14.296-20.411
		c0.139-0.896,0.225-1.805,0.244-2.726c9.069-2.094,15.851-10.235,15.851-19.931c0-1.163-0.099-2.316-0.293-3.449
		c8.349-2.577,14.432-10.366,14.432-19.549c0-2.151-0.332-4.254-0.971-6.25c7.682-2.947,13.15-10.4,13.15-19.106
		c0-2.832-0.58-5.58-1.672-8.104c6.879-3.298,11.641-10.332,11.641-18.456c0-3.268-0.767-6.415-2.199-9.235
		c5.86-3.618,9.697-10.095,9.697-17.404c0-3.504-0.893-6.894-2.545-9.884c4.557-3.807,7.339-9.506,7.339-15.688
		c0-3.663-1-7.243-2.834-10.361c2.98-3.617,4.663-8.192,4.663-13c0-5.932-2.593-11.425-6.823-15.221
		c2.802-3.553,4.422-7.999,4.422-12.654c0-7.319-3.875-13.822-9.778-17.436c1.327-2.74,2.037-5.764,2.037-8.893
		c0-8.635-5.38-16.018-12.964-19.013c0.33-1.463,0.498-2.928,0.498-4.453c0-9.952-7.145-18.186-16.574-20.004
		c-0.033-11.25-9.195-20.233-20.454-20.233c-0.04,0-0.08,0-0.12,0c-2.095-9-10.236-16.008-19.931-16.008
		c-1.528,0-3.043,0.011-4.519,0.347c-3.329-6.857-10.348-11.482-18.393-11.482c-3.22,0-6.376,0.773-9.212,2.207
		c-3.798-4.74-9.605-7.643-15.944-7.643c-5.142,0-10.033,1.976-13.743,5.341c-3.58-2.892-8.097-4.543-12.852-4.543
		c-6.889,0-13.069,3.382-16.789,8.758c-2.65-1.229-5.556-1.874-8.567-1.874c-4.842,0-9.446,1.721-13.063,4.725
		c-3.612-2.987-8.203-4.698-13.03-4.698c-3.012,0-5.914,0.644-8.559,1.867c-3.722-5.376-9.904-8.756-16.797-8.756
		c-4.744,0-9.252,1.65-12.831,4.534c-3.709-3.374-8.604-5.349-13.756-5.349c-6.335,0-12.141,2.91-15.943,7.644
		c-2.837-1.438-5.997-2.19-9.222-2.19c-8.035,0-15.05,4.667-18.384,11.516c-1.48-0.338-3-0.416-4.536-0.416
		c-9.688,0-17.826,7.02-19.926,16.02c-0.047,0-0.095,0-0.142,0c-11.252,0-20.411,8.941-20.454,20.183
		c-9.434,1.814-16.583,9.94-16.583,19.895c0,1.521,0.168,3.021,0.497,4.481c-7.587,2.993-12.971,10.398-12.971,19.037
		c0,3.128,0.707,6.159,2.028,8.896c-5.908,3.618-9.787,10.129-9.787,17.448c0,4.656,1.619,9.102,4.42,12.652
		c-4.24,3.796-6.839,9.294-6.839,15.235c0,4.808,1.68,9.382,4.654,12.998c-1.839,3.12-2.842,6.702-2.842,10.364
		c0,6.178,2.78,11.874,7.334,15.68c-1.655,2.992-2.549,6.382-2.549,9.884c0,7.302,3.836,13.777,9.697,17.398
		c-1.432,2.82-2.199,5.969-2.199,9.241c0,8.118,4.757,15.146,11.632,18.444c-1.092,2.525-1.672,5.278-1.672,8.117
		c0,8.704,5.465,16.155,13.143,19.103c-0.64,1.997-0.972,4.101-0.972,6.252c0,9.181,6.08,16.968,14.425,19.547
		c-0.196,1.137-0.295,2.294-0.295,3.46c0,9.693,6.777,17.832,15.841,19.929c0.018,0.922,0.105,1.839,0.248,2.748
		c-5.262,6.424-10.048,13.252-14.288,20.433c-5.773-4.726-11.345-9.762-16.69-15.108C34.143,348.785,11,292.914,11,233.486
		c0-59.428,23.143-115.299,65.165-157.321S174.058,11,233.485,11c59.428,0,115.299,23.143,157.321,65.165
		s65.165,97.893,65.165,157.321C455.971,292.914,432.829,348.785,390.807,390.807z"/>
	<path d="M157.478,264.497c5.587,3.995,12.948,4.803,19.27,2.144c-0.443,2.301-0.154,4.76,1.004,7.004
		c2.743,5.316,9.276,7.401,14.592,4.658s7.401-9.276,4.658-14.592c-0.765-1.482-1.832-2.703-3.078-3.648
		c-5.742-5.274-14.104-6.742-21.351-3.593c-2.844,1.234-6.177,0.88-8.698-0.921c-2.472-1.767-5.906-1.194-7.673,1.275
		C154.436,259.295,155.006,262.73,157.478,264.497z"/>
	<path d="M274.901,278.303c5.316,2.743,11.849,0.658,14.592-4.658c1.158-2.244,1.446-4.703,1.004-7.004
		c6.323,2.661,13.684,1.851,19.271-2.144c2.471-1.767,3.042-5.202,1.275-7.673c-1.766-2.472-5.202-3.042-7.673-1.275
		c-2.521,1.802-5.853,2.156-8.697,0.921c-7.252-3.149-15.608-1.681-21.348,3.589c-1.248,0.946-2.317,2.168-3.083,3.652
		C267.499,269.027,269.585,275.56,274.901,278.303z"/>
	<path d="M233.462,338.727c6.746,0,13.132-2.563,17.982-7.219c2.191-2.104,2.263-5.585,0.159-7.776s-5.584-2.262-7.776-0.159
		c-2.791,2.679-6.472,4.154-10.365,4.154c-3.888,0-7.565-1.475-10.355-4.154c-2.19-2.103-5.672-2.033-7.777,0.159
		c-2.104,2.191-2.032,5.673,0.159,7.777C220.337,336.163,226.721,338.727,233.462,338.727z"/>
</g>
<g>
</g>
<g>
</g>
<g>
</g>
<g>
</g>
<g>
</g>
<g>
</g>
<g>
</g>
<g>
</g>
<g>
</g>
<g>
</g>
<g>
</g>
<g>
</g>
<g>
</g>
<g>
</g>
<g>
</g>
</svg>
