<?xml version="1.0" encoding="iso-8859-1"?>
<!-- Generator: Adobe Illustrator 18.0.0, SVG Export Plug-In . SVG Version: 6.00 Build 0)  -->
<!DOCTYPE svg PUBLIC "-//W3C//DTD SVG 1.1//EN" "http://www.w3.org/Graphics/SVG/1.1/DTD/svg11.dtd">
<svg version="1.1" id="Capa_1" xmlns="http://www.w3.org/2000/svg" xmlns:xlink="http://www.w3.org/1999/xlink" x="0px" y="0px"
	 viewBox="0 0 466.971 466.971" style="enable-background:new 0 0 466.971 466.971;" xml:space="preserve">
<g>
	<path d="M243.848,316.637c-2.791,2.679-6.471,4.155-10.364,4.155c-3.887,0-7.564-1.476-10.356-4.155
		c-2.19-2.103-5.673-2.032-7.776,0.159s-2.032,5.673,0.159,7.776c4.85,4.655,11.233,7.219,17.973,7.219
		c6.747,0,13.133-2.564,17.982-7.219c2.191-2.104,2.262-5.585,0.159-7.777S246.039,314.535,243.848,316.637z"/>
	<path d="M398.585,68.386C354.485,24.287,295.852,0,233.485,0s-121,24.287-165.099,68.386S0,171.119,0,233.486
		s24.287,121,68.386,165.099s102.733,68.386,165.099,68.386s121-24.287,165.1-68.386c44.1-44.1,68.386-102.733,68.386-165.099
		S442.685,112.486,398.585,68.386z M103.185,176.005c-9.171-5.773-14.646-15.677-14.646-26.492
		c0-17.258,14.041-31.298,31.298-31.298c4.215,0,8.308,0.826,12.165,2.454c2.096,0.884,4.519,0.388,6.097-1.249
		c1.579-1.636,1.987-4.076,1.029-6.138c-1.932-4.153-2.911-8.588-2.911-13.18c0-17.258,14.041-31.298,31.298-31.298
		c9.864,0,18.95,4.513,24.929,12.382c1.362,1.793,3.681,2.574,5.849,1.972c2.169-0.602,3.753-2.465,3.998-4.703
		c1.734-15.88,15.106-27.856,31.106-27.856c15.999,0,29.372,11.976,31.105,27.856c0.245,2.238,1.829,4.101,3.998,4.703
		c2.168,0.602,4.486-0.179,5.849-1.972c5.979-7.869,15.065-12.382,24.929-12.382c17.258,0,31.299,14.041,31.299,31.298
		c0,4.593-0.979,9.027-2.911,13.18c-0.959,2.062-0.55,4.501,1.028,6.138c1.578,1.636,4.001,2.133,6.097,1.249
		c3.857-1.628,7.95-2.454,12.165-2.454c17.258,0,31.298,14.041,31.298,31.298c0,10.814-5.473,20.718-14.639,26.493
		c-1.96,1.235-2.937,3.566-2.441,5.83c0.496,2.263,2.357,3.973,4.654,4.276c15.485,2.041,27.163,15.375,27.163,31.016
		c0,14.263-9.624,26.721-23.404,30.296c-2.31,0.599-3.97,2.62-4.109,5.002c-0.018,0.3-0.056,0.593-0.099,0.904
		c-0.642,4.761-3.101,8.988-6.923,11.9c-2.797,2.132-5.896,2.704-9.223,2.606c1.504-6.401,2.651-12.945,3.413-19.593
		c0.316-2.757-1.471-5.318-4.168-5.972c-12.082-2.93-20.52-13.671-20.52-26.122c0-1.045,0.07-2.137,0.213-3.336
		c0.224-1.876-0.531-3.735-1.999-4.925c-1.468-1.189-3.442-1.541-5.231-0.935c-2.75,0.934-5.634,1.407-8.573,1.407
		c-13.331,0-24.774-9.94-26.619-23.123c-0.261-1.869-1.462-3.473-3.181-4.25c-1.72-0.776-3.717-0.619-5.292,0.419
		c-4.384,2.888-9.486,4.415-14.753,4.415c-10.298,0-19.537-5.743-24.11-14.987c-0.928-1.875-2.838-3.061-4.93-3.061
		c-2.092,0-4.002,1.187-4.93,3.061c-4.573,9.244-13.812,14.987-24.11,14.987c-5.267,0-10.369-1.527-14.754-4.416
		c-1.575-1.037-3.572-1.195-5.292-0.418c-1.719,0.777-2.919,2.381-3.181,4.25c-1.844,13.182-13.287,23.123-26.619,23.123
		c-2.932,0-5.818-0.474-8.577-1.409c-1.795-0.609-3.776-0.25-5.243,0.949c-1.468,1.198-2.215,3.067-1.979,4.947
		c0.138,1.098,0.208,2.209,0.208,3.302c0,12.452-8.434,23.193-20.51,26.122c-2.697,0.654-4.484,3.215-4.168,5.972
		c0.763,6.649,1.91,13.194,3.414,19.596c-3.062,0.078-5.737-0.506-8.496-2.608c-3.823-2.913-6.281-7.139-6.93-11.947
		c-0.034-0.233-0.063-0.467-0.08-0.7c-0.171-2.408-1.893-4.423-4.245-4.968c-14.244-3.302-24.192-15.838-24.192-30.487
		c0-15.642,11.681-28.976,27.171-31.016c2.298-0.303,4.159-2.013,4.655-4.277C106.123,179.571,105.146,177.239,103.185,176.005z
		 M233.483,362.471c-26.323,0-51.764-11.695-71.638-32.931c-18.992-20.294-31.686-47.874-36.008-78.062
		c13.555-5.226,22.951-17.778,24.061-32.41c1.554,0.194,3.123,0.292,4.701,0.292c16.221,0,30.46-10.449,35.719-25.267
		c4.462,1.796,9.245,2.728,14.126,2.728c11.438,0,21.947-5.025,29.04-13.529c7.093,8.504,17.602,13.529,29.04,13.529
		c4.882,0,9.665-0.931,14.126-2.728c5.259,14.818,19.498,25.267,35.719,25.267c1.579,0,3.148-0.097,4.701-0.291
		c1.112,14.631,10.509,27.184,24.07,32.409c-4.323,30.189-17.017,57.768-36.01,78.062
		C285.254,350.776,259.81,362.471,233.483,362.471z M233.483,373.471c10.158,0,20.183-1.545,29.861-4.534l-29.861,51.721
		l-29.853-51.719C213.306,371.926,223.329,373.471,233.483,373.471z M238.489,433.99l41.432-71.764
		c6.23-3.146,12.246-6.919,17.976-11.307c28.132,13.182,51.836,34.945,67.411,61.846c-36.658,27.073-80.564,42.132-126.819,43.146
		V433.99z M346.203,278.994c11.788,4.619,19.916,16.172,19.916,29.155c0,17.258-14.041,31.298-31.299,31.298
		c-6.726,0-13.105-2.105-18.417-5.996C329.696,318.167,339.857,299.509,346.203,278.994z M120.754,278.93
		c6.334,20.505,16.478,39.159,29.752,54.445c-5.333,3.94-11.754,6.072-18.532,6.072c-17.258,0-31.298-14.041-31.298-31.298
		C100.675,295.083,108.872,283.501,120.754,278.93z M187.057,362.229l40.432,70.047v23.612
		c-45.909-1.207-89.466-16.256-125.87-43.156c15.56-26.934,39.256-48.71,67.379-61.875
		C174.753,355.272,180.797,359.068,187.057,362.229z M390.807,390.806c-5.359,5.359-10.947,10.407-16.735,15.144
		c-15.853-26.801-39.278-48.731-67.017-62.795c0.587-0.548,1.17-1.103,1.75-1.665c7.395,5.803,16.446,8.957,26.016,8.957
		c23.324,0,42.299-18.975,42.299-42.298c0-12.684-5.747-24.354-14.949-32.211c1.013-0.594,2.005-1.236,2.954-1.959
		c5.572-4.246,9.346-10.225,10.78-16.998c16.71-5.939,28.088-21.831,28.088-39.854c0-17.299-10.573-32.51-25.887-38.979
		c7.109-7.7,11.15-17.832,11.15-28.636c0-23.323-18.975-42.298-42.298-42.298c-2.039,0-4.058,0.144-6.049,0.429
		c0.446-2.471,0.67-4.988,0.67-7.542c0-23.323-18.975-42.298-42.299-42.298c-9.734,0-18.908,3.251-26.293,9.143
		c-6.06-16.136-21.595-27.347-39.588-27.347c-17.994,0-33.529,11.211-39.588,27.347c-7.386-5.892-16.559-9.143-26.293-9.143
		c-23.323,0-42.298,18.975-42.298,42.298c0,2.554,0.224,5.071,0.67,7.542c-1.991-0.285-4.01-0.429-6.049-0.429
		c-23.323,0-42.298,18.975-42.298,42.298c0,10.806,4.042,20.937,11.154,28.637c-15.318,6.468-25.891,21.679-25.891,38.979
		c0,18.525,11.778,34.551,29.073,40.191c1.489,6.639,5.229,12.487,10.706,16.661c0.779,0.594,1.589,1.129,2.411,1.636
		c-9.42,7.85-15.317,19.658-15.317,32.533c0,23.323,18.975,42.298,42.298,42.298c9.62,0,18.707-3.179,26.12-9.03
		c0.581,0.565,1.168,1.12,1.756,1.671c-27.735,14.049-51.154,35.993-66.995,62.826c-5.773-4.726-11.345-9.762-16.69-15.108
		C34.143,348.784,11,292.913,11,233.486c0-59.428,23.143-115.299,65.165-157.321S174.058,11,233.485,11
		c59.428,0,115.299,23.143,157.321,65.165s65.165,97.893,65.165,157.321C455.971,292.913,432.829,348.784,390.807,390.806z"/>
	<path d="M192.851,254.846c-5.345-5.747-13.635-7.846-21.135-5.21c-2.924,1.027-6.222,0.437-8.608-1.542
		c-2.339-1.94-5.806-1.617-7.745,0.721c-1.939,2.338-1.617,5.805,0.721,7.745c5.278,4.379,12.55,5.717,19.041,3.529
		c-0.602,2.259-0.489,4.726,0.503,7.042c2.355,5.499,8.722,8.047,14.221,5.692s8.047-8.722,5.692-14.221
		C194.906,257.12,193.973,255.861,192.851,254.846z"/>
	<path d="M310.892,256.559c2.338-1.939,2.661-5.407,0.721-7.745c-1.939-2.338-5.407-2.662-7.745-0.721
		c-2.385,1.979-5.683,2.57-8.608,1.542c-7.485-2.631-15.757-0.542-21.104,5.179c-1.138,1.021-2.085,2.29-2.726,3.788
		c-2.355,5.499,0.193,11.865,5.692,14.221c5.499,2.355,11.865-0.193,14.221-5.692c0.992-2.316,1.105-4.784,0.503-7.044
		C298.336,262.277,305.611,260.939,310.892,256.559z"/>
</g>
<g>
</g>
<g>
</g>
<g>
</g>
<g>
</g>
<g>
</g>
<g>
</g>
<g>
</g>
<g>
</g>
<g>
</g>
<g>
</g>
<g>
</g>
<g>
</g>
<g>
</g>
<g>
</g>
<g>
</g>
</svg>
