<?xml version="1.0" encoding="UTF-8" standalone="no"?>
<!-- Created with Inkscape (http://www.inkscape.org/) -->

<svg
   xmlns:dc="http://purl.org/dc/elements/1.1/"
   xmlns:cc="http://creativecommons.org/ns#"
   xmlns:rdf="http://www.w3.org/1999/02/22-rdf-syntax-ns#"
   xmlns:svg="http://www.w3.org/2000/svg"
   xmlns="http://www.w3.org/2000/svg"
   xmlns:sodipodi="http://sodipodi.sourceforge.net/DTD/sodipodi-0.dtd"
   xmlns:inkscape="http://www.inkscape.org/namespaces/inkscape"
   width="10"
   height="10"
   viewBox="0 0 2.6458333 2.6458334"
   version="1.1"
   id="svg4735"
   inkscape:version="0.92.1 r15371"
   sodipodi:docname="google+.svg">
  <defs
     id="defs4729" />
  <sodipodi:namedview
     id="base"
     pagecolor="#ffffff"
     bordercolor="#666666"
     borderopacity="1.0"
     inkscape:pageopacity="0.0"
     inkscape:pageshadow="2"
     inkscape:zoom="63.356767"
     inkscape:cx="4.9420618"
     inkscape:cy="6.7275779"
     inkscape:document-units="px"
     inkscape:current-layer="layer1"
     showgrid="false"
     units="px"
     inkscape:window-width="2160"
     inkscape:window-height="1346"
     inkscape:window-x="-11"
     inkscape:window-y="1609"
     inkscape:window-maximized="1" />
  <metadata
     id="metadata4732">
    <rdf:RDF>
      <cc:Work
         rdf:about="">
        <dc:format>image/svg+xml</dc:format>
        <dc:type
           rdf:resource="http://purl.org/dc/dcmitype/StillImage" />
        <dc:title></dc:title>
      </cc:Work>
    </rdf:RDF>
  </metadata>
  <g
     inkscape:label="Layer 1"
     inkscape:groupmode="layer"
     id="layer1"
     transform="translate(0,-294.35415)">
    <g
       id="g4688"
       transform="matrix(0.0058057,0,0,0.0058057,0,294.35415)"
       style="fill:#dce3e6;fill-opacity:1">
      <path
         id="path4633"
         d="M 0,0 V 455.73 H 455.73 V 0 Z m 265.67,247.037 c -7.793,51.194 -45.961,80.543 -95.376,80.543 -55.531,0 -100.552,-45.021 -100.552,-100.552 0,-55.517 45.021,-100.538 100.552,-100.538 26.862,0 50.399,9.586 67.531,26.226 l -28.857,28.857 c -9.773,-9.846 -23.147,-15.094 -38.674,-15.094 -32.688,0 -59.189,27.874 -59.189,60.548 0,32.703 26.501,59.768 59.189,59.768 27.397,0 48.144,-13.243 54.129,-39.758 h -54.129 v -40.38 h 95.131 c 1.142,6.506 1.72,13.315 1.72,20.37 -10e-4,6.998 -0.507,13.663 -1.475,20.01 z m 120.749,-12.52 h -35.233 v 35.218 H 326.16 v -35.218 h -35.233 v -25.041 h 35.233 v -35.233 h 25.026 v 35.233 h 35.233 z"
         style="fill:#dce3e6;fill-opacity:1"
         inkscape:connector-curvature="0" />
      <g
         id="g4635"
         style="fill:#dce3e6;fill-opacity:1" />
      <g
         id="g4637"
         style="fill:#dce3e6;fill-opacity:1" />
      <g
         id="g4639"
         style="fill:#dce3e6;fill-opacity:1" />
      <g
         id="g4641"
         style="fill:#dce3e6;fill-opacity:1" />
      <g
         id="g4643"
         style="fill:#dce3e6;fill-opacity:1" />
      <g
         id="g4645"
         style="fill:#dce3e6;fill-opacity:1" />
      <g
         id="g4647"
         style="fill:#dce3e6;fill-opacity:1" />
      <g
         id="g4649"
         style="fill:#dce3e6;fill-opacity:1" />
      <g
         id="g4651"
         style="fill:#dce3e6;fill-opacity:1" />
      <g
         id="g4653"
         style="fill:#dce3e6;fill-opacity:1" />
      <g
         id="g4655"
         style="fill:#dce3e6;fill-opacity:1" />
      <g
         id="g4657"
         style="fill:#dce3e6;fill-opacity:1" />
      <g
         id="g4659"
         style="fill:#dce3e6;fill-opacity:1" />
      <g
         id="g4661"
         style="fill:#dce3e6;fill-opacity:1" />
      <g
         id="g4663"
         style="fill:#dce3e6;fill-opacity:1" />
    </g>
  </g>
</svg>
